<svg width="20" height="20" viewBox="0 0 20 20" fill="none" xmlns="http://www.w3.org/2000/svg">
<path d="M10.4948 1.54937C11.0015 1.54457 11.5092 1.59718 12.0117 1.70562C12.3529 1.77899 12.689 1.78827 13.0274 1.73167C13.5422 1.6453 14.064 1.6258 14.5833 1.67307C15.1482 1.7248 15.6832 1.89575 16.1784 2.17437C16.6457 2.43758 17.0692 2.76391 17.4414 3.15745L17.7344 3.52203C17.9967 3.90004 18.1615 4.3299 18.2292 4.79807L18.3138 5.53375L18.3333 6.27594C18.3275 6.73838 18.3052 7.2007 18.2682 7.66266C18.2361 8.06392 18.2324 8.46588 18.2617 8.86708C18.2923 9.28412 18.3458 9.70558 18.418 10.1236L18.5091 10.8723C18.5266 11.1216 18.5301 11.3712 18.5221 11.621L18.4896 12.9426L18.405 14.3619C18.3763 14.626 18.3337 14.8871 18.2682 15.1431L18.0143 15.8983C17.8281 16.3504 17.5429 16.7259 17.168 17.0116L16.7578 17.2655L15.5729 17.871C15.3509 17.9811 15.1195 18.0737 14.8828 18.1574L14.1537 18.3723C13.8726 18.4372 13.5901 18.4688 13.3073 18.4699L12.461 18.3788C12.2828 18.3393 12.1036 18.3162 11.9271 18.3072L11.4063 18.3267C10.902 18.3862 10.3939 18.3901 9.88934 18.3397C9.71393 18.3222 9.53832 18.3156 9.36199 18.3267L8.82163 18.4048C8.21419 18.5428 7.6072 18.498 7.01824 18.2811C6.85123 18.2197 6.68863 18.1789 6.52996 18.1574L6.06121 18.1509C5.78235 18.1788 5.50639 18.1762 5.23439 18.1444L4.4271 17.9556C4.17249 17.8662 3.92813 17.7579 3.69793 17.6236L3.04689 17.1548C2.63225 16.7942 2.29997 16.3605 2.05079 15.8658C1.79908 15.3653 1.65114 14.8302 1.6146 14.2707C1.57972 13.7334 1.631 13.1963 1.76434 12.6692L1.8034 12.259C1.79505 12.1213 1.76626 11.9807 1.71225 11.8358C1.48743 11.2353 1.44518 10.6104 1.60809 9.99338C1.71295 9.59587 1.78418 9.20162 1.81642 8.80849C1.84326 8.48044 1.80589 8.14336 1.69272 7.79937C1.52063 7.27562 1.42801 6.73928 1.42579 6.19781C1.42384 5.55559 1.63474 4.96703 2.02475 4.45302C2.28475 4.11027 2.5025 3.76453 2.68231 3.42437L2.94272 3.02724C3.23304 2.66338 3.61563 2.40003 4.07553 2.24599L5.10418 1.88141C5.57162 1.70704 6.09577 1.69551 6.62111 1.77073C6.99956 1.82468 7.37659 1.83203 7.75392 1.79677C8.18731 1.75614 8.62249 1.71004 9.056 1.65354C9.53316 1.59131 10.0168 1.55413 10.4948 1.54937Z" fill="#BB663F"/>
<path d="M14.3557 5.76272L14.6942 5.91115L14.7267 6.02053H14.7398C15.0724 6.40067 15.0878 7.03454 14.7723 7.43459L14.7137 7.51272L13.8348 8.61428L13.2684 9.1924C12.965 9.5654 12.6691 9.94765 12.3765 10.333L11.6213 11.4815C11.3091 12.035 10.9182 12.5026 10.4559 12.8799C10.2985 13.0085 10.1584 13.1422 10.0327 13.2783L9.6942 13.7002C9.47169 14.031 9.13112 14.3371 8.67206 14.3643C8.45477 14.3766 8.25566 14.3269 8.07961 14.2393L7.62388 13.9033C7.26865 13.5586 6.91904 13.2072 6.57571 12.8487C6.19372 12.4496 5.80045 11.8314 5.37779 11.0752C5.09935 10.8545 4.94506 10.4508 5.01972 10.0362C5.09372 9.6302 5.36319 9.33311 5.68378 9.26272L6.0093 9.27053L6.09393 9.29397L6.42597 9.3799L6.61477 9.72365C7.07038 10.5668 7.42293 11.0833 7.66946 11.3408C7.95945 11.6437 8.25586 11.9388 8.55487 12.2315C8.83254 11.8597 9.15326 11.5217 9.51841 11.2237C9.80791 10.9874 10.0482 10.6985 10.2411 10.3565L10.6708 9.65334C10.8214 9.42325 10.9757 9.19722 11.1395 8.98147C11.4453 8.57861 11.7598 8.18386 12.077 7.79397L12.9038 6.66897C13.0481 6.45051 13.1862 6.25271 13.314 6.10647C13.375 6.03683 13.4707 5.94191 13.5809 5.86428C13.6261 5.83242 13.8164 5.69307 14.0757 5.70022L14.3557 5.76272Z" fill="white"/>
</svg>
