<svg width="18" height="18" viewBox="0 0 18 18" fill="none" xmlns="http://www.w3.org/2000/svg">
<path d="M9.49481 0.549374C10.0015 0.544566 10.5092 0.597183 11.0117 0.705624C11.3529 0.778989 11.689 0.788267 12.0274 0.731666C12.5422 0.645302 13.064 0.625799 13.5833 0.673072C14.1482 0.724798 14.6832 0.895751 15.1784 1.17437C15.6457 1.43758 16.0692 1.76391 16.4414 2.15745L16.7344 2.52203C16.9967 2.90004 17.1615 3.3299 17.2292 3.79807L17.3138 4.53375L17.3333 5.27594C17.3275 5.73838 17.3052 6.2007 17.2682 6.66266C17.2361 7.06392 17.2324 7.46588 17.2617 7.86708C17.2923 8.28412 17.3458 8.70558 17.418 9.12359L17.5091 9.87229C17.5266 10.1216 17.5301 10.3712 17.5221 10.621L17.4896 11.9426L17.405 13.3619C17.3763 13.626 17.3337 13.8871 17.2682 14.1431L17.0143 14.8983C16.8281 15.3504 16.5429 15.7259 16.168 16.0116L15.7578 16.2655L14.5729 16.871C14.3509 16.9811 14.1195 17.0737 13.8828 17.1574L13.1537 17.3723C12.8726 17.4372 12.5901 17.4688 12.3073 17.4699L11.461 17.3788C11.2828 17.3393 11.1036 17.3162 10.9271 17.3072L10.4063 17.3267C9.90202 17.3862 9.39394 17.3901 8.88934 17.3397C8.71393 17.3222 8.53832 17.3156 8.36199 17.3267L7.82163 17.4048C7.21419 17.5428 6.6072 17.498 6.01824 17.2811C5.85123 17.2197 5.68863 17.1789 5.52996 17.1574L5.06121 17.1509C4.78235 17.1788 4.50639 17.1762 4.23439 17.1444L3.4271 16.9556C3.17249 16.8662 2.92813 16.7579 2.69793 16.6236L2.04689 16.1548C1.63225 15.7942 1.29997 15.3605 1.05079 14.8658C0.799083 14.3653 0.65114 13.8302 0.614597 13.2707C0.579717 12.7334 0.630998 12.1963 0.764336 11.6692L0.803399 11.259C0.79505 11.1213 0.766265 10.9807 0.712253 10.8358C0.487431 10.2353 0.445179 9.61037 0.608086 8.99338C0.712953 8.59587 0.784178 8.20162 0.81642 7.80849C0.843259 7.48044 0.80589 7.14336 0.692722 6.79937C0.520634 6.27562 0.428014 5.73928 0.425795 5.19781C0.423844 4.55559 0.634741 3.96703 1.02475 3.45302C1.28475 3.11027 1.5025 2.76453 1.68231 2.42437L1.94272 2.02724C2.23304 1.66338 2.61563 1.40003 3.07553 1.24599L4.10418 0.881406C4.57162 0.707042 5.09577 0.695512 5.62111 0.770729C5.99956 0.824682 6.37659 0.832032 6.75392 0.79677C7.18731 0.756138 7.62249 0.71004 8.056 0.653541C8.53316 0.591314 9.01682 0.554131 9.49481 0.549374ZM9.50783 2.21604C9.20034 2.21911 8.89281 2.23836 8.58497 2.27057L7.59376 2.38857C7.3656 2.41327 7.13739 2.43562 6.91017 2.45693C6.40037 2.50465 5.88889 2.49069 5.38022 2.41786C5.0211 2.36667 4.80687 2.4011 4.69012 2.44391C4.38652 2.55727 4.02051 2.68171 3.60288 2.82151C3.39433 2.89144 3.25633 3.0114 3.15366 3.20562C2.92795 3.63258 2.6566 4.05327 2.34637 4.46213C2.16868 4.69747 2.09196 4.93346 2.09246 5.1913C2.09394 5.55185 2.15536 5.91486 2.27475 6.27854C2.45402 6.82344 2.52246 7.38437 2.47658 7.94521C2.43602 8.4393 2.35197 8.93337 2.22267 9.42307C2.1514 9.69424 2.16067 9.96228 2.26824 10.2499C2.43588 10.6976 2.50068 11.1563 2.45704 11.6171L2.37892 12.0793C2.28752 12.4407 2.25151 12.8002 2.27475 13.1601C2.29666 13.4975 2.38389 13.8163 2.53517 14.1171C2.68905 14.4228 2.89235 14.6824 3.14064 14.8983L3.53777 15.1848C3.67781 15.2664 3.82616 15.3326 3.98048 15.3866L4.4297 15.4908C4.5811 15.5083 4.73877 15.5068 4.89845 15.4908L5.32814 15.4778C5.75485 15.4858 6.17693 15.5664 6.59116 15.7186C6.89045 15.8288 7.17625 15.8477 7.45704 15.7837L8.25132 15.6666C8.51773 15.6495 8.78475 15.6531 9.0521 15.6796C9.43639 15.718 9.82631 15.7119 10.211 15.6666L11.0182 15.6405C11.2859 15.6545 11.553 15.6923 11.819 15.7512L12.3008 15.8033C12.4605 15.8026 12.6228 15.7882 12.7826 15.7512L13.3294 15.5884C13.5044 15.5264 13.6708 15.4529 13.8307 15.3736L14.9961 14.7877L15.2826 14.5728C15.361 14.4868 15.4214 14.3816 15.4714 14.2603L15.6537 13.7265C15.6993 13.5473 15.7314 13.3636 15.7513 13.1796L15.8229 11.9231L15.8555 10.5689C15.8616 10.3759 15.856 10.1829 15.8425 9.98948L15.7708 9.40354C15.6898 8.93344 15.6361 8.46184 15.6016 7.99078C15.566 7.50458 15.5692 7.01858 15.6081 6.53245C15.6422 6.10661 15.6613 5.67592 15.6667 5.2499L15.582 4.03245C15.5409 3.75002 15.4287 3.51298 15.2305 3.30328C14.9704 3.02833 14.6777 2.80599 14.3581 2.6262C14.0663 2.46207 13.7574 2.36329 13.4271 2.33323C13.052 2.29934 12.6797 2.31654 12.3073 2.3788C11.7589 2.4708 11.2058 2.4571 10.6602 2.33974C10.2748 2.25658 9.889 2.21225 9.50783 2.21604Z" fill="#BB663F"/>
</svg>
