<svg width="24" height="24" viewBox="0 0 24 24" fill="none" xmlns="http://www.w3.org/2000/svg">
<path d="M19 22V23H5V22H19ZM22 19V5C22 3.34315 20.6569 2 19 2H5C3.34315 2 2 3.34315 2 5V19C2 20.6569 3.34315 22 5 22V23L4.79395 22.9951C2.7488 22.8913 1.10865 21.2512 1.00488 19.2061L1 19V5C1 2.85996 2.68056 1.11211 4.79395 1.00488L5 1H19L19.2061 1.00488C21.3194 1.11211 23 2.85996 23 5V19L22.9951 19.2061C22.8913 21.2512 21.2512 22.8913 19.2061 22.9951L19 23V22C20.6569 22 22 20.6569 22 19Z" fill="#4A46FF"/>
</svg>
