<svg width="24" height="24" viewBox="0 0 24 24" fill="none" xmlns="http://www.w3.org/2000/svg">
<path d="M8.29689 2.64839C8.97776 2.20487 9.74659 2.05518 10.5469 2.19527C11.0129 2.27702 11.4544 2.28937 11.8672 2.23433L12.7891 2.17964C13.0981 2.18298 13.4102 2.20209 13.7188 2.24996C14.2925 2.33909 14.8587 2.47748 15.4141 2.65621L16.2422 2.96089C16.5124 3.07375 16.7774 3.20017 17.0391 3.33589L17.8281 3.80464C18.0805 3.97385 18.3289 4.15401 18.5625 4.35152L19.2578 5.08589C19.4621 5.35411 19.6362 5.64838 19.7813 5.96089C19.9471 6.31733 20.1883 6.63388 20.5156 6.91402L20.9375 7.35152C21.3094 7.81672 21.5327 8.37111 21.5781 8.99214C21.6188 9.5483 21.6529 10.0928 21.6875 10.6171L21.75 11.164L21.7735 11.2968L21.9063 11.7656C21.9265 11.9187 21.9279 12.0626 21.9219 12.1796L21.7891 13.0078C21.6719 13.5049 21.5704 14.0028 21.4844 14.5C21.3864 15.0666 21.2445 15.6309 21.0625 16.1875C20.8641 16.793 20.5785 17.3605 20.211 17.8828C20.0171 18.1579 19.8031 18.4131 19.5625 18.6406L18.7656 19.25C18.3631 19.5016 17.9939 19.7882 17.6563 20.1093C17.4229 20.3315 17.1695 20.5312 16.9063 20.7109L16.0781 21.1875C15.5276 21.4451 14.9522 21.6455 14.3594 21.7812C13.8101 21.9067 13.2501 22.0097 12.6875 22.0937C12.3539 22.1435 12.0188 22.1647 11.6875 22.1484L10.6953 21.9921L9.07814 21.5312C8.78644 21.4364 8.50252 21.3232 8.22658 21.1953L7.42189 20.7656L6.06251 19.8984L4.68751 18.914C4.42322 18.7087 4.17897 18.4814 3.96095 18.2343L3.37501 17.4218C3.07036 16.906 2.80454 16.3683 2.58595 15.8125C2.36226 15.243 2.20211 14.6564 2.10158 14.0546C2.00723 13.489 1.93867 12.9158 1.89845 12.3437C1.84946 11.6417 1.96745 10.9602 2.25001 10.3125L2.50783 9.64058C2.57894 9.41988 2.63304 9.19768 2.6797 8.97652L3.1172 7.32808L3.32033 6.81246C3.558 6.31945 3.89682 5.88991 4.33595 5.53902C4.72514 5.228 5.08118 4.89437 5.40626 4.53902L6.14845 3.87496C6.41215 3.68166 6.69878 3.51549 7.00001 3.37496L8.29689 2.64839ZM15.711 8.28902C15.3204 7.89854 14.6796 7.89851 14.2891 8.28902L14.25 8.32808L14.211 8.35933L14.1875 8.37496L14.1641 8.39839L13.3516 9.18746C13.0227 9.52138 12.6591 9.82799 12.2656 10.1015C12.1381 10.1904 12.0141 10.2823 11.8985 10.3828C11.7243 10.2239 11.5548 10.0594 11.375 9.90621C11.0043 9.59037 10.4785 9.08548 9.78908 8.37496L9.78126 8.36714L9.71095 8.28902L9.37501 8.07027C9.01433 7.925 8.58138 7.99671 8.28908 8.28902C7.99677 8.58132 7.92506 9.01427 8.07033 9.37496L8.28908 9.71089L8.3672 9.78121C9.06391 10.4988 9.63737 11.0541 10.0781 11.4296C10.2861 11.6069 10.4802 11.7987 10.6797 11.9843C10.6372 12.0454 10.6087 12.1152 10.5625 12.1718L10.1406 12.5859L8.3672 14.2187L8.28908 14.289C7.89857 14.6795 7.8986 15.3204 8.28908 15.7109C8.6796 16.1014 9.32043 16.1014 9.71095 15.7109L9.77345 15.6406C10.4758 14.9441 11.0136 14.4497 11.3906 14.1484L12.0391 13.5C12.0525 13.5196 12.0727 13.5348 12.086 13.5546C12.483 14.1495 13.0105 14.618 13.6485 14.9531L13.9297 15.125V15.3437L14.2188 15.6328L14.2891 15.7109L14.625 15.9296C14.9857 16.0749 15.4186 16.0032 15.711 15.7109C16.0033 15.4186 16.075 14.9856 15.9297 14.625V14.5937L15.8985 14.4765C15.7905 14.0683 15.4975 13.7922 15.3203 13.6484L14.5781 13.1796C14.2283 12.9957 13.9561 12.7541 13.75 12.4453C13.6086 12.2335 13.4534 12.0337 13.2969 11.8359C13.3354 11.8054 13.3734 11.7704 13.4141 11.7421C13.9084 11.3983 14.3636 11.0105 14.7813 10.5859L15.461 9.92183L15.5313 9.86714L15.586 9.82808L15.6328 9.78121L15.711 9.71089C16.1015 9.32037 16.1015 8.67954 15.711 8.28902Z" fill="#463E53"/>
</svg>
