<svg width="46" height="46" viewBox="0 0 46 46" fill="none" xmlns="http://www.w3.org/2000/svg">
<g opacity="0.16" filter="url(#filter0_d_2380_16985)">
<path d="M1 1H41V41H1V1Z" fill="#F1EBD8" shape-rendering="crispEdges"/>
<path d="M7.8 0.803437L7.6889 0.315936L7.8 0.803437ZM11.8 0.857312L11.6019 0.398222L11.8 0.857312ZM13.4 0.761153L13.3849 1.26092L13.4 0.761153ZM41.0846 1.42784L40.597 1.5387L41.0846 1.42784ZM40.9822 2.19998L41.4351 2.41178L40.9822 2.19998ZM40.685 3.79998L41.185 3.79774L40.685 3.79998ZM40.9139 7.79997L40.5073 7.509L40.9139 7.79997ZM41.0439 9.39997L41.5034 9.20279L41.0439 9.39997ZM41.0603 10.2L41.5264 10.3809L41.0603 10.2ZM41.0592 13.4L40.6393 13.6714L41.0592 13.4ZM41.2449 15L41.7211 14.8474L41.2449 15ZM41.2151 16.6L40.723 16.6884L41.2151 16.6ZM40.9499 17.4L40.5676 17.0777L40.9499 17.4ZM41.1725 19.8L40.7035 19.6266L41.1725 19.8ZM41.0874 27L40.6871 26.7004L41.0874 27ZM41.2275 37.4L40.7276 37.3968L41.2275 37.4ZM41.1317 38.2L40.6447 38.0864L41.1317 38.2ZM41.1774 40.4476L40.771 40.1563L41.1774 40.4476ZM40.6 40.8005L40.4727 40.317L40.6 40.8005ZM38.2 40.9657L38.1363 41.4617L38.2 40.9657ZM37.4 40.9694L37.4681 41.4647L37.4 40.9694ZM35.8 40.9457L36.0803 41.3597L35.8 40.9457ZM30.1999 41.1149L30.323 41.5995L30.1999 41.1149ZM28.5999 41.0858L28.5219 41.5797L28.5999 41.0858ZM26.1999 41.0669L26.4088 41.5212L26.1999 41.0669ZM23.7999 41.0075L23.6033 41.4672L23.7999 41.0075ZM22.9999 40.782L22.9326 41.2775L22.9999 40.782ZM21.3999 41.0452L21.6433 40.6084L21.3999 41.0452ZM18.1999 41.0237L18.4315 41.4668L18.1999 41.0237ZM15.7999 40.8445L15.9335 40.3627L15.7999 40.8445ZM14.9999 40.7854L14.9357 40.2895L14.9999 40.7854ZM11.7999 40.9611L12.0754 40.5439L11.7999 40.9611ZM10.1999 40.8304L10.1964 40.3304L10.1999 40.8304ZM9.39986 40.7788L9.33248 41.2742L9.39986 40.7788ZM6.99986 40.6611L7.06076 40.1648L6.99986 40.6611ZM3.79984 41.2326L3.71261 40.7403L3.79984 41.2326ZM2.99984 41.1893L2.86259 41.6701L2.99984 41.1893ZM2.19984 41.1001L2.23103 41.5991L2.19984 41.1001ZM1.36447 41.0625L1.29326 41.5574L1.36447 41.0625ZM0.688669 16.5997L0.189014 16.6183L0.688669 16.5997ZM0.900346 2.99969L0.404966 2.93187L0.900346 2.99969ZM0.990291 2.19968L0.492215 2.15587L0.990291 2.19968ZM1.4 1.14318L1.2315 1.61393C1.58559 1.74067 1.95033 1.76467 2.3141 1.67941L2.2 1.1926L2.0859 0.705796C1.91634 0.745539 1.74775 0.736587 1.5685 0.672427L1.4 1.14318ZM2.2 1.1926L2.3141 1.67941C2.59488 1.6136 2.87518 1.53504 3.15499 1.44381L3 0.968439L2.84501 0.493066C2.59149 0.575724 2.33846 0.646602 2.0859 0.705796L2.2 1.1926ZM3 0.968439L3.15499 1.44381C3.37795 1.37112 3.59666 1.33329 3.81244 1.32792L3.8 0.828076L3.78756 0.328231C3.47001 0.336131 3.15538 0.391878 2.84501 0.493066L3 0.968439ZM3.8 0.828076L3.81244 1.32792C3.98074 1.32373 4.16198 1.36574 4.36259 1.47397L4.6 1.03393L4.83741 0.593888C4.50468 0.414379 4.15259 0.31915 3.78756 0.328231L3.8 0.828076ZM4.6 1.03393L4.36259 1.47397C4.75494 1.68565 5.17979 1.71652 5.59337 1.54307L5.4 1.08198L5.20663 0.620889C5.08687 0.671111 4.97839 0.669949 4.83741 0.593888L4.6 1.03393ZM5.4 1.08198L5.59337 1.54307C5.81174 1.45149 6.02254 1.40267 6.22765 1.39131L6.2 0.892072L6.17235 0.392838C5.84413 0.411017 5.52159 0.488798 5.20663 0.620889L5.4 1.08198ZM6.2 0.892072L6.22765 1.39131C6.47999 1.37733 6.73229 1.37424 6.98459 1.38202L7 0.882255L7.01542 0.382493C6.73438 0.373824 6.45334 0.377274 6.17235 0.392838L6.2 0.892072ZM7 0.882255L6.98459 1.38202C7.29484 1.39159 7.604 1.36092 7.9111 1.29094L7.8 0.803437L7.6889 0.315936C7.46267 0.367493 7.2385 0.389374 7.01542 0.382493L7 0.882255ZM7.8 0.803437L7.9111 1.29094C8.08596 1.25109 8.25955 1.25916 8.44192 1.31994L8.6 0.845584L8.75808 0.371231C8.40711 0.254268 8.04737 0.234244 7.6889 0.315936L7.8 0.803437ZM8.6 0.845584L8.44192 1.31994C8.74981 1.42254 9.06173 1.48233 9.37659 1.49709L9.4 0.997634L9.42341 0.498182C9.20494 0.487943 8.98353 0.446362 8.75808 0.371231L8.6 0.845584ZM9.4 0.997634L9.37659 1.49709C9.61769 1.50839 9.85938 1.53818 10.1019 1.58672L10.2 1.09644L10.2981 0.606168C10.0073 0.547954 9.71564 0.511879 9.42341 0.498182L9.4 0.997634ZM10.2 1.09644L10.1019 1.58672C10.4304 1.65248 10.761 1.65533 11.0901 1.59501L11 1.1032L10.9099 0.611393C10.7057 0.648811 10.5029 0.647155 10.2981 0.606168L10.2 1.09644ZM11 1.1032L11.0901 1.59501C11.3964 1.53888 11.6992 1.44535 11.9981 1.3164L11.8 0.857312L11.6019 0.398222C11.3674 0.499392 11.1369 0.569787 10.9099 0.611393L11 1.1032ZM11.8 0.857312L11.9981 1.3164C12.1963 1.23086 12.3815 1.20094 12.5599 1.21529L12.6 0.716896L12.6401 0.218505C12.2852 0.189961 11.937 0.253646 11.6019 0.398222L11.8 0.857312ZM12.6 0.716896L12.5599 1.21529C12.8349 1.2374 13.1099 1.25261 13.3849 1.26092L13.4 0.761153L13.4151 0.261381C13.1568 0.253576 12.8985 0.239285 12.6401 0.218505L12.6 0.716896ZM13.4 0.761153L13.3849 1.26092C13.6387 1.26859 13.8925 1.28608 14.1465 1.31341L14.2 0.816277L14.2535 0.319146C13.9741 0.28909 13.6947 0.269829 13.4151 0.261381L13.4 0.761153ZM14.2 0.816277L14.1465 1.31341C14.4478 1.34582 14.7493 1.34669 15.0507 1.31601L15 0.818585L14.9494 0.321157C14.7173 0.344781 14.4856 0.344115 14.2535 0.319146L14.2 0.816277ZM15 0.818585L15.0507 1.31601C15.1776 1.30308 15.3288 1.33413 15.5188 1.46338L15.8 1.04997L16.0812 0.636558C15.7379 0.402988 15.3557 0.279782 14.9494 0.321157L15 0.818585ZM15.8 1.04997L15.5188 1.46338C15.8864 1.71344 16.3054 1.81211 16.7391 1.68654L16.6 1.20626L16.4609 0.725991C16.3613 0.754843 16.247 0.749308 16.0812 0.636558L15.8 1.04997ZM16.6 1.20626L16.7391 1.68654C17.039 1.59971 17.3355 1.48022 17.6285 1.32967L17.4 0.884938L17.1715 0.440203C16.9312 0.563676 16.6944 0.658403 16.4609 0.725991L16.6 1.20626ZM17.4 0.884938L17.6285 1.32967C17.7439 1.2704 17.834 1.26983 17.9577 1.33836L18.2 0.900968L18.4423 0.463575C18.0327 0.236717 17.5895 0.22546 17.1715 0.440203L17.4 0.884938ZM18.2 0.900968L17.9577 1.33836C18.3291 1.54402 18.7334 1.60447 19.1415 1.48409L19 1.00452L18.8585 0.524947C18.7333 0.561891 18.6043 0.553305 18.4423 0.463575L18.2 0.900968ZM19 1.00452L19.1415 1.48409C19.3237 1.43033 19.4997 1.42677 19.6789 1.4715L19.8 0.986393L19.9211 0.501285C19.5669 0.412857 19.2096 0.421377 18.8585 0.524947L19 1.00452ZM19.8 0.986393L19.6789 1.4715C20.0853 1.57297 20.4831 1.50043 20.8474 1.293L20.6 0.858502L20.3526 0.424003C20.1835 0.520257 20.0481 0.532981 19.9211 0.501285L19.8 0.986393ZM20.6 0.858502L20.8474 1.293C20.8731 1.27835 20.8893 1.2739 20.8966 1.27245C20.9031 1.27116 20.9077 1.27118 20.9135 1.2722C20.9257 1.27434 20.9752 1.28749 21.0614 1.36682L21.4 0.99895L21.7386 0.631081C21.5581 0.464935 21.341 0.331945 21.0865 0.287265C20.8233 0.241058 20.5728 0.29863 20.3526 0.424003L20.6 0.858502ZM21.4 0.99895L21.0614 1.36682C21.4158 1.69309 21.8646 1.87182 22.3541 1.71328L22.2 1.2376L22.0459 0.761931C22.0021 0.776127 21.9175 0.795759 21.7386 0.631081L21.4 0.99895ZM22.2 1.2376L22.3541 1.71328C22.5815 1.63961 22.8053 1.59783 23.0266 1.58606L23 1.08676L22.9734 0.58747C22.6613 0.604077 22.3518 0.66285 22.0459 0.761931L22.2 1.2376ZM23 1.08676L23.0266 1.58606C23.3022 1.57139 23.5778 1.54929 23.8533 1.51977L23.8 1.02262L23.7467 0.525465C23.4889 0.553092 23.2311 0.573758 22.9734 0.58747L23 1.08676ZM23.8 1.02262L23.8533 1.51977C24.1248 1.49068 24.3963 1.45758 24.6677 1.42048L24.6 0.925082L24.5323 0.429689C24.2704 0.465485 24.0086 0.49741 23.7467 0.525465L23.8 1.02262ZM24.6 0.925082L24.6677 1.42048C24.9155 1.3866 25.1631 1.36712 25.4104 1.36198L25.4 0.862084L25.3896 0.362192C25.1036 0.368143 24.8178 0.390664 24.5323 0.429689L24.6 0.925082ZM25.4 0.862084L25.4104 1.36198C25.5621 1.35882 25.7336 1.40335 25.9328 1.5293L26.2 1.10671L26.4672 0.684116C26.1331 0.472801 25.7712 0.354252 25.3896 0.362192L25.4 0.862084ZM26.2 1.10671L25.9328 1.5293C26.1496 1.66642 26.403 1.73846 26.675 1.69716C26.938 1.65723 27.1601 1.52023 27.3417 1.3503L27 0.985257L26.6583 0.620215C26.5732 0.699879 26.5286 0.707926 26.5249 0.708484C26.5233 0.708741 26.5217 0.708994 26.5168 0.707811C26.5108 0.706359 26.4944 0.701311 26.4672 0.684116L26.2 1.10671ZM27 0.985257L27.3417 1.3503C27.4259 1.27142 27.4682 1.2658 27.4683 1.26577C27.4684 1.26576 27.469 1.26533 27.4737 1.26656C27.4796 1.26812 27.4965 1.27365 27.5245 1.29218L27.8 0.874893L28.0754 0.457605C27.8607 0.315885 27.607 0.237172 27.3317 0.275157C27.0652 0.311922 26.8407 0.44949 26.6583 0.620215L27 0.985257ZM27.8 0.874893L27.5245 1.29218C27.8354 1.49734 28.1607 1.64125 28.4998 1.7106L28.6 1.22074L28.7002 0.730883C28.5059 0.691145 28.298 0.604489 28.0754 0.457605L27.8 0.874893ZM28.6 1.22074L28.4998 1.7106C28.9526 1.80322 29.3685 1.64686 29.7176 1.35973L29.4 0.973563L29.0824 0.587399C28.8982 0.738919 28.7807 0.74735 28.7002 0.730883L28.6 1.22074ZM29.4 0.973563L29.7176 1.35973C29.9246 1.1895 30.0894 1.13455 30.2178 1.12996L30.2 0.630281L30.1821 0.1306C29.7773 0.145064 29.4087 0.318971 29.0824 0.587399L29.4 0.973563ZM30.2 0.630281L30.2178 1.12996C30.304 1.12688 30.4462 1.16142 30.6538 1.3606L31 0.99983L31.3462 0.639064C31.0204 0.326452 30.6293 0.114625 30.1821 0.1306L30.2 0.630281ZM31 0.99983L30.6538 1.3606C30.8302 1.52989 31.0408 1.66817 31.2877 1.72507C31.5444 1.78422 31.7959 1.74497 32.0231 1.63164L31.8 1.18419L31.5768 0.736745C31.5374 0.756399 31.5223 0.752911 31.5123 0.750611C31.4925 0.746061 31.4364 0.725664 31.3462 0.639064L31 0.99983ZM31.8 1.18419L32.0231 1.63164C32.1677 1.55956 32.2858 1.55743 32.4145 1.60885L32.6 1.14455L32.7855 0.680243C32.3809 0.518559 31.9656 0.542859 31.5768 0.736745L31.8 1.18419ZM32.6 1.14455L32.4145 1.60885C32.8529 1.78406 33.2913 1.71116 33.6765 1.45552L33.4 1.03892L33.1235 0.622315C32.9754 0.720623 32.8804 0.71815 32.7855 0.680243L32.6 1.14455ZM33.4 1.03892L33.6765 1.45552C33.7453 1.40982 33.7855 1.40478 33.8038 1.40464C33.8219 1.4045 33.8608 1.40874 33.928 1.45232L34.2 1.03277L34.472 0.613219C34.2725 0.483927 34.0448 0.402755 33.7961 0.404666C33.5478 0.406575 33.3213 0.491041 33.1235 0.622315L33.4 1.03892ZM34.2 1.03277L33.928 1.45232C34.2543 1.66383 34.6046 1.79298 34.9742 1.81207L35 1.31273L35.0258 0.813395C34.8621 0.804946 34.6791 0.747462 34.472 0.613219L34.2 1.03277ZM35 1.31273L34.9742 1.81207C35.4007 1.83408 35.7867 1.66197 36.1201 1.38399L35.8 0.999934L35.4798 0.615876C35.28 0.782493 35.1326 0.81891 35.0258 0.813395L35 1.31273ZM35.8 0.999934L36.1201 1.38399C36.3305 1.20866 36.5014 1.14562 36.6368 1.13563L36.6 0.636988L36.5632 0.138342C36.1652 0.167694 35.8028 0.346619 35.4798 0.615876L35.8 0.999934ZM36.6 0.636988L36.6368 1.13563C36.7772 1.12527 36.9382 1.16111 37.1311 1.28417L37.4 0.862612L37.6689 0.44106C37.3284 0.223941 36.9561 0.109366 36.5632 0.138342L36.6 0.636988ZM37.4 0.862612L37.1311 1.28417C37.5147 1.52882 37.9465 1.59703 38.3786 1.43177L38.2 0.964762L38.0214 0.49775C37.9202 0.536464 37.8186 0.536572 37.6689 0.44106L37.4 0.862612ZM38.2 0.964762L38.3786 1.43177C38.547 1.36737 38.7024 1.36163 38.8616 1.40748L39 0.927021L39.1384 0.446562C38.7642 0.338763 38.3863 0.358182 38.0214 0.49775L38.2 0.964762ZM39 0.927021L38.8616 1.40748C39.2007 1.50517 39.5455 1.52393 39.89 1.46088L39.8 0.969052L39.71 0.477221C39.5211 0.511779 39.3326 0.502522 39.1384 0.446562L39 0.927021ZM39.8 0.969052L39.89 1.46088C40.0943 1.4235 40.2971 1.42514 40.502 1.46608L40.6 0.975771L40.6979 0.485462C40.3695 0.419831 40.039 0.416999 39.71 0.477221L39.8 0.969052ZM40.6 0.975771L40.502 1.46608C40.534 1.47247 40.554 1.48002 40.5652 1.4854C40.576 1.49053 40.5797 1.49404 40.5801 1.49437C40.5803 1.49455 40.5815 1.49551 40.5838 1.49982C40.5865 1.50464 40.592 1.5164 40.597 1.5387L41.0846 1.42784L41.5722 1.31698C41.5252 1.11051 41.4269 0.91675 41.2622 0.76313C41.0994 0.611286 40.9013 0.526096 40.6979 0.485462L40.6 0.975771ZM41.0846 1.42784L40.597 1.5387C40.625 1.66184 40.6146 1.8057 40.5292 1.98818L40.9822 2.19998L41.4351 2.41178C41.5992 2.06092 41.657 1.69002 41.5722 1.31698L41.0846 1.42784ZM40.9822 2.19998L40.5292 1.98818C40.3854 2.2958 40.2888 2.61031 40.244 2.93069L40.7391 2.99998L41.2343 3.06927C41.2641 2.85632 41.3295 2.6375 41.4351 2.41178L40.9822 2.19998ZM40.7391 2.99998L40.244 2.93069C40.2034 3.22082 40.1837 3.51139 40.185 3.80222L40.685 3.79998L41.185 3.79774C41.1839 3.55523 41.2003 3.31247 41.2343 3.06927L40.7391 2.99998ZM40.685 3.79998L40.185 3.80222C40.1865 4.14401 40.2632 4.4785 40.4064 4.80225L40.8637 4.59998L41.321 4.39771C41.2282 4.18812 41.1858 3.98928 41.185 3.79774L40.685 3.79998ZM40.8637 4.59998L40.4064 4.80225C40.5182 5.05497 40.6158 5.30686 40.6995 5.55795L41.1738 5.39998L41.6482 5.24201C41.5542 4.95976 41.4451 4.67832 41.321 4.39771L40.8637 4.59998ZM41.1738 5.39998L40.6995 5.55795C40.7563 5.7287 40.7588 5.89076 40.7093 6.05823L41.1888 6.19998L41.6683 6.34172C41.7764 5.97586 41.769 5.60459 41.6482 5.24201L41.1738 5.39998ZM41.1888 6.19998L40.7093 6.05823C40.6099 6.39463 40.5862 6.73704 40.6418 7.07994L41.1354 6.99998L41.6289 6.92001C41.5981 6.72957 41.6101 6.53865 41.6683 6.34172L41.1888 6.19998ZM41.1354 6.99998L40.6418 7.07994C40.6595 7.18939 40.6388 7.32521 40.5073 7.509L40.9139 7.79997L41.3205 8.09095C41.5707 7.74141 41.6976 7.34389 41.6289 6.92001L41.1354 6.99998ZM40.9139 7.79997L40.5073 7.509C40.2438 7.87718 40.1364 8.30335 40.2718 8.74617L40.75 8.59997L41.2281 8.45378C41.2004 8.36327 41.2023 8.2561 41.3205 8.09095L40.9139 7.79997ZM40.75 8.59997L40.2718 8.74617C40.3589 9.03084 40.4632 9.31451 40.5844 9.59715L41.0439 9.39997L41.5034 9.20279C41.3958 8.9521 41.3041 8.70244 41.2281 8.45378L40.75 8.59997ZM41.0439 9.39997L40.5844 9.59715C40.6481 9.74544 40.6496 9.87634 40.5942 10.019L41.0603 10.2L41.5264 10.3809C41.6781 9.99027 41.6686 9.58784 41.5034 9.20279L41.0439 9.39997ZM41.0603 10.2L40.5942 10.019C40.4612 10.3615 40.4167 10.7157 40.4699 11.0735L40.9644 11L41.459 10.9264C41.4329 10.7509 41.4523 10.5718 41.5264 10.3809L41.0603 10.2ZM40.9644 11L40.4699 11.0735C40.5103 11.3456 40.5553 11.6176 40.6048 11.8896L41.0968 11.8L41.5887 11.7104C41.5411 11.449 41.4978 11.1877 41.459 10.9264L40.9644 11ZM41.0968 11.8L40.6048 11.8896C40.6334 12.0465 40.6148 12.2091 40.5311 12.3906L40.9851 12.6L41.4392 12.8094C41.6015 12.4575 41.6572 12.0868 41.5887 11.7104L41.0968 11.8ZM40.9851 12.6L40.5311 12.3906C40.3297 12.8273 40.383 13.2748 40.6393 13.6714L41.0592 13.4L41.4791 13.1286C41.3907 12.9918 41.3946 12.906 41.4392 12.8094L40.9851 12.6ZM41.0592 13.4L40.6393 13.6714C40.7491 13.8414 40.7602 13.9671 40.7323 14.0782L41.2172 14.2L41.7022 14.3218C41.8082 13.8995 41.7139 13.4919 41.4791 13.1286L41.0592 13.4ZM41.2172 14.2L40.7323 14.0782C40.6422 14.4371 40.6554 14.7988 40.7688 15.1525L41.2449 15L41.7211 14.8474C41.6636 14.6678 41.6584 14.4962 41.7022 14.3218L41.2172 14.2ZM41.2449 15L40.7688 15.1525C40.8243 15.3258 40.8266 15.4913 40.7776 15.6619L41.2582 15.8L41.7387 15.9381C41.843 15.5753 41.8365 15.2075 41.7211 14.8474L41.2449 15ZM41.2582 15.8L40.7776 15.6619C40.6803 16.0003 40.6612 16.3445 40.723 16.6884L41.2151 16.6L41.7072 16.5115C41.6732 16.3221 41.6827 16.1329 41.7387 15.9381L41.2582 15.8ZM41.2151 16.6L40.723 16.6884C40.7374 16.7687 40.7261 16.8896 40.5676 17.0777L40.9499 17.4L41.3322 17.7222C41.6231 17.377 41.7886 16.9646 41.7072 16.5115L41.2151 16.6ZM40.9499 17.4L40.5676 17.0777C40.4157 17.2579 40.2981 17.4663 40.2513 17.7029C40.2033 17.9454 40.2366 18.1837 40.3351 18.404L40.7916 18.2L41.248 17.9959C41.2273 17.9496 41.2275 17.9212 41.2322 17.897C41.2382 17.8669 41.2593 17.8087 41.3322 17.7222L40.9499 17.4ZM40.7916 18.2L40.3351 18.404C40.4538 18.6695 40.5712 18.9349 40.6873 19.2004L41.1454 19L41.6035 18.7996C41.4863 18.5317 41.3678 18.2638 41.248 17.9959L40.7916 18.2ZM41.1454 19L40.6873 19.2004C40.7535 19.3517 40.7561 19.4844 40.7035 19.6266L41.1725 19.8L41.6415 19.9733C41.7861 19.5822 41.7706 19.1816 41.6035 18.7996L41.1454 19ZM41.1725 19.8L40.7035 19.6266C40.6083 19.8842 40.5044 20.1421 40.392 20.4004L40.8504 20.6L41.3089 20.7996C41.4287 20.5245 41.5395 20.249 41.6415 19.9733L41.1725 19.8ZM40.8504 20.6L40.392 20.4004C40.2236 20.7871 40.2145 21.1919 40.37 21.5842L40.8348 21.4L41.2996 21.2157C41.2437 21.0747 41.2451 20.9461 41.3089 20.7996L40.8504 20.6ZM40.8348 21.4L40.37 21.5842C40.4376 21.7547 40.4453 21.911 40.4024 22.0693L40.8851 22.2L41.3677 22.3306C41.4692 21.9556 41.4434 21.5786 41.2996 21.2157L40.8348 21.4ZM40.8851 22.2L40.4024 22.0693C40.3023 22.439 40.3218 22.8115 40.4545 23.1725L40.9238 23L41.3931 22.8274C41.3297 22.6551 41.3234 22.4943 41.3677 22.3306L40.8851 22.2ZM40.9238 23L40.4545 23.1725C40.5531 23.4406 40.6531 23.7087 40.7545 23.9768L41.2222 23.8L41.6898 23.6231C41.5895 23.3579 41.4906 23.0926 41.3931 22.8274L40.9238 23ZM41.2222 23.8L40.7545 23.9768C40.8148 24.1364 40.8168 24.2836 40.764 24.439L41.2374 24.6L41.7108 24.7609C41.8393 24.383 41.8312 23.9969 41.6898 23.6231L41.2222 23.8ZM41.2374 24.6L40.764 24.439C40.6389 24.8069 40.6353 25.1839 40.7546 25.5535L41.2304 25.4L41.7063 25.2464C41.6535 25.0827 41.6545 24.9263 41.7108 24.7609L41.2374 24.6ZM41.2304 25.4L40.7546 25.5535C40.8271 25.7782 40.866 25.999 40.8734 26.2169L41.3731 26.2L41.8728 26.183C41.8621 25.8676 41.8059 25.555 41.7063 25.2464L41.2304 25.4ZM41.3731 26.2L40.8734 26.2169C40.8777 26.344 40.8357 26.5017 40.6871 26.7004L41.0874 27L41.4877 27.2995C41.7381 26.9649 41.8866 26.5893 41.8728 26.183L41.3731 26.2ZM41.0874 27L40.6871 26.7004C40.4381 27.0331 40.2881 27.4051 40.2941 27.8074L40.794 27.8L41.294 27.7925C41.292 27.6615 41.3376 27.5001 41.4877 27.2995L41.0874 27ZM40.794 27.8L40.2941 27.8074C40.2987 28.1154 40.3411 28.4219 40.4203 28.726L40.9042 28.6L41.388 28.4739C41.3283 28.2447 41.2973 28.0178 41.294 27.7925L40.794 27.8ZM40.9042 28.6L40.4203 28.726C40.4917 29.0002 40.5699 29.2742 40.6548 29.548L41.1324 29.4L41.61 29.2519C41.5295 28.9924 41.4555 28.7331 41.388 28.4739L40.9042 28.6ZM41.1324 29.4L40.6548 29.548C40.709 29.7229 40.7109 29.8906 40.6618 30.0634L41.1428 30.2L41.6238 30.3366C41.7262 29.976 41.7211 29.6104 41.61 29.2519L41.1324 29.4ZM41.1428 30.2L40.6618 30.0634C40.5944 30.3008 40.5029 30.5407 40.3863 30.7834L40.837 31L41.2876 31.2166C41.4274 30.9259 41.5398 30.6325 41.6238 30.3366L41.1428 30.2ZM40.837 31L40.3863 30.7834C40.204 31.1627 40.1731 31.5661 40.3114 31.9641L40.7837 31.8L41.256 31.6359C41.209 31.5005 41.2136 31.3706 41.2876 31.2166L40.837 31ZM40.7837 31.8L40.3114 31.9641C40.3917 32.1952 40.4419 32.423 40.4636 32.6481L40.9613 32.6L41.459 32.5519C41.4292 32.2436 41.361 31.9381 41.256 31.6359L40.7837 31.8ZM40.9613 32.6L40.4636 32.6481C40.4846 32.8653 40.4737 33.0829 40.43 33.3024L40.9203 33.4L41.4107 33.4976C41.4732 33.1837 41.4896 32.868 41.459 32.5519L40.9613 32.6ZM40.9203 33.4L40.43 33.3024C40.3557 33.6755 40.4019 34.0451 40.5544 34.3982L41.0135 34.2L41.4725 34.0018C41.3947 33.8215 41.3788 33.6578 41.4107 33.4976L40.9203 33.4ZM41.0135 34.2L40.5544 34.3982C40.6009 34.5058 40.6016 34.6038 40.5181 34.7437L40.9474 35L41.3767 35.2563C41.6116 34.8629 41.6563 34.4275 41.4725 34.0018L41.0135 34.2ZM40.9474 35L40.5181 34.7437C40.3272 35.0634 40.2061 35.3998 40.171 35.7501L40.6685 35.8L41.166 35.8498C41.1843 35.6669 41.2491 35.4699 41.3767 35.2563L40.9474 35ZM40.6685 35.8L40.171 35.7501C40.1289 36.1704 40.2729 36.5592 40.5297 36.9005L40.9292 36.6L41.3288 36.2995C41.1844 36.1075 41.1547 35.9629 41.166 35.8498L40.6685 35.8ZM40.9292 36.6L40.5297 36.9005C40.6812 37.102 40.7284 37.2647 40.7276 37.3968L41.2275 37.4L41.7275 37.4032C41.7301 37.002 41.5784 36.6313 41.3288 36.2995L40.9292 36.6ZM41.2275 37.4L40.7276 37.3968C40.7261 37.6253 40.6987 37.8549 40.6447 38.0864L41.1317 38.2L41.6186 38.3136C41.689 38.0117 41.7256 37.708 41.7275 37.4032L41.2275 37.4ZM41.1317 38.2L40.6447 38.0864C40.5823 38.3538 40.5206 38.6212 40.4595 38.8887L40.9469 39L41.4344 39.1114C41.4951 38.8455 41.5565 38.5795 41.6186 38.3136L41.1317 38.2ZM40.9469 39L40.4595 38.8887C40.3647 39.3036 40.456 39.7041 40.681 40.0647L41.1052 39.8L41.5294 39.5353C41.4216 39.3626 41.4073 39.2298 41.4344 39.1114L40.9469 39ZM41.1052 39.8L40.681 40.0647C40.7098 40.1109 40.7277 40.1472 40.7383 40.1741C40.7489 40.201 40.7509 40.2148 40.7512 40.2173C40.7513 40.2188 40.7502 40.2098 40.7541 40.1942C40.7581 40.1781 40.765 40.1648 40.771 40.1563L41.1774 40.4476L41.5838 40.7389C41.8796 40.3262 41.7361 39.8664 41.5294 39.5353L41.1052 39.8ZM41.1774 40.4476L40.771 40.1563C40.7414 40.1977 40.667 40.2658 40.4727 40.317L40.6 40.8005L40.7273 41.284C41.0663 41.1948 41.3769 41.0276 41.5838 40.7389L41.1774 40.4476ZM40.6 40.8005L40.4727 40.317C40.2849 40.3665 40.1015 40.3687 39.9153 40.3246L39.8 40.8111L39.6847 41.2976C40.0318 41.3799 40.3818 41.375 40.7273 41.284L40.6 40.8005ZM39.8 40.8111L39.9153 40.3246C39.5479 40.2375 39.1799 40.2649 38.824 40.3987L39 40.8667L39.176 41.3347C39.3534 41.268 39.5188 41.2583 39.6847 41.2976L39.8 40.8111ZM39 40.8667L38.824 40.3987C38.6291 40.472 38.4445 40.493 38.2637 40.4698L38.2 40.9657L38.1363 41.4617C38.4888 41.5069 38.8376 41.462 39.176 41.3347L39 40.8667ZM38.2 40.9657L38.2637 40.4698C37.9532 40.4299 37.6422 40.4314 37.3318 40.474L37.4 40.9694L37.4681 41.4647C37.6911 41.434 37.9134 41.433 38.1363 41.4617L38.2 40.9657ZM37.4 40.9694L37.3318 40.474C37.1637 40.4972 36.9896 40.4742 36.8002 40.3915L36.6 40.8496L36.3998 41.3078C36.7437 41.4581 37.1029 41.5149 37.4681 41.4647L37.4 40.9694ZM36.6 40.8496L36.8002 40.3915C36.3574 40.198 35.9103 40.2672 35.5196 40.5317L35.8 40.9457L36.0803 41.3597C36.223 41.2631 36.3092 41.2682 36.3998 41.3078L36.6 40.8496ZM35.8 40.9457L35.5196 40.5317C35.4515 40.5779 35.4139 40.5814 35.3995 40.5814C35.3851 40.5814 35.3477 40.578 35.2798 40.5322L35 40.9465L34.7202 41.3609C34.9189 41.4951 35.1482 41.5816 35.4005 41.5814C35.6527 41.5811 35.8818 41.4942 36.0803 41.3597L35.8 40.9457ZM35 40.9465L35.2798 40.5322C35.0862 40.4014 34.8658 40.3141 34.6238 40.3025C34.3803 40.2909 34.1526 40.3579 33.9492 40.4758L34.2 40.9084L34.4507 41.3409C34.514 41.3042 34.553 41.3003 34.5761 41.3014C34.6008 41.3026 34.6471 41.3116 34.7202 41.3609L35 40.9465ZM34.2 40.9084L33.9492 40.4758C33.7101 40.6144 33.4756 40.7199 33.2456 40.7945L33.4 41.2701L33.5543 41.7457C33.8577 41.6472 34.1565 41.5115 34.4507 41.3409L34.2 40.9084ZM33.4 41.2701L33.2456 40.7945C33.0978 40.8425 32.9554 40.8377 32.7957 40.7697L32.6 41.2298L32.4042 41.6899C32.7778 41.8488 33.1688 41.8708 33.5543 41.7457L33.4 41.2701ZM32.6 41.2298L32.7957 40.7697C32.5068 40.6468 32.2159 40.5478 31.9232 40.4733L31.7999 40.9579L31.6767 41.4424C31.9173 41.5037 32.1598 41.5859 32.4042 41.6899L32.6 41.2298ZM31.7999 40.9579L31.9232 40.4733C31.5856 40.3874 31.2439 40.3772 30.9036 40.4441L30.9999 40.9347L31.0963 41.4253C31.2893 41.3874 31.4809 41.3926 31.6767 41.4424L31.7999 40.9579ZM30.9999 40.9347L30.9036 40.4441C30.6278 40.4982 30.3523 40.5603 30.0769 40.6302L30.1999 41.1149L30.323 41.5995C30.581 41.534 30.8387 41.4759 31.0963 41.4253L30.9999 40.9347ZM30.1999 41.1149L30.0769 40.6302C29.8625 40.6847 29.6516 40.7022 29.4419 40.6845L29.3999 41.1827L29.358 41.681C29.6816 41.7082 30.004 41.6805 30.323 41.5995L30.1999 41.1149ZM29.3999 41.1827L29.4419 40.6845C29.1874 40.6631 28.9328 40.6322 28.678 40.592L28.5999 41.0858L28.5219 41.5797C28.8004 41.6237 29.0791 41.6575 29.358 41.681L29.3999 41.1827ZM28.5999 41.0858L28.678 40.592C28.3316 40.5372 27.9864 40.5658 27.6484 40.6733L27.7999 41.1498L27.9515 41.6263C28.1468 41.5642 28.3349 41.5501 28.5219 41.5797L28.5999 41.0858ZM27.7999 41.1498L27.6484 40.6733C27.513 40.7164 27.3796 40.7097 27.2209 40.6315L26.9999 41.08L26.779 41.5286C27.1536 41.7131 27.5535 41.7529 27.9515 41.6263L27.7999 41.1498ZM26.9999 41.08L27.2209 40.6315C26.8211 40.4346 26.3966 40.4262 25.991 40.6126L26.1999 41.0669L26.4088 41.5212C26.5366 41.4624 26.6454 41.4628 26.779 41.5286L26.9999 41.08ZM26.1999 41.0669L25.991 40.6126C25.8767 40.6652 25.7784 40.6656 25.6444 40.5904L25.3999 41.0266L25.1554 41.4627C25.5548 41.6866 25.9898 41.7138 26.4088 41.5212L26.1999 41.0669ZM25.3999 41.0266L25.6444 40.5904C25.2432 40.3655 24.8063 40.3409 24.3872 40.5379L24.5999 40.9904L24.8127 41.4429C24.9269 41.3892 25.0233 41.3887 25.1554 41.4627L25.3999 41.0266ZM24.5999 40.9904L24.3872 40.5379C24.2473 40.6037 24.1295 40.6046 23.9965 40.5477L23.7999 41.0075L23.6033 41.4672C24.0036 41.6383 24.4192 41.6279 24.8127 41.4429L24.5999 40.9904ZM23.7999 41.0075L23.9965 40.5477C23.6917 40.4174 23.3817 40.3293 23.0673 40.2866L22.9999 40.782L22.9326 41.2775C23.1514 41.3072 23.3748 41.3695 23.6033 41.4672L23.7999 41.0075ZM22.9999 40.782L23.0673 40.2866C22.6559 40.2307 22.2675 40.3488 21.92 40.5835L22.1999 40.9978L22.4798 41.4122C22.6656 41.2867 22.8106 41.2609 22.9326 41.2775L22.9999 40.782ZM22.1999 40.9978L21.92 40.5835C21.8458 40.6337 21.7974 40.644 21.7704 40.6456C21.7451 40.6471 21.7056 40.6431 21.6433 40.6084L21.3999 41.0452L21.1566 41.482C21.3609 41.5958 21.5881 41.6582 21.8294 41.6439C22.0691 41.6297 22.2874 41.5422 22.4798 41.4122L22.1999 40.9978ZM21.3999 41.0452L21.6433 40.6084C21.3162 40.4262 20.971 40.3215 20.6124 40.3125L20.5999 40.8124L20.5875 41.3122C20.7622 41.3166 20.9503 41.3671 21.1566 41.482L21.3999 41.0452ZM20.5999 40.8124L20.6124 40.3125C20.2492 40.3035 19.8983 40.3963 19.5659 40.5724L19.7999 41.0142L20.0339 41.4561C20.2349 41.3497 20.4173 41.308 20.5875 41.3122L20.5999 40.8124ZM19.7999 41.0142L19.5659 40.5724C19.4426 40.6376 19.3487 40.6375 19.2286 40.5757L18.9999 41.0203L18.7712 41.465C19.1844 41.6775 19.6238 41.6732 20.0339 41.4561L19.7999 41.0142ZM18.9999 41.0203L19.2286 40.5757C18.8168 40.3639 18.3785 40.3662 17.9683 40.5805L18.1999 41.0237L18.4315 41.4668C18.5547 41.4024 18.6497 41.4025 18.7712 41.465L18.9999 41.0203ZM18.1999 41.0237L17.9683 40.5805C17.8364 40.6495 17.7337 40.6496 17.6119 40.5926L17.3999 41.0454L17.1879 41.4983C17.5994 41.6909 18.0301 41.6765 18.4315 41.4668L18.1999 41.0237ZM17.3999 41.0454L17.6119 40.5926C17.2687 40.432 16.9081 40.3657 16.5395 40.4105L16.5999 40.9068L16.6603 41.4032C16.825 41.3831 16.9977 41.4092 17.1879 41.4983L17.3999 41.0454ZM16.5999 40.9068L16.5395 40.4105C16.3398 40.4348 16.1391 40.4197 15.9335 40.3627L15.7999 40.8445L15.6662 41.3263C15.9941 41.4173 16.3266 41.4438 16.6603 41.4032L16.5999 40.9068ZM15.7999 40.8445L15.9335 40.3627C15.6044 40.2714 15.2705 40.2462 14.9357 40.2895L14.9999 40.7854L15.0641 41.2812C15.2626 41.2555 15.462 41.2697 15.6662 41.3263L15.7999 40.8445ZM14.9999 40.7854L14.9357 40.2895C14.659 40.3254 14.3824 40.3697 14.106 40.4225L14.1999 40.9136L14.2937 41.4048C14.5507 41.3557 14.8075 41.3145 15.0641 41.2812L14.9999 40.7854ZM14.1999 40.9136L14.106 40.4225C13.916 40.4588 13.7268 40.4514 13.5325 40.3979L13.3999 40.88L13.2672 41.3621C13.6063 41.4554 13.9504 41.4704 14.2937 41.4048L14.1999 40.9136ZM13.3999 40.88L13.5325 40.3979C13.1233 40.2854 12.7207 40.3535 12.3526 40.5631L12.5999 40.9976L12.8472 41.4322C13.0124 41.3382 13.1431 41.3279 13.2672 41.3621L13.3999 40.88ZM12.5999 40.9976L12.3526 40.5631C12.2888 40.5994 12.2482 40.604 12.2227 40.6028C12.1958 40.6016 12.1484 40.5921 12.0754 40.5439L11.7999 40.9611L11.5243 41.3783C11.718 41.5062 11.9373 41.5908 12.1771 41.6018C12.4182 41.6128 12.6443 41.5476 12.8472 41.4322L12.5999 40.9976ZM11.7999 40.9611L12.0754 40.5439C11.7242 40.3119 11.3322 40.2013 10.9193 40.2688L10.9999 40.7622L11.0805 41.2557C11.2009 41.236 11.3422 41.258 11.5243 41.3783L11.7999 40.9611ZM10.9999 40.7622L10.9193 40.2688C10.6778 40.3082 10.4369 40.3287 10.1964 40.3304L10.1999 40.8304L10.2034 41.3303C10.4962 41.3283 10.7886 41.3033 11.0805 41.2557L10.9999 40.7622ZM10.1999 40.8304L10.1964 40.3304C9.95362 40.3321 9.71064 40.3164 9.46725 40.2833L9.39986 40.7788L9.33248 41.2742C9.62243 41.3136 9.91278 41.3324 10.2034 41.3303L10.1999 40.8304ZM9.39986 40.7788L9.46725 40.2833C9.16671 40.2424 8.86556 40.2327 8.56434 40.2541L8.59986 40.7528L8.63538 41.2516C8.8675 41.2351 9.09968 41.2425 9.33248 41.2742L9.39986 40.7788ZM8.59986 40.7528L8.56434 40.2541C8.3243 40.2712 8.08433 40.2691 7.84417 40.2477L7.79986 40.7457L7.75554 41.2438C8.04872 41.2699 8.34209 41.2725 8.63538 41.2516L8.59986 40.7528ZM7.79986 40.7457L7.84417 40.2477C7.58306 40.2245 7.32193 40.1968 7.06076 40.1648L6.99986 40.6611L6.93895 41.1573C7.21112 41.1907 7.48331 41.2196 7.75554 41.2438L7.79986 40.7457ZM6.99986 40.6611L7.06076 40.1648C6.59009 40.107 6.18022 40.3232 5.84971 40.6474L6.19985 41.0044L6.54999 41.3613C6.75282 41.1623 6.87628 41.1497 6.93895 41.1573L6.99986 40.6611ZM6.19985 41.0044L5.84971 40.6474C5.75601 40.7394 5.69239 40.7687 5.6618 40.7775C5.64038 40.7836 5.62189 40.7847 5.58811 40.771L5.39985 41.2342L5.21158 41.6974C5.44448 41.792 5.69265 41.809 5.9379 41.7386C6.17398 41.6708 6.37703 41.531 6.54999 41.3613L6.19985 41.0044ZM5.39985 41.2342L5.58811 40.771C5.2499 40.6335 4.89948 40.5798 4.54388 40.6198L4.59985 41.1167L4.65582 41.6135C4.83355 41.5935 5.01646 41.6181 5.21158 41.6974L5.39985 41.2342ZM4.59985 41.1167L4.54388 40.6198C4.26665 40.651 3.98955 40.6912 3.71261 40.7403L3.79984 41.2326L3.88708 41.7249C4.14347 41.6795 4.39971 41.6424 4.65582 41.6135L4.59985 41.1167ZM3.79984 41.2326L3.71261 40.7403C3.52251 40.774 3.33258 40.7643 3.13709 40.7085L2.99984 41.1893L2.86259 41.6701C3.20043 41.7665 3.54384 41.7857 3.88708 41.7249L3.79984 41.2326ZM2.99984 41.1893L3.13709 40.7085C2.81782 40.6174 2.49422 40.5807 2.16864 40.6011L2.19984 41.1001L2.23103 41.5991C2.43879 41.5861 2.64853 41.609 2.86259 41.6701L2.99984 41.1893ZM2.19984 41.1001L2.16864 40.6011C1.93929 40.6154 1.69527 40.6049 1.43567 40.5676L1.36447 41.0625L1.29326 41.5574C1.61416 41.6035 1.92705 41.6181 2.23103 41.5991L2.19984 41.1001ZM1.36447 41.0625L1.43567 40.5676C1.39925 40.5623 1.38222 40.5556 1.37831 40.5539C1.37665 40.5531 1.37849 40.5538 1.38263 40.5566C1.38688 40.5596 1.39269 40.5642 1.39902 40.5709C1.40538 40.5776 1.41106 40.585 1.41573 40.5927C1.42037 40.6003 1.42315 40.6068 1.42466 40.611C1.42763 40.6193 1.42457 40.6158 1.42431 40.5939L0.924349 40.5998L0.424384 40.6058C0.42707 40.832 0.493596 41.07 0.67449 41.2601C0.849854 41.4445 1.07844 41.5265 1.29326 41.5574L1.36447 41.0625ZM0.924349 40.5998L1.42431 40.5939C1.42193 40.3934 1.45807 40.1883 1.53794 39.9757L1.06989 39.7998L0.601834 39.624C0.481316 39.9447 0.420432 40.2729 0.424384 40.6058L0.924349 40.5998ZM1.06989 39.7998L1.53794 39.9757C1.68594 39.5818 1.66874 39.1782 1.49619 38.7947L1.04021 38.9998L0.584236 39.205C0.651637 39.3548 0.654224 39.4845 0.601834 39.624L1.06989 39.7998ZM1.04021 38.9998L1.49619 38.7947C1.3841 38.5455 1.28986 38.2977 1.2131 38.0512L0.735703 38.1998L0.258309 38.3485C0.347605 38.6353 0.456373 38.9208 0.584236 39.205L1.04021 38.9998ZM0.735703 38.1998L1.2131 38.0512C1.15907 37.8777 1.1576 37.7112 1.20755 37.5394L0.727412 37.3998L0.247279 37.2603C0.142218 37.6218 0.14628 37.9887 0.258309 38.3485L0.735703 38.1998ZM0.727412 37.3998L1.20755 37.5394C1.30012 37.2208 1.3389 36.8979 1.32136 36.5729L0.822082 36.5998L0.322808 36.6268C0.334046 36.835 0.309714 37.0455 0.247279 37.2603L0.727412 37.3998ZM0.822082 36.5998L1.32136 36.5729C1.31277 36.4138 1.35083 36.2403 1.46071 36.044L1.02442 35.7998L0.588128 35.5556C0.399442 35.8926 0.302613 36.2525 0.322808 36.6268L0.822082 36.5998ZM1.02442 35.7998L1.46071 36.044C1.64971 35.7064 1.74604 35.3458 1.72418 34.9707L1.22502 34.9998L0.725871 35.0289C0.735096 35.1872 0.697691 35.3599 0.588128 35.5556L1.02442 35.7998ZM1.22502 34.9998L1.72418 34.9707C1.70554 34.6511 1.63672 34.3354 1.52092 34.025L1.05247 34.1998L0.584011 34.3746C0.667202 34.5976 0.713415 34.8152 0.725871 35.0289L1.22502 34.9998ZM1.05247 34.1998L1.52092 34.025C1.43432 33.7929 1.37805 33.5644 1.35034 33.3388L0.854069 33.3998L0.357803 33.4608C0.395628 33.7686 0.47163 34.0734 0.584011 34.3746L1.05247 34.1998ZM0.854069 33.3998L1.35034 33.3388C1.32459 33.1293 1.33457 32.9196 1.38133 32.7074L0.893047 32.5998L0.404759 32.4922C0.334013 32.8133 0.318006 33.137 0.357803 33.4608L0.854069 33.3998ZM0.893047 32.5998L1.38133 32.7074C1.44832 32.4034 1.47943 32.0976 1.47392 31.7908L0.973997 31.7998L0.474077 31.8088C0.478147 32.0353 0.455286 32.2629 0.404759 32.4922L0.893047 32.5998ZM0.973997 31.7998L1.47392 31.7908C1.46913 31.5244 1.46454 31.258 1.46014 30.9915L0.960212 30.9998L0.46028 31.008C0.464684 31.275 0.469283 31.5419 0.474077 31.8088L0.973997 31.7998ZM0.960212 30.9998L1.46014 30.9915C1.45577 30.7262 1.45244 30.4608 1.45016 30.1955L0.950182 30.1998L0.4502 30.2041C0.452498 30.4721 0.455858 30.7401 0.46028 31.008L0.960212 30.9998ZM0.950182 30.1998L1.45016 30.1955C1.448 29.9429 1.4565 29.6903 1.47568 29.4376L0.977112 29.3998L0.478547 29.3619C0.457245 29.6426 0.447792 29.9233 0.4502 30.2041L0.950182 30.1998ZM0.977112 29.3998L1.47568 29.4376C1.49498 29.1833 1.5238 28.9289 1.56217 28.6743L1.06775 28.5998L0.573335 28.5253C0.531331 28.804 0.499726 29.0829 0.478547 29.3619L0.977112 29.3998ZM1.06775 28.5998L1.56217 28.6743C1.60147 28.4135 1.64554 28.1527 1.69439 27.8918L1.20293 27.7998L0.711466 27.7078C0.660454 27.9802 0.614409 28.2527 0.573335 28.5253L1.06775 28.5998ZM1.20293 27.7998L1.69439 27.8918C1.77271 27.4735 1.6627 27.0759 1.42585 26.7218L1.01026 26.9998L0.594662 27.2778C0.714565 27.457 0.733004 27.5927 0.711466 27.7078L1.20293 27.7998ZM1.01026 26.9998L1.42585 26.7218C1.27955 26.5031 1.1995 26.3018 1.16826 26.1166L0.675222 26.1998L0.182187 26.2829C0.240906 26.6311 0.384216 26.9632 0.594662 27.2778L1.01026 26.9998ZM0.675222 26.1998L1.16826 26.1166C1.13128 25.8974 1.12646 25.6795 1.15347 25.4612L0.657261 25.3998L0.161048 25.3384C0.122049 25.6534 0.129198 25.9688 0.182187 26.2829L0.675222 26.1998ZM0.657261 25.3998L1.15347 25.4612C1.17259 25.3067 1.24629 25.1238 1.41547 24.9101L1.02345 24.5998L0.631434 24.2894C0.378372 24.6091 0.207945 24.9595 0.161048 25.3384L0.657261 25.3998ZM1.02345 24.5998L1.41547 24.9101C1.71757 24.5285 1.82822 24.0685 1.625 23.6006L1.16639 23.7998L0.707784 23.999C0.736211 24.0644 0.751573 24.1377 0.631434 24.2894L1.02345 24.5998ZM1.16639 23.7998L1.625 23.6006C1.56097 23.4531 1.5595 23.3237 1.61494 23.1822L1.14941 22.9998L0.683882 22.8173C0.530318 23.2092 0.540169 23.6131 0.707784 23.999L1.16639 23.7998ZM1.14941 22.9998L1.61494 23.1822C1.77103 22.7839 1.75288 22.3747 1.57175 21.9878L1.11891 22.1998L0.666075 22.4118C0.734621 22.5582 0.736799 22.6823 0.683882 22.8173L1.14941 22.9998ZM1.11891 22.1998L1.57175 21.9878C1.47862 21.7888 1.4444 21.6051 1.45502 21.4301L0.955943 21.3998L0.456862 21.3695C0.435105 21.7278 0.509523 22.0773 0.666075 22.4118L1.11891 22.1998ZM0.955943 21.3998L1.45502 21.4301C1.47101 21.1668 1.48969 20.9035 1.51105 20.6402L1.01269 20.5998L0.514325 20.5593C0.492415 20.8294 0.47326 21.0994 0.456862 21.3695L0.955943 21.3998ZM1.01269 20.5998L1.51105 20.6402C1.53958 20.2886 1.48008 19.943 1.34231 19.609L0.880104 19.7998L0.4179 19.9905C0.500178 20.1899 0.529074 20.3775 0.514325 20.5593L1.01269 20.5998ZM0.880104 19.7998L1.34231 19.609C1.28137 19.4613 1.28072 19.329 1.33819 19.1836L0.873221 18.9997L0.408248 18.8159C0.254848 19.2039 0.258786 19.6048 0.4179 19.9905L0.880104 19.7998ZM0.873221 18.9997L1.33819 19.1836C1.4901 18.7994 1.49082 18.4018 1.33997 18.0172L0.874495 18.1997L0.409016 18.3823C0.467347 18.531 0.467215 18.6668 0.408248 18.8159L0.873221 18.9997ZM0.874495 18.1997L1.33997 18.0172C1.2555 17.8018 1.21406 17.5938 1.21049 17.3909L0.71057 17.3997L0.210648 17.4085C0.216464 17.739 0.284312 18.0644 0.409016 18.3823L0.874495 18.1997ZM0.71057 17.3997L1.21049 17.3909C1.20574 17.121 1.19835 16.8511 1.18832 16.5812L0.688669 16.5997L0.189014 16.6183C0.1988 16.8817 0.206012 17.1451 0.210648 17.4085L0.71057 17.3997ZM0.688669 16.5997L1.18832 16.5812C1.17859 16.3191 1.1725 16.0571 1.17007 15.7951L0.670093 15.7997L0.170114 15.8044C0.172634 16.0757 0.178934 16.347 0.189014 16.6183L0.688669 16.5997ZM0.670093 15.7997L1.17007 15.7951C1.16892 15.6715 1.21496 15.5129 1.37559 15.3107L0.984041 14.9997L0.592493 14.6888C0.329567 15.0199 0.166308 15.3946 0.170114 15.8044L0.670093 15.7997ZM0.984041 14.9997L1.37559 15.3107C1.52044 15.1283 1.62969 14.9191 1.67 14.6843C1.71113 14.4447 1.67478 14.2107 1.5772 13.9942L1.12137 14.1997L0.665554 14.4052C0.688188 14.4554 0.689064 14.4881 0.684415 14.5151C0.678947 14.547 0.659415 14.6045 0.592493 14.6888L0.984041 14.9997ZM1.12137 14.1997L1.5772 13.9942C1.49323 13.808 1.4717 13.6388 1.49678 13.4758L1.0026 13.3997L0.508419 13.3237C0.451432 13.694 0.509077 14.0581 0.665554 14.4052L1.12137 14.1997ZM1.0026 13.3997L1.49678 13.4758C1.55681 13.0857 1.4742 12.708 1.28044 12.3577L0.842906 12.5997L0.405377 12.8417C0.50661 13.0248 0.53047 13.1804 0.508419 13.3237L1.0026 13.3997ZM0.842906 12.5997L1.28044 12.3577C1.24839 12.2998 1.24693 12.2661 1.24879 12.2462C1.25095 12.2231 1.26227 12.1745 1.31955 12.0971L0.917613 11.7997L0.515671 11.5023C0.375647 11.6916 0.275865 11.9097 0.253123 12.1532C0.230082 12.4 0.289925 12.633 0.405377 12.8417L0.842906 12.5997ZM0.917613 11.7997L1.31955 12.0971C1.60803 11.7072 1.69417 11.2482 1.48457 10.7913L1.0301 10.9997L0.575627 11.2082C0.610657 11.2845 0.621802 11.3589 0.515671 11.5023L0.917613 11.7997ZM1.0301 10.9997L1.48457 10.7913C1.40221 10.6117 1.38506 10.4511 1.41543 10.2955L0.924685 10.1997L0.433942 10.104C0.360238 10.4816 0.413361 10.8544 0.575627 11.2082L1.0301 10.9997ZM0.924685 10.1997L1.41543 10.2955C1.47181 10.0066 1.50798 9.71697 1.52376 9.42686L1.0245 9.39971L0.525233 9.37256C0.512005 9.61579 0.481637 9.85954 0.433942 10.104L0.924685 10.1997ZM1.0245 9.39971L1.52376 9.42686C1.53817 9.16177 1.55385 8.89667 1.57078 8.63158L1.0718 8.59971L0.572813 8.56784C0.555681 8.83608 0.539821 9.10432 0.525233 9.37256L1.0245 9.39971ZM1.0718 8.59971L1.57078 8.63158C1.59365 8.27347 1.52056 7.92387 1.36527 7.58924L0.911724 7.79971L0.458178 8.01017C0.550384 8.20887 0.584004 8.39261 0.572813 8.56784L1.0718 8.59971ZM0.911724 7.79971L1.36527 7.58924C1.26446 7.37199 1.21031 7.16409 1.19574 6.96348L0.697053 6.9997L0.198367 7.03592C0.222533 7.36865 0.311502 7.69409 0.458178 8.01017L0.911724 7.79971ZM0.697053 6.9997L1.19574 6.96348C1.18428 6.80569 1.21931 6.63432 1.32581 6.44019L0.887444 6.1997L0.449077 5.95921C0.262987 6.29842 0.171091 6.66038 0.198367 7.03592L0.697053 6.9997ZM0.887444 6.1997L1.32581 6.44019C1.48725 6.14592 1.6149 5.84739 1.70664 5.54475L1.22814 5.3997L0.749644 5.25465C0.679712 5.48534 0.58023 5.72014 0.449077 5.95921L0.887444 6.1997ZM1.22814 5.3997L1.70664 5.54475C1.81122 5.19976 1.8285 4.84805 1.7552 4.49738L1.26578 4.59969L0.776357 4.70201C0.814544 4.88468 0.806737 5.0663 0.749644 5.25465L1.22814 5.3997ZM1.26578 4.59969L1.7552 4.49738C1.6925 4.19747 1.5986 3.90019 1.47475 3.6058L1.01387 3.79969L0.552999 3.99358C0.653523 4.23252 0.727559 4.46858 0.776357 4.70201L1.26578 4.59969ZM1.01387 3.79969L1.47475 3.6058C1.3946 3.41529 1.37228 3.23878 1.39573 3.0675L0.900346 2.99969L0.404966 2.93187C0.355403 3.29393 0.408766 3.65075 0.552999 3.99358L1.01387 3.79969ZM0.900346 2.99969L1.39573 3.0675C1.43332 2.7929 1.4642 2.51823 1.48837 2.2435L0.990291 2.19968L0.492215 2.15587C0.469465 2.41447 0.440385 2.67314 0.404966 2.93187L0.900346 2.99969ZM0.990291 2.19968L1.48837 2.2435C1.51357 1.95704 1.52162 1.67048 1.51249 1.38392L1.01274 1.39984L0.512993 1.41576C0.520849 1.66232 0.513933 1.90899 0.492215 2.15587L0.990291 2.19968ZM1.01274 1.39984L1.51249 1.38392C1.51152 1.35371 1.51622 1.36366 1.50519 1.39586C1.49198 1.43446 1.45647 1.50146 1.37941 1.55253C1.30521 1.60171 1.23782 1.60598 1.2133 1.60537C1.19203 1.60484 1.19524 1.60095 1.2315 1.61393L1.4 1.14318L1.5685 0.672427C1.40356 0.613386 1.10008 0.537969 0.826961 0.718981C0.537132 0.91107 0.507254 1.23563 0.512993 1.41576L1.01274 1.39984Z" fill="#918491"/>
<path d="M5 5H37V37H5V5Z" fill="#F1EBD8"/>
<path d="M11 4.88226L10.9846 5.38202L11 4.88226ZM17.4 4.76115L17.3849 5.26092L17.4 4.76115ZM37.1133 5.55218L36.6585 5.76006L37.1133 5.55218ZM36.9672 6.19999L36.5477 5.928L36.9672 6.19999ZM37.0001 7.79999L37.3841 7.47983L37.0001 7.79999ZM37.363 8.59999L36.8644 8.63676L37.363 8.59999ZM37.1374 9.39998L37.5589 9.66886L37.1374 9.39998ZM37.0352 10.2L37.5023 10.0214L37.0352 10.2ZM37.073 11L37.5534 11.1384L37.073 11ZM37.0242 12.6L36.5339 12.502L37.0242 12.6ZM37.0568 13.4L36.5754 13.5353L37.0568 13.4ZM37.0439 21.4L37.5034 21.2028L37.0439 21.4ZM37.0603 22.2L36.5942 22.019L37.0603 22.2ZM36.9644 23L37.459 22.9264L36.9644 23ZM37.0592 25.4L36.6393 25.6714L37.0592 25.4ZM37.2449 27L37.7211 26.8474L37.2449 27ZM37.2151 28.6L36.723 28.6884L37.2151 28.6ZM36.9499 29.4L36.5675 29.0777L36.9499 29.4ZM36.7916 30.2L37.248 29.9959L36.7916 30.2ZM37.1725 31.8L36.7035 31.6266L37.1725 31.8ZM36.9238 35L36.4545 35.1725L36.9238 35ZM35 37.0874L35.2996 36.6871L35 37.0874ZM33.4 36.9042L33.5261 37.388L33.4 36.9042ZM30.2 36.7837L30.3641 37.256L30.2 36.7837ZM29.4 36.9613L29.3519 36.4636L29.4 36.9613ZM27 36.9474L26.7437 37.3767L27 36.9474ZM25.4 36.9292L25.7005 37.3288L25.4 36.9292ZM24.6 37.2275L24.6032 36.7276L24.6 37.2275ZM23.8 37.1317L23.9136 36.6447L23.8 37.1317ZM23 36.9469L22.8886 37.4344L23 36.9469ZM22.2 37.1052L22.4647 37.5294L22.2 37.1052ZM21.4 37.025L21.0819 37.4108L21.4 37.025ZM19.8 36.8111L19.6847 37.2976L19.8 36.8111ZM17.4 36.9694L17.3318 36.474L17.4 36.9694ZM16.6 36.8496L16.8002 36.3915L16.6 36.8496ZM15.8 36.9457L16.0803 37.3597L15.8 36.9457ZM15 36.9465L14.7202 37.3609L15 36.9465ZM11.7999 36.9579L11.6767 37.4424L11.7999 36.9579ZM10.9999 36.9347L11.0963 37.4253L10.9999 36.9347ZM10.1999 37.1149L10.323 37.5995L10.1999 37.1149ZM8.59994 37.0858L8.52188 37.5797L8.59994 37.0858ZM6.99993 37.08L6.779 37.5286L6.99993 37.08ZM6.19993 37.0669L6.40881 37.5212L6.19993 37.0669ZM5.4988 37.1254L5.30651 37.5869L5.4988 37.1254ZM5.24715 20.5999L4.74841 20.6354L5.24715 20.5999ZM5.4 5.14318L5.2315 5.61393C5.58559 5.74067 5.95033 5.76467 6.3141 5.67941L6.2 5.1926L6.0859 4.7058C5.91634 4.74554 5.74775 4.73659 5.5685 4.67243L5.4 5.14318ZM6.2 5.1926L6.3141 5.67941C6.59488 5.6136 6.87518 5.53504 7.15499 5.44381L7 4.96844L6.84501 4.49307C6.59149 4.57572 6.33846 4.6466 6.0859 4.7058L6.2 5.1926ZM7 4.96844L7.15499 5.44381C7.37795 5.37112 7.59666 5.33329 7.81244 5.32792L7.8 4.82808L7.78756 4.32823C7.47001 4.33613 7.15538 4.39188 6.84501 4.49307L7 4.96844ZM7.8 4.82808L7.81244 5.32792C7.98074 5.32373 8.16198 5.36574 8.36259 5.47397L8.6 5.03393L8.83741 4.59389C8.50468 4.41438 8.15259 4.31915 7.78756 4.32823L7.8 4.82808ZM8.6 5.03393L8.36259 5.47397C8.75494 5.68565 9.17979 5.71652 9.59337 5.54307L9.4 5.08198L9.20663 4.62089C9.08687 4.67111 8.97839 4.66995 8.83741 4.59389L8.6 5.03393ZM9.4 5.08198L9.59337 5.54307C9.81174 5.45149 10.0225 5.40267 10.2277 5.39131L10.2 4.89207L10.1723 4.39284C9.84413 4.41102 9.52159 4.4888 9.20663 4.62089L9.4 5.08198ZM10.2 4.89207L10.2277 5.39131C10.48 5.37733 10.7323 5.37424 10.9846 5.38202L11 4.88226L11.0154 4.38249C10.7344 4.37382 10.4533 4.37727 10.1723 4.39284L10.2 4.89207ZM11 4.88226L10.9846 5.38202C11.2948 5.39159 11.604 5.36092 11.9111 5.29094L11.8 4.80344L11.6889 4.31594C11.4627 4.36749 11.2385 4.38937 11.0154 4.38249L11 4.88226ZM11.8 4.80344L11.9111 5.29094C12.086 5.25109 12.2596 5.25916 12.4419 5.31994L12.6 4.84558L12.7581 4.37123C12.4071 4.25427 12.0474 4.23424 11.6889 4.31594L11.8 4.80344ZM12.6 4.84558L12.4419 5.31994C12.7498 5.42254 13.0617 5.48233 13.3766 5.49709L13.4 4.99763L13.4234 4.49818C13.2049 4.48794 12.9835 4.44636 12.7581 4.37123L12.6 4.84558ZM13.4 4.99763L13.3766 5.49709C13.6177 5.50839 13.8594 5.53818 14.1019 5.58672L14.2 5.09644L14.2981 4.60617C14.0073 4.54795 13.7156 4.51188 13.4234 4.49818L13.4 4.99763ZM14.2 5.09644L14.1019 5.58672C14.4304 5.65248 14.761 5.65533 15.0901 5.59501L15 5.1032L14.9099 4.61139C14.7057 4.64881 14.5029 4.64716 14.2981 4.60617L14.2 5.09644ZM15 5.1032L15.0901 5.59501C15.3964 5.53888 15.6992 5.44535 15.9981 5.3164L15.8 4.85731L15.6019 4.39822C15.3674 4.49939 15.1369 4.56979 14.9099 4.61139L15 5.1032ZM15.8 4.85731L15.9981 5.3164C16.1963 5.23086 16.3815 5.20094 16.5599 5.21529L16.6 4.7169L16.6401 4.21851C16.2852 4.18996 15.937 4.25365 15.6019 4.39822L15.8 4.85731ZM16.6 4.7169L16.5599 5.21529C16.8349 5.2374 17.1099 5.25261 17.3849 5.26092L17.4 4.76115L17.4151 4.26138C17.1568 4.25358 16.8985 4.23928 16.6401 4.21851L16.6 4.7169ZM17.4 4.76115L17.3849 5.26092C17.6387 5.26859 17.8925 5.28608 18.1465 5.31341L18.2 4.81628L18.2535 4.31915C17.9741 4.28909 17.6947 4.26983 17.4151 4.26138L17.4 4.76115ZM18.2 4.81628L18.1465 5.31341C18.4478 5.34582 18.7493 5.34669 19.0507 5.31601L19 4.81858L18.9494 4.32116C18.7173 4.34478 18.4856 4.34412 18.2535 4.31915L18.2 4.81628ZM19 4.81858L19.0507 5.31601C19.1776 5.30308 19.3288 5.33413 19.5188 5.46338L19.8 5.04997L20.0812 4.63656C19.7379 4.40299 19.3557 4.27978 18.9494 4.32116L19 4.81858ZM19.8 5.04997L19.5188 5.46338C19.8864 5.71344 20.3054 5.81211 20.7391 5.68654L20.6 5.20626L20.4609 4.72599C20.3613 4.75484 20.247 4.74931 20.0812 4.63656L19.8 5.04997ZM20.6 5.20626L20.7391 5.68654C21.039 5.59971 21.3355 5.48022 21.6285 5.32967L21.4 4.88494L21.1715 4.4402C20.9312 4.56368 20.6944 4.6584 20.4609 4.72599L20.6 5.20626ZM21.4 4.88494L21.6285 5.32967C21.7439 5.2704 21.834 5.26983 21.9577 5.33836L22.2 4.90097L22.4423 4.46358C22.0327 4.23672 21.5895 4.22546 21.1715 4.4402L21.4 4.88494ZM22.2 4.90097L21.9577 5.33836C22.3291 5.54402 22.7334 5.60447 23.1415 5.48409L23 5.00452L22.8585 4.52495C22.7333 4.56189 22.6043 4.55331 22.4423 4.46358L22.2 4.90097ZM23 5.00452L23.1415 5.48409C23.3237 5.43033 23.4997 5.42677 23.6789 5.4715L23.8 4.98639L23.9211 4.50129C23.5669 4.41286 23.2096 4.42138 22.8585 4.52495L23 5.00452ZM23.8 4.98639L23.6789 5.4715C24.0853 5.57297 24.4831 5.50043 24.8474 5.293L24.6 4.8585L24.3526 4.424C24.1835 4.52026 24.0481 4.53298 23.9211 4.50129L23.8 4.98639ZM24.6 4.8585L24.8474 5.293C24.8731 5.27835 24.8893 5.2739 24.8966 5.27245C24.9031 5.27116 24.9077 5.27118 24.9135 5.2722C24.9257 5.27434 24.9752 5.28749 25.0614 5.36682L25.4 4.99895L25.7386 4.63108C25.5581 4.46494 25.341 4.33195 25.0865 4.28726C24.8233 4.24106 24.5728 4.29863 24.3526 4.424L24.6 4.8585ZM25.4 4.99895L25.0614 5.36682C25.4158 5.69309 25.8646 5.87182 26.3541 5.71328L26.2 5.2376L26.0459 4.76193C26.0021 4.77613 25.9175 4.79576 25.7386 4.63108L25.4 4.99895ZM26.2 5.2376L26.3541 5.71328C26.5815 5.63961 26.8053 5.59783 27.0266 5.58606L27 5.08676L26.9734 4.58747C26.6613 4.60408 26.3518 4.66285 26.0459 4.76193L26.2 5.2376ZM27 5.08676L27.0266 5.58606C27.3022 5.57139 27.5778 5.54929 27.8533 5.51977L27.8 5.02262L27.7467 4.52547C27.4889 4.55309 27.2311 4.57376 26.9734 4.58747L27 5.08676ZM27.8 5.02262L27.8533 5.51977C28.1248 5.49068 28.3963 5.45758 28.6677 5.42048L28.6 4.92508L28.5323 4.42969C28.2704 4.46548 28.0086 4.49741 27.7467 4.52547L27.8 5.02262ZM28.6 4.92508L28.6677 5.42048C28.9155 5.3866 29.1631 5.36712 29.4104 5.36198L29.4 4.86208L29.3896 4.36219C29.1036 4.36814 28.8178 4.39066 28.5323 4.42969L28.6 4.92508ZM29.4 4.86208L29.4104 5.36198C29.5621 5.35882 29.7336 5.40335 29.9328 5.5293L30.2 5.10671L30.4672 4.68412C30.1331 4.4728 29.7712 4.35425 29.3896 4.36219L29.4 4.86208ZM30.2 5.10671L29.9328 5.5293C30.1496 5.66642 30.403 5.73846 30.675 5.69716C30.938 5.65723 31.1601 5.52023 31.3417 5.3503L31 4.98526L30.6583 4.62022C30.5732 4.69988 30.5286 4.70793 30.5249 4.70848C30.5233 4.70874 30.5217 4.70899 30.5168 4.70781C30.5108 4.70636 30.4944 4.70131 30.4672 4.68412L30.2 5.10671ZM31 4.98526L31.3417 5.3503C31.4259 5.27142 31.4682 5.2658 31.4683 5.26577C31.4684 5.26576 31.469 5.26533 31.4737 5.26656C31.4796 5.26812 31.4965 5.27365 31.5245 5.29218L31.8 4.87489L32.0754 4.4576C31.8607 4.31589 31.607 4.23717 31.3317 4.27516C31.0652 4.31192 30.8407 4.44949 30.6583 4.62022L31 4.98526ZM31.8 4.87489L31.5245 5.29218C31.8354 5.49734 32.1607 5.64125 32.4998 5.7106L32.6 5.22074L32.7002 4.73088C32.5059 4.69114 32.298 4.60449 32.0754 4.4576L31.8 4.87489ZM32.6 5.22074L32.4998 5.7106C32.9526 5.80322 33.3685 5.64686 33.7176 5.35973L33.4 4.97356L33.0824 4.5874C32.8982 4.73892 32.7807 4.74735 32.7002 4.73088L32.6 5.22074ZM33.4 4.97356L33.7176 5.35973C33.9246 5.1895 34.0894 5.13455 34.2178 5.12996L34.2 4.63028L34.1821 4.1306C33.7773 4.14506 33.4087 4.31897 33.0824 4.5874L33.4 4.97356ZM34.2 4.63028L34.2178 5.12996C34.304 5.12688 34.4462 5.16142 34.6538 5.3606L35 4.99983L35.3462 4.63906C35.0204 4.32645 34.6293 4.11463 34.1821 4.1306L34.2 4.63028ZM35 4.99983L34.6538 5.3606C34.8302 5.52989 35.0408 5.66817 35.2877 5.72507C35.5444 5.78422 35.7959 5.74497 36.0231 5.63164L35.8 5.18419L35.5768 4.73674C35.5374 4.7564 35.5223 4.75291 35.5123 4.75061C35.4925 4.74606 35.4364 4.72566 35.3462 4.63906L35 4.99983ZM35.8 5.18419L36.0231 5.63164C36.1677 5.55956 36.2858 5.55743 36.4145 5.60885L36.6 5.14455L36.7855 4.68024C36.3809 4.51856 35.9656 4.54286 35.5768 4.73674L35.8 5.18419ZM36.6 5.14455L36.4145 5.60885C36.6284 5.69432 36.6602 5.76381 36.6585 5.76006L37.1133 5.55218L37.568 5.34431C37.4152 5.01015 37.1049 4.80788 36.7855 4.68024L36.6 5.14455ZM37.1133 5.55218L36.6585 5.76006C36.6416 5.72298 36.6513 5.7029 36.6456 5.72808C36.6386 5.75923 36.6148 5.82446 36.5477 5.928L36.9672 6.19999L37.3868 6.47197C37.5831 6.16911 37.755 5.75344 37.568 5.34431L37.1133 5.55218ZM36.9672 6.19999L36.5477 5.928C36.3362 6.25426 36.207 6.60456 36.1879 6.97421L36.6873 6.99999L37.1866 7.02576C37.1951 6.86208 37.2525 6.67905 37.3868 6.47197L36.9672 6.19999ZM36.6873 6.99999L36.1879 6.97421C36.1659 7.4007 36.338 7.78668 36.616 8.12014L37.0001 7.79999L37.3841 7.47983C37.2175 7.27996 37.1811 7.13261 37.1866 7.02576L36.6873 6.99999ZM37.0001 7.79999L36.616 8.12014C36.7913 8.33047 36.8544 8.50139 36.8644 8.63676L37.363 8.59999L37.8617 8.56321C37.8323 8.16525 37.6534 7.80283 37.3841 7.47983L37.0001 7.79999ZM37.363 8.59999L36.8644 8.63676C36.8747 8.77723 36.8389 8.93819 36.7158 9.13111L37.1374 9.39998L37.5589 9.66886C37.7761 9.32845 37.8906 8.95608 37.8617 8.56321L37.363 8.59999ZM37.1374 9.39998L36.7158 9.13111C36.4712 9.51469 36.403 9.94649 36.5682 10.3786L37.0352 10.2L37.5023 10.0214C37.4635 9.92015 37.4634 9.81861 37.5589 9.66886L37.1374 9.39998ZM37.0352 10.2L36.5682 10.3786C36.6326 10.547 36.6384 10.7024 36.5925 10.8616L37.073 11L37.5534 11.1384C37.6612 10.7642 37.6418 10.3863 37.5023 10.0214L37.0352 10.2ZM37.073 11L36.5925 10.8616C36.4948 11.2007 36.4761 11.5455 36.5391 11.89L37.0309 11.8L37.5228 11.71C37.4882 11.5211 37.4975 11.3326 37.5534 11.1384L37.073 11ZM37.0309 11.8L36.5391 11.89C36.5765 12.0943 36.5749 12.2971 36.5339 12.502L37.0242 12.6L37.5145 12.6979C37.5802 12.3695 37.583 12.039 37.5228 11.71L37.0309 11.8ZM37.0242 12.6L36.5339 12.502C36.4649 12.8475 36.4795 13.1941 36.5754 13.5353L37.0568 13.4L37.5381 13.2647C37.4841 13.0725 37.477 12.8858 37.5145 12.6979L37.0242 12.6ZM37.0568 13.4L36.5754 13.5353C36.6158 13.679 36.6066 13.8227 36.5292 13.9882L36.9822 14.2L37.4351 14.4118C37.6071 14.0439 37.6477 13.6543 37.5381 13.2647L37.0568 13.4ZM36.9822 14.2L36.5292 13.9882C36.3854 14.2958 36.2888 14.6103 36.244 14.9307L36.7391 15L37.2343 15.0693C37.2641 14.8563 37.3295 14.6375 37.4351 14.4118L36.9822 14.2ZM36.7391 15L36.244 14.9307C36.2034 15.2208 36.1837 15.5114 36.185 15.8022L36.685 15.8L37.185 15.7977C37.1839 15.5552 37.2003 15.3125 37.2343 15.0693L36.7391 15ZM36.685 15.8L36.185 15.8022C36.1865 16.144 36.2632 16.4785 36.4064 16.8022L36.8637 16.6L37.321 16.3977C37.2282 16.1881 37.1858 15.9893 37.185 15.7977L36.685 15.8ZM36.8637 16.6L36.4064 16.8022C36.5182 17.055 36.6158 17.3069 36.6995 17.5579L37.1738 17.4L37.6482 17.242C37.5542 16.9598 37.4451 16.6783 37.321 16.3977L36.8637 16.6ZM37.1738 17.4L36.6995 17.5579C36.7563 17.7287 36.7588 17.8908 36.7093 18.0582L37.1888 18.2L37.6683 18.3417C37.7764 17.9759 37.769 17.6046 37.6482 17.242L37.1738 17.4ZM37.1888 18.2L36.7093 18.0582C36.6099 18.3946 36.5862 18.737 36.6418 19.0799L37.1354 19L37.6289 18.92C37.5981 18.7296 37.6101 18.5387 37.6683 18.3417L37.1888 18.2ZM37.1354 19L36.6418 19.0799C36.6595 19.1894 36.6388 19.3252 36.5073 19.509L36.9139 19.8L37.3205 20.091C37.5707 19.7414 37.6976 19.3439 37.6289 18.92L37.1354 19ZM36.9139 19.8L36.5073 19.509C36.2438 19.8772 36.1364 20.3033 36.2718 20.7462L36.75 20.6L37.2281 20.4538C37.2004 20.3633 37.2023 20.2561 37.3205 20.091L36.9139 19.8ZM36.75 20.6L36.2718 20.7462C36.3589 21.0308 36.4632 21.3145 36.5844 21.5972L37.0439 21.4L37.5034 21.2028C37.3958 20.9521 37.3041 20.7024 37.2281 20.4538L36.75 20.6ZM37.0439 21.4L36.5844 21.5972C36.6481 21.7454 36.6496 21.8763 36.5942 22.019L37.0603 22.2L37.5264 22.3809C37.6781 21.9903 37.6686 21.5878 37.5034 21.2028L37.0439 21.4ZM37.0603 22.2L36.5942 22.019C36.4612 22.3615 36.4167 22.7157 36.4699 23.0735L36.9644 23L37.459 22.9264C37.4329 22.7509 37.4523 22.5718 37.5264 22.3809L37.0603 22.2ZM36.9644 23L36.4699 23.0735C36.5103 23.3456 36.5553 23.6176 36.6048 23.8896L37.0968 23.8L37.5887 23.7104C37.5411 23.449 37.4978 23.1877 37.459 22.9264L36.9644 23ZM37.0968 23.8L36.6048 23.8896C36.6334 24.0465 36.6148 24.2091 36.5311 24.3906L36.9851 24.6L37.4392 24.8094C37.6015 24.4575 37.6572 24.0868 37.5887 23.7104L37.0968 23.8ZM36.9851 24.6L36.5311 24.3906C36.3297 24.8273 36.383 25.2748 36.6393 25.6714L37.0592 25.4L37.4791 25.1286C37.3907 24.9918 37.3946 24.906 37.4392 24.8094L36.9851 24.6ZM37.0592 25.4L36.6393 25.6714C36.7491 25.8414 36.7602 25.9671 36.7323 26.0782L37.2172 26.2L37.7022 26.3218C37.8082 25.8995 37.7139 25.4919 37.4791 25.1286L37.0592 25.4ZM37.2172 26.2L36.7323 26.0782C36.6422 26.4371 36.6554 26.7988 36.7688 27.1525L37.2449 27L37.7211 26.8474C37.6636 26.6679 37.6584 26.4962 37.7022 26.3218L37.2172 26.2ZM37.2449 27L36.7688 27.1525C36.8243 27.3258 36.8266 27.4913 36.7776 27.6619L37.2582 27.8L37.7387 27.9381C37.843 27.5753 37.8365 27.2075 37.7211 26.8474L37.2449 27ZM37.2582 27.8L36.7776 27.6619C36.6803 28.0003 36.6612 28.3445 36.723 28.6884L37.2151 28.6L37.7072 28.5115C37.6732 28.3221 37.6827 28.1329 37.7387 27.9381L37.2582 27.8ZM37.2151 28.6L36.723 28.6884C36.7374 28.7687 36.7261 28.8896 36.5675 29.0777L36.9499 29.4L37.3322 29.7222C37.6231 29.377 37.7886 28.9646 37.7072 28.5115L37.2151 28.6ZM36.9499 29.4L36.5675 29.0777C36.4157 29.2579 36.2981 29.4663 36.2513 29.7029C36.2033 29.9454 36.2366 30.1837 36.3351 30.404L36.7916 30.2L37.248 29.9959C37.2273 29.9496 37.2275 29.9212 37.2322 29.897C37.2382 29.8669 37.2593 29.8087 37.3322 29.7222L36.9499 29.4ZM36.7916 30.2L36.3351 30.404C36.4538 30.6695 36.5712 30.9349 36.6873 31.2004L37.1454 31L37.6035 30.7996C37.4863 30.5317 37.3678 30.2638 37.248 29.9959L36.7916 30.2ZM37.1454 31L36.6873 31.2004C36.7535 31.3517 36.7561 31.4844 36.7035 31.6266L37.1725 31.8L37.6415 31.9733C37.7861 31.5822 37.7706 31.1816 37.6035 30.7996L37.1454 31ZM37.1725 31.8L36.7035 31.6266C36.6083 31.8842 36.5044 32.1421 36.392 32.4004L36.8504 32.6L37.3089 32.7996C37.4287 32.5245 37.5395 32.249 37.6415 31.9733L37.1725 31.8ZM36.8504 32.6L36.392 32.4004C36.2236 32.7871 36.2145 33.1919 36.37 33.5842L36.8348 33.4L37.2996 33.2157C37.2437 33.0747 37.2451 32.9461 37.3089 32.7996L36.8504 32.6ZM36.8348 33.4L36.37 33.5842C36.4376 33.7547 36.4453 33.911 36.4024 34.0693L36.8851 34.2L37.3677 34.3306C37.4692 33.9556 37.4434 33.5786 37.2996 33.2157L36.8348 33.4ZM36.8851 34.2L36.4024 34.0693C36.3023 34.439 36.3218 34.8115 36.4545 35.1725L36.9238 35L37.3931 34.8274C37.3297 34.6551 37.3234 34.4943 37.3677 34.3306L36.8851 34.2ZM36.9238 35L36.4545 35.1725C36.5531 35.4406 36.6531 35.7087 36.7545 35.9768L37.2222 35.8L37.6898 35.6231C37.5895 35.3579 37.4906 35.0926 37.3931 34.8274L36.9238 35ZM37.2222 35.8L36.7545 35.9768C36.8148 36.1364 36.8168 36.2836 36.764 36.439L37.2374 36.6L37.7108 36.7609C37.8393 36.383 37.8312 35.9969 37.6898 35.6231L37.2222 35.8ZM37.2374 36.6L36.764 36.439C36.7277 36.5459 36.6525 36.6407 36.4654 36.7153L36.6507 37.1797L36.836 37.6442C37.2498 37.4791 37.5658 37.1873 37.7108 36.7609L37.2374 36.6ZM36.6507 37.1797L36.4654 36.7153C36.2076 36.8182 35.9812 36.8667 35.7831 36.8734L35.8 37.3731L35.817 37.8728C36.1522 37.8614 36.4929 37.781 36.836 37.6442L36.6507 37.1797ZM35.8 37.3731L35.7831 36.8734C35.656 36.8777 35.4983 36.8357 35.2996 36.6871L35 37.0874L34.7005 37.4877C35.0351 37.7381 35.4107 37.8866 35.817 37.8728L35.8 37.3731ZM35 37.0874L35.2996 36.6871C34.9669 36.4381 34.5949 36.2881 34.1926 36.2941L34.2 36.794L34.2075 37.294C34.3385 37.292 34.4999 37.3376 34.7005 37.4877L35 37.0874ZM34.2 36.794L34.1926 36.2941C33.8846 36.2987 33.5781 36.3411 33.274 36.4203L33.4 36.9042L33.5261 37.388C33.7553 37.3283 33.9822 37.2973 34.2075 37.294L34.2 36.794ZM33.4 36.9042L33.274 36.4203C32.9998 36.4917 32.7258 36.5699 32.452 36.6548L32.6 37.1324L32.7481 37.61C33.0076 37.5295 33.2669 37.4555 33.5261 37.388L33.4 36.9042ZM32.6 37.1324L32.452 36.6548C32.2771 36.709 32.1094 36.7109 31.9366 36.6618L31.8 37.1428L31.6634 37.6238C32.024 37.7262 32.3896 37.7211 32.7481 37.61L32.6 37.1324ZM31.8 37.1428L31.9366 36.6618C31.6992 36.5944 31.4593 36.5029 31.2166 36.3863L31 36.837L30.7834 37.2876C31.0741 37.4274 31.3675 37.5398 31.6634 37.6238L31.8 37.1428ZM31 36.837L31.2166 36.3863C30.8373 36.204 30.4339 36.1731 30.0359 36.3114L30.2 36.7837L30.3641 37.256C30.4995 37.209 30.6294 37.2136 30.7834 37.2876L31 36.837ZM30.2 36.7837L30.0359 36.3114C29.8048 36.3917 29.577 36.4419 29.3519 36.4636L29.4 36.9613L29.4481 37.459C29.7564 37.4292 30.0619 37.361 30.3641 37.256L30.2 36.7837ZM29.4 36.9613L29.3519 36.4636C29.1347 36.4846 28.9171 36.4737 28.6976 36.43L28.6 36.9204L28.5024 37.4107C28.8163 37.4732 29.132 37.4896 29.4481 37.459L29.4 36.9613ZM28.6 36.9204L28.6976 36.43C28.3245 36.3557 27.9549 36.4019 27.6018 36.5544L27.8 37.0135L27.9982 37.4725C28.1785 37.3947 28.3422 37.3788 28.5024 37.4107L28.6 36.9204ZM27.8 37.0135L27.6018 36.5544C27.4942 36.6009 27.3962 36.6016 27.2563 36.5181L27 36.9474L26.7437 37.3767C27.1371 37.6116 27.5725 37.6563 27.9982 37.4725L27.8 37.0135ZM27 36.9474L27.2563 36.5181C26.9366 36.3272 26.6002 36.2061 26.2499 36.171L26.2 36.6685L26.1502 37.166C26.3331 37.1843 26.5301 37.2491 26.7437 37.3767L27 36.9474ZM26.2 36.6685L26.2499 36.171C25.8296 36.1289 25.4408 36.2729 25.0995 36.5296L25.4 36.9292L25.7005 37.3288C25.8925 37.1844 26.0371 37.1547 26.1502 37.166L26.2 36.6685ZM25.4 36.9292L25.0995 36.5296C24.898 36.6812 24.7353 36.7284 24.6032 36.7276L24.6 37.2275L24.5968 37.7275C24.998 37.7301 25.3687 37.5784 25.7005 37.3288L25.4 36.9292ZM24.6 37.2275L24.6032 36.7276C24.3747 36.7261 24.1451 36.6987 23.9136 36.6447L23.8 37.1317L23.6864 37.6186C23.9883 37.689 24.292 37.7256 24.5968 37.7275L24.6 37.2275ZM23.8 37.1317L23.9136 36.6447C23.6462 36.5823 23.3788 36.5206 23.1113 36.4595L23 36.9469L22.8886 37.4344C23.1546 37.4951 23.4205 37.5565 23.6864 37.6186L23.8 37.1317ZM23 36.9469L23.1113 36.4595C22.6965 36.3647 22.2959 36.456 21.9353 36.681L22.2 37.1052L22.4647 37.5294C22.6374 37.4216 22.7702 37.4073 22.8886 37.4344L23 36.9469ZM22.2 37.1052L21.9353 36.681C21.8789 36.7162 21.8548 36.713 21.8499 36.7125C21.84 36.7115 21.797 36.7043 21.7181 36.6393L21.4 37.025L21.0819 37.4108C21.2697 37.5656 21.4934 37.6818 21.7501 37.7075C22.0118 37.7337 22.2544 37.6606 22.4647 37.5294L22.2 37.1052ZM21.4 37.025L21.7181 36.6393C21.3624 36.346 20.9342 36.1955 20.4727 36.317L20.6 36.8005L20.7273 37.284C20.7991 37.2651 20.9042 37.2643 21.0819 37.4108L21.4 37.025ZM20.6 36.8005L20.4727 36.317C20.2849 36.3665 20.1015 36.3687 19.9153 36.3246L19.8 36.8111L19.6847 37.2976C20.0318 37.3799 20.3818 37.375 20.7273 37.284L20.6 36.8005ZM19.8 36.8111L19.9153 36.3246C19.5479 36.2375 19.1799 36.2649 18.824 36.3987L19 36.8667L19.176 37.3347C19.3534 37.268 19.5188 37.2583 19.6847 37.2976L19.8 36.8111ZM19 36.8667L18.824 36.3987C18.629 36.472 18.4445 36.493 18.2637 36.4698L18.2 36.9657L18.1363 37.4617C18.4888 37.5069 18.8376 37.462 19.176 37.3347L19 36.8667ZM18.2 36.9657L18.2637 36.4698C17.9532 36.4299 17.6422 36.4314 17.3318 36.474L17.4 36.9694L17.4681 37.4647C17.6911 37.434 17.9134 37.433 18.1363 37.4617L18.2 36.9657ZM17.4 36.9694L17.3318 36.474C17.1637 36.4972 16.9896 36.4742 16.8002 36.3915L16.6 36.8496L16.3998 37.3078C16.7437 37.4581 17.1029 37.5149 17.4681 37.4647L17.4 36.9694ZM16.6 36.8496L16.8002 36.3915C16.3574 36.198 15.9103 36.2672 15.5196 36.5317L15.8 36.9457L16.0803 37.3597C16.223 37.2631 16.3092 37.2682 16.3998 37.3078L16.6 36.8496ZM15.8 36.9457L15.5196 36.5317C15.4515 36.5779 15.4139 36.5814 15.3995 36.5814C15.3851 36.5814 15.3477 36.578 15.2798 36.5322L15 36.9465L14.7202 37.3609C14.9189 37.4951 15.1482 37.5816 15.4005 37.5814C15.6527 37.5811 15.8818 37.4942 16.0803 37.3597L15.8 36.9457ZM15 36.9465L15.2798 36.5322C15.0862 36.4014 14.8658 36.3141 14.6238 36.3025C14.3803 36.2909 14.1526 36.3579 13.9492 36.4758L14.2 36.9084L14.4507 37.3409C14.514 37.3042 14.553 37.3003 14.5761 37.3014C14.6008 37.3026 14.6471 37.3116 14.7202 37.3609L15 36.9465ZM14.2 36.9084L13.9492 36.4758C13.7101 36.6144 13.4756 36.7199 13.2456 36.7945L13.4 37.2701L13.5543 37.7457C13.8577 37.6472 14.1565 37.5115 14.4507 37.3409L14.2 36.9084ZM13.4 37.2701L13.2456 36.7945C13.0978 36.8425 12.9554 36.8376 12.7957 36.7697L12.6 37.2298L12.4042 37.6899C12.7778 37.8488 13.1688 37.8708 13.5543 37.7457L13.4 37.2701ZM12.6 37.2298L12.7957 36.7697C12.5068 36.6468 12.2159 36.5478 11.9232 36.4733L11.7999 36.9579L11.6767 37.4424C11.9173 37.5037 12.1598 37.5859 12.4042 37.6899L12.6 37.2298ZM11.7999 36.9579L11.9232 36.4733C11.5856 36.3874 11.2439 36.3772 10.9036 36.4441L10.9999 36.9347L11.0963 37.4253C11.2893 37.3874 11.4809 37.3926 11.6767 37.4424L11.7999 36.9579ZM10.9999 36.9347L10.9036 36.4441C10.6278 36.4982 10.3523 36.5603 10.0769 36.6302L10.1999 37.1149L10.323 37.5995C10.581 37.534 10.8387 37.4759 11.0963 37.4253L10.9999 36.9347ZM10.1999 37.1149L10.0769 36.6302C9.86254 36.6847 9.65164 36.7022 9.44192 36.6845L9.39994 37.1827L9.35796 37.681C9.68158 37.7082 10.004 37.6805 10.323 37.5995L10.1999 37.1149ZM9.39994 37.1827L9.44192 36.6845C9.18743 36.6631 8.9328 36.6322 8.678 36.592L8.59994 37.0858L8.52188 37.5797C8.80041 37.6237 9.07911 37.6575 9.35796 37.681L9.39994 37.1827ZM8.59994 37.0858L8.678 36.592C8.33164 36.5372 7.9864 36.5658 7.64839 36.6733L7.79993 37.1498L7.95148 37.6263C8.1468 37.5642 8.3349 37.5501 8.52188 37.5797L8.59994 37.0858ZM7.79993 37.1498L7.64839 36.6733C7.51303 36.7164 7.37961 36.7097 7.22087 36.6315L6.99993 37.08L6.779 37.5286C7.15359 37.7131 7.5535 37.7529 7.95148 37.6263L7.79993 37.1498ZM6.99993 37.08L7.22087 36.6315C6.82111 36.4346 6.39657 36.4262 5.99105 36.6126L6.19993 37.0669L6.40881 37.5212C6.53663 37.4624 6.64541 37.4628 6.779 37.5286L6.99993 37.08ZM6.19993 37.0669L5.99105 36.6126C5.80502 36.6982 5.72252 36.6769 5.69108 36.6638L5.4988 37.1254L5.30651 37.5869C5.67658 37.7411 6.0615 37.6809 6.40881 37.5212L6.19993 37.0669ZM5.4988 37.1254L5.69108 36.6638C5.64036 36.6427 5.5536 36.5819 5.46207 36.3872L5.00959 36.5999L4.55711 36.8127C4.71634 37.1513 4.95572 37.4408 5.30651 37.5869L5.4988 37.1254ZM5.00959 36.5999L5.46207 36.3872C5.3963 36.2473 5.39539 36.1295 5.45228 35.9965L4.99255 35.7999L4.53281 35.6033C4.36166 36.0036 4.37212 36.4192 4.55711 36.8127L5.00959 36.5999ZM4.99255 35.7999L5.45228 35.9965C5.58259 35.6917 5.67065 35.3817 5.7134 35.0673L5.21796 34.9999L4.72252 34.9326C4.69276 35.1514 4.63055 35.3748 4.53281 35.6033L4.99255 35.7999ZM5.21796 34.9999L5.7134 35.0673C5.76934 34.6559 5.65122 34.2675 5.41649 33.92L5.00215 34.1999L4.58782 34.4798C4.71334 34.6656 4.73909 34.8106 4.72252 34.9326L5.21796 34.9999ZM5.00215 34.1999L5.41649 33.92C5.36634 33.8458 5.35595 33.7974 5.35435 33.7704C5.35286 33.7451 5.35688 33.7056 5.3916 33.6433L4.95482 33.3999L4.51803 33.1566C4.40419 33.3609 4.34182 33.5881 4.3561 33.8294C4.37028 34.0691 4.45785 34.2874 4.58782 34.4798L5.00215 34.1999ZM4.95482 33.3999L5.3916 33.6433C5.57384 33.3162 5.67854 32.971 5.68747 32.6124L5.18763 32.5999L4.68779 32.5875C4.68343 32.7622 4.63292 32.9503 4.51803 33.1566L4.95482 33.3999ZM5.18763 32.5999L5.68747 32.6124C5.69652 32.2492 5.60365 31.8983 5.42765 31.5659L4.98578 31.7999L4.54391 32.0339C4.65033 32.2349 4.69202 32.4173 4.68779 32.5875L5.18763 32.5999ZM4.98578 31.7999L5.42765 31.5659C5.36237 31.4426 5.36251 31.3487 5.42431 31.2286L4.97966 30.9999L4.53501 30.7712C4.32254 31.1844 4.32676 31.6238 4.54391 32.0339L4.98578 31.7999ZM4.97966 30.9999L5.42431 31.2286C5.63607 30.8168 5.63379 30.3785 5.41949 29.9683L4.97634 30.1999L4.53319 30.4315C4.59757 30.5547 4.59751 30.6497 4.53501 30.7712L4.97966 30.9999ZM4.97634 30.1999L5.41949 29.9683C5.35053 29.8364 5.35039 29.7337 5.40741 29.6119L4.95457 29.3999L4.50173 29.1879C4.30909 29.5994 4.32347 30.0301 4.53319 30.4315L4.97634 30.1999ZM4.95457 29.3999L5.40741 29.6119C5.56803 29.2687 5.63433 28.9081 5.58951 28.5395L5.09317 28.5999L4.59682 28.6603C4.61686 28.825 4.59076 28.9977 4.50173 29.1879L4.95457 29.3999ZM5.09317 28.5999L5.58951 28.5395C5.56522 28.3398 5.58027 28.1391 5.63728 27.9335L5.15547 27.7999L4.67367 27.6662C4.58274 27.9941 4.55625 28.3266 4.59682 28.6603L5.09317 28.5999ZM5.15547 27.7999L5.63728 27.9335C5.72857 27.6044 5.75385 27.2705 5.71047 26.9357L5.21461 26.9999L4.71876 27.0641C4.74447 27.2626 4.73032 27.462 4.67367 27.6662L5.15547 27.7999ZM5.21461 26.9999L5.71047 26.9357C5.67463 26.659 5.63029 26.3824 5.57747 26.106L5.08636 26.1999L4.59524 26.2937C4.64434 26.5507 4.68551 26.8075 4.71876 27.0641L5.21461 26.9999ZM5.08636 26.1999L5.57747 26.106C5.54115 25.916 5.5486 25.7268 5.60206 25.5325L5.11997 25.3999L4.63789 25.2672C4.5446 25.6063 4.52964 25.9504 4.59524 26.2937L5.08636 26.1999ZM5.11997 25.3999L5.60206 25.5325C5.71464 25.1233 5.64647 24.7207 5.43693 24.3526L5.00238 24.5999L4.56783 24.8472C4.66183 25.0124 4.67205 25.1431 4.63789 25.2672L5.11997 25.3999ZM5.00238 24.5999L5.43693 24.3526C5.40063 24.2888 5.396 24.2482 5.39716 24.2227C5.39839 24.1958 5.40794 24.1484 5.45612 24.0754L5.03891 23.7999L4.62169 23.5243C4.49376 23.718 4.40915 23.9373 4.3982 24.1771C4.38719 24.4182 4.45236 24.6443 4.56783 24.8472L5.00238 24.5999ZM5.03891 23.7999L5.45612 24.0754C5.68809 23.7242 5.79866 23.3322 5.73124 22.9193L5.23777 22.9999L4.74431 23.0805C4.76398 23.2009 4.74198 23.3422 4.62169 23.5243L5.03891 23.7999ZM5.23777 22.9999L5.73124 22.9193C5.69179 22.6778 5.67132 22.4369 5.66963 22.1964L5.16964 22.1999L4.66966 22.2034C4.67171 22.4962 4.69665 22.7886 4.74431 23.0805L5.23777 22.9999ZM5.16964 22.1999L5.66963 22.1964C5.66793 21.9536 5.68358 21.7106 5.71668 21.4672L5.22124 21.3999L4.7258 21.3325C4.68637 21.6224 4.66762 21.9128 4.66966 22.2034L5.16964 22.1999ZM5.22124 21.3999L5.71668 21.4672C5.75755 21.1667 5.76734 20.8656 5.74589 20.5643L5.24715 20.5999L4.74841 20.6354C4.76495 20.8675 4.75746 21.0997 4.7258 21.3325L5.22124 21.3999ZM5.24715 20.5999L5.74589 20.5643C5.72879 20.3243 5.73092 20.0843 5.75229 19.8442L5.25425 19.7999L4.75622 19.7555C4.73013 20.0487 4.72752 20.3421 4.74841 20.6354L5.24715 20.5999ZM5.25425 19.7999L5.75229 19.8442C5.77552 19.5831 5.80316 19.3219 5.83521 19.0608L5.33894 18.9999L4.84266 18.939C4.80926 19.2111 4.78045 19.4833 4.75622 19.7555L5.25425 19.7999ZM5.33894 18.9999L5.83521 19.0608C5.89297 18.5901 5.67679 18.1802 5.35256 17.8497L4.99563 18.1999L4.6387 18.55C4.83766 18.7528 4.85035 18.8763 4.84266 18.939L5.33894 18.9999ZM4.99563 18.1999L5.35256 17.8497C5.26064 17.756 5.23133 17.6924 5.22255 17.6618C5.21639 17.6404 5.21529 17.6219 5.22902 17.5881L4.76582 17.3998L4.30261 17.2116C4.20795 17.4445 4.19096 17.6926 4.26142 17.9379C4.32924 18.174 4.46903 18.377 4.6387 18.55L4.99563 18.1999ZM4.76582 17.3998L5.22902 17.5881C5.36648 17.2499 5.42025 16.8995 5.38019 16.5439L4.88333 16.5998L4.38648 16.6558C4.4065 16.8336 4.38192 17.0165 4.30261 17.2116L4.76582 17.3998ZM4.88333 16.5998L5.38019 16.5439C5.34896 16.2666 5.3088 15.9896 5.25973 15.7126L4.7674 15.7998L4.27507 15.8871C4.3205 16.1435 4.35763 16.3997 4.38648 16.6558L4.88333 16.5998ZM4.7674 15.7998L5.25973 15.7126C5.22605 15.5225 5.2357 15.3326 5.2915 15.1371L4.81071 14.9998L4.32992 14.8626C4.23348 15.2004 4.21425 15.5438 4.27507 15.8871L4.7674 15.7998ZM4.81071 14.9998L5.2915 15.1371C5.38264 14.8178 5.41927 14.4942 5.39892 14.1686L4.89989 14.1998L4.40086 14.231C4.41385 14.4388 4.39102 14.6485 4.32992 14.8626L4.81071 14.9998ZM4.89989 14.1998L5.39892 14.1686C5.3836 13.9236 5.38424 13.6787 5.40085 13.4336L4.90199 13.3998L4.40314 13.366C4.3836 13.6543 4.38284 13.9427 4.40086 14.231L4.89989 14.1998ZM4.90199 13.3998L5.40085 13.4336C5.41981 13.1538 5.42764 12.8738 5.42431 12.5939L4.92435 12.5998L4.42438 12.6058C4.42739 12.8591 4.42031 13.1126 4.40314 13.366L4.90199 13.3998ZM4.92435 12.5998L5.42431 12.5939C5.42193 12.3934 5.45807 12.1883 5.53794 11.9757L5.06989 11.7998L4.60183 11.624C4.48132 11.9447 4.42043 12.2729 4.42438 12.6058L4.92435 12.5998ZM5.06989 11.7998L5.53794 11.9757C5.68594 11.5818 5.66874 11.1782 5.49619 10.7947L5.04021 10.9998L4.58424 11.205C4.65164 11.3548 4.65422 11.4845 4.60183 11.624L5.06989 11.7998ZM5.04021 10.9998L5.49619 10.7947C5.3841 10.5455 5.28986 10.2977 5.2131 10.0512L4.7357 10.1998L4.25831 10.3485C4.34761 10.6353 4.45637 10.9208 4.58424 11.205L5.04021 10.9998ZM4.7357 10.1998L5.2131 10.0512C5.15907 9.87765 5.1576 9.71121 5.20755 9.53936L4.72741 9.39982L4.24728 9.26028C4.14222 9.62177 4.14628 9.98866 4.25831 10.3485L4.7357 10.1998ZM4.72741 9.39982L5.20755 9.53936C5.30012 9.22085 5.3389 8.89794 5.32136 8.57288L4.82208 8.59982L4.32281 8.62676C4.33405 8.83503 4.30971 9.04545 4.24728 9.26028L4.72741 9.39982ZM4.82208 8.59982L5.32136 8.57288C5.31277 8.41381 5.35083 8.24032 5.46071 8.04405L5.02442 7.79981L4.58813 7.55558C4.39944 7.89264 4.30261 8.25249 4.32281 8.62676L4.82208 8.59982ZM5.02442 7.79981L5.46071 8.04405C5.64971 7.70643 5.74604 7.34578 5.72418 6.97071L5.22502 6.99981L4.72587 7.0289C4.7351 7.18718 4.69769 7.35986 4.58813 7.55558L5.02442 7.79981ZM5.22502 6.99981L5.72418 6.97071C5.70554 6.65106 5.63672 6.33539 5.52092 6.02503L5.05247 6.19981L4.58401 6.37459C4.6672 6.59756 4.71342 6.81522 4.72587 7.0289L5.22502 6.99981ZM5.05247 6.19981L5.52092 6.02503C5.44766 5.82867 5.42592 5.64243 5.44799 5.45996L4.95161 5.3999L4.45523 5.33984C4.4128 5.69058 4.45829 6.03761 4.58401 6.37459L5.05247 6.19981ZM4.95161 5.3999L5.44799 5.45996C5.45129 5.43275 5.45447 5.43923 5.44212 5.46317C5.42745 5.4916 5.39467 5.53629 5.33634 5.56968C5.27952 5.60221 5.2302 5.60587 5.21011 5.60539C5.19332 5.60499 5.19827 5.60204 5.2315 5.61393L5.4 5.14318L5.5685 4.67243C5.38401 4.60639 5.10358 4.55064 4.83947 4.70186C4.56479 4.85912 4.4795 5.1393 4.45523 5.33984L4.95161 5.3999Z" fill="#ECDABB"/>
</g>
<defs>
<filter id="filter0_d_2380_16985" x="0.136292" y="0.129761" width="45.7374" height="45.6965" filterUnits="userSpaceOnUse" color-interpolation-filters="sRGB">
<feFlood flood-opacity="0" result="BackgroundImageFix"/>
<feColorMatrix in="SourceAlpha" type="matrix" values="0 0 0 0 0 0 0 0 0 0 0 0 0 0 0 0 0 0 127 0" result="hardAlpha"/>
<feOffset dx="4" dy="4"/>
<feComposite in2="hardAlpha" operator="out"/>
<feColorMatrix type="matrix" values="0 0 0 0 0 0 0 0 0 0 0 0 0 0 0 0 0 0 0.16 0"/>
<feBlend mode="normal" in2="BackgroundImageFix" result="effect1_dropShadow_2380_16985"/>
<feBlend mode="normal" in="SourceGraphic" in2="effect1_dropShadow_2380_16985" result="shape"/>
</filter>
</defs>
</svg>
