<svg width="24" height="24" viewBox="0 0 24 24" fill="none" xmlns="http://www.w3.org/2000/svg">
<path d="M15.7891 2.28911C16.1796 1.89858 16.8204 1.89858 17.2109 2.28911C17.6015 2.67963 17.6015 3.32046 17.2109 3.71098L17.1328 3.7813L17.0781 3.83598L17.0156 3.88286L16.5078 4.23442L16.5156 4.24223L15.4297 5.16411C15.2608 5.32247 15.0979 5.48863 14.9453 5.66411L14.5078 6.2188C14.1776 6.68679 13.8315 7.14106 13.4609 7.57036C13.0781 8.01378 12.6571 8.42472 12.2109 8.80473L11.0703 9.83598C10.6586 10.2326 10.2229 10.6113 9.76562 10.961C9.40226 11.2392 9.07291 11.5501 8.78125 11.8985C9.09161 12.2847 9.42142 12.6475 9.77343 12.9844L10.9062 13.9141L11.6562 14.5625C11.883 14.8004 12.0842 15.063 12.2656 15.3438L12.6797 15.9141C12.8249 16.0926 12.978 16.2623 13.1406 16.4219L14.2656 17.3985C14.6997 17.7325 15.1267 18.0738 15.5469 18.4219L16.3516 19.2266C16.6104 19.5224 16.876 19.8649 17.1562 20.2422L17.2109 20.2891L17.4297 20.625C17.575 20.9857 17.5033 21.4187 17.2109 21.711C16.9186 22.0033 16.4857 22.075 16.125 21.9297L15.7891 21.711L15.7187 21.6329L15.6719 21.586L15.625 21.5235C15.3323 21.1252 15.0763 20.7962 14.8516 20.5391L14.2734 19.961C13.8718 19.6282 13.462 19.3038 13.0469 18.9844L11.7422 17.8516C11.5249 17.6386 11.3173 17.4161 11.125 17.1797L10.5859 16.4297C10.4719 16.2533 10.3438 16.0927 10.2031 15.9454L9.74218 15.5469C9.50232 15.376 9.27218 15.1941 9.04687 15.0079L8.39062 14.4297L7.21875 13.1485C6.94962 12.8133 6.74817 12.3881 6.75 11.8907C6.75255 11.3916 6.95835 10.9648 7.23437 10.6329L7.85937 9.96098C8.07819 9.75134 8.31225 9.55264 8.55468 9.36723C8.95131 9.06377 9.33159 8.74129 9.6875 8.39848L10.9141 7.2813C11.2823 6.96768 11.6294 6.63147 11.9453 6.26567L12.875 5.07036L13.4375 4.35942C13.6352 4.13176 13.8425 3.90943 14.0625 3.70317L15.3125 2.64848L15.3281 2.63286L15.7656 2.32036L15.7891 2.28911Z" fill="#463E53"/>
</svg>
