<svg width="8" height="8" viewBox="0 0 8 8" fill="none" xmlns="http://www.w3.org/2000/svg">
<path d="M7.19526 2.61979C7.20856 2.53557 7.20403 2.4193 7.13276 2.3125C7.06306 2.20822 6.96187 2.15967 6.88537 2.13802L6.67182 2.11718C6.50374 2.12442 6.3347 2.1266 6.16662 2.11979L5.8463 2.1302C5.74071 2.14245 5.63576 2.16425 5.5312 2.1927C5.3932 2.23024 5.25666 2.23951 5.12235 2.22395C4.95502 2.20454 4.78747 2.17767 4.61974 2.14323C4.39585 2.09721 4.16869 2.09893 3.94526 2.14843C3.80374 2.17965 3.66302 2.18574 3.52339 2.16927C3.42278 2.15743 3.322 2.15194 3.2213 2.15104L2.91922 2.16406C2.77802 2.17816 2.63552 2.17068 2.49214 2.13802L2.30985 2.10937C2.12799 2.09528 1.94739 2.12254 1.77078 2.1875C1.64084 2.23534 1.5169 2.24731 1.39578 2.23177L1.19266 2.20573C1.16977 2.2021 1.15386 2.1974 1.14318 2.19531L1.14839 2.19791L1.08068 2.18229C1.06419 2.18017 1.0354 2.17833 0.999949 2.18229C0.965953 2.18614 0.901758 2.19847 0.838491 2.24479C0.766794 2.29747 0.722802 2.37446 0.708283 2.45573C0.695806 2.52679 0.707018 2.58534 0.716095 2.61458C0.733358 2.67008 0.763768 2.70667 0.770783 2.71614C0.800853 2.75664 0.839725 2.78907 0.848908 2.79687L1.01557 2.92708C1.07695 2.97308 1.13517 3.02329 1.19005 3.07552L1.3463 3.24218C1.45722 3.37606 1.56535 3.51265 1.67182 3.65104L2.04943 4.08593C2.12042 4.15835 2.19459 4.22756 2.27339 4.29166L2.52339 4.47135C2.64075 4.54718 2.73792 4.64072 2.81766 4.7526C2.87464 4.83256 2.93525 4.90927 2.99734 4.98437L3.19005 5.20312L3.61714 5.59375C3.72885 5.68345 3.87061 5.75061 4.03641 5.75C4.20276 5.74915 4.34502 5.68054 4.45568 5.58854L4.67964 5.3802C4.74952 5.30727 4.81575 5.22925 4.87755 5.14843C4.97871 5.01622 5.0862 4.88947 5.20047 4.77083L5.57287 4.36198C5.6774 4.23924 5.78947 4.12353 5.91141 4.01823C6.0379 3.90901 6.17134 3.80608 6.30985 3.70833C6.47544 3.59148 6.62824 3.45896 6.76557 3.3125C6.90528 3.16339 7.02339 3.00083 7.11974 2.82552L7.19526 2.61979ZM0.994741 2.84375L0.934845 2.83073L0.999949 2.84375L0.994741 2.84375Z" fill="#463E53"/>
</svg>
