<svg width="24" height="24" viewBox="0 0 24 24" fill="none" xmlns="http://www.w3.org/2000/svg">
<path d="M2.28905 15.7891C1.89852 16.1796 1.89852 16.8204 2.28905 17.2109C2.67957 17.6015 3.3204 17.6015 3.71092 17.2109L3.78124 17.1328L3.83592 17.0781L3.8828 17.0156L4.23436 16.5078L4.24217 16.5156L5.16405 15.4297C5.32241 15.2608 5.48856 15.0979 5.66405 14.9453L6.21874 14.5078C6.68673 14.1776 7.141 13.8315 7.5703 13.4609C8.01372 13.0781 8.42466 12.6571 8.80467 12.2109L9.83592 11.0703C10.2325 10.6586 10.6112 10.2229 10.9609 9.76564C11.2391 9.40227 11.55 9.07292 11.8984 8.78126C12.2847 9.09163 12.6475 9.42143 12.9844 9.77345L13.914 10.9063L14.5625 11.6563C14.8003 11.883 15.063 12.0842 15.3437 12.2656L15.914 12.6797C16.0926 12.8249 16.2623 12.978 16.4219 13.1406L17.3984 14.2656C17.7324 14.6998 18.0737 15.1267 18.4219 15.5469L19.2265 16.3516C19.5224 16.6104 19.8649 16.876 20.2422 17.1563L20.289 17.2109L20.625 17.4297C20.9857 17.575 21.4186 17.5033 21.7109 17.2109C22.0032 16.9186 22.075 16.4857 21.9297 16.125L21.7109 15.7891L21.6328 15.7188L21.5859 15.6719L21.5234 15.625C21.1252 15.3323 20.7961 15.0763 20.539 14.8516L19.9609 14.2734C19.6282 13.8718 19.3038 13.462 18.9844 13.0469L17.8515 11.7422C17.6386 11.525 17.4161 11.3173 17.1797 11.125L16.4297 10.5859C16.2532 10.4719 16.0927 10.3438 15.9453 10.2031L15.5469 9.7422C15.3759 9.50233 15.1941 9.27219 15.0078 9.04689L14.4297 8.39064L13.1484 7.21876C12.8133 6.94964 12.388 6.74818 11.8906 6.75001C11.3916 6.75256 10.9648 6.95837 10.6328 7.23439L9.96092 7.85939C9.75128 8.0782 9.55258 8.31226 9.36717 8.5547C9.06371 8.95133 8.74123 9.3316 8.39842 9.68751L7.28124 10.9141C6.96762 11.2823 6.63141 11.6294 6.26561 11.9453L5.0703 12.875L4.35936 13.4375C4.1317 13.6353 3.90937 13.8425 3.70311 14.0625L2.64842 15.3125L2.6328 15.3281L2.3203 15.7656L2.28905 15.7891Z" fill="#463E53"/>
</svg>
