<svg width="24" height="24" viewBox="0 0 24 24" fill="none" xmlns="http://www.w3.org/2000/svg">
<path d="M8.21093 2.28911C7.8204 1.89858 7.17957 1.89858 6.78905 2.28911C6.39853 2.67963 6.39853 3.32046 6.78905 3.71098L6.86718 3.7813L6.92186 3.83598L6.98436 3.88286L7.49218 4.23442L7.48436 4.24223L8.5703 5.16411C8.73919 5.32247 8.90209 5.48863 9.05468 5.66411L9.49218 6.2188C9.82241 6.68679 10.1685 7.14106 10.5391 7.57036C10.9219 8.01378 11.3429 8.42472 11.7891 8.80473L12.9297 9.83598C13.3414 10.2326 13.7771 10.6113 14.2344 10.961C14.5977 11.2392 14.9271 11.5501 15.2187 11.8985C14.9084 12.2847 14.5786 12.6475 14.2266 12.9844L13.0937 13.9141L12.3437 14.5625C12.117 14.8004 11.9158 15.063 11.7344 15.3438L11.3203 15.9141C11.1751 16.0926 11.022 16.2623 10.8594 16.4219L9.73436 17.3985C9.30025 17.7325 8.87332 18.0738 8.45311 18.4219L7.64843 19.2266C7.38963 19.5224 7.12403 19.8649 6.84374 20.2422L6.78905 20.2891L6.5703 20.625C6.425 20.9857 6.49673 21.4187 6.78905 21.711C7.08137 22.0033 7.51429 22.075 7.87499 21.9297L8.21093 21.711L8.28124 21.6329L8.32811 21.586L8.37499 21.5235C8.66771 21.1252 8.92373 20.7962 9.14843 20.5391L9.72655 19.961C10.1282 19.6282 10.538 19.3038 10.9531 18.9844L12.2578 17.8516C12.475 17.6386 12.6827 17.4161 12.875 17.1797L13.4141 16.4297C13.5281 16.2533 13.6562 16.0927 13.7969 15.9454L14.2578 15.5469C14.4977 15.376 14.7278 15.1941 14.9531 15.0079L15.6094 14.4297L16.7812 13.1485C17.0504 12.8133 17.2518 12.3881 17.25 11.8907C17.2474 11.3916 17.0416 10.9648 16.7656 10.6329L16.1406 9.96098C15.9218 9.75134 15.6877 9.55264 15.4453 9.36723C15.0487 9.06377 14.6684 8.74129 14.3125 8.39848L13.0859 7.2813C12.7177 6.96768 12.3706 6.63147 12.0547 6.26567L11.125 5.07036L10.5625 4.35942C10.3647 4.13176 10.1575 3.90943 9.93749 3.70317L8.68749 2.64848L8.67186 2.63286L8.23436 2.32036L8.21093 2.28911Z" fill="#463E53"/>
</svg>
