<svg width="24" height="24" viewBox="0 0 24 24" fill="none" xmlns="http://www.w3.org/2000/svg">
<path d="M21.711 8.21093C22.1015 7.8204 22.1015 7.17957 21.711 6.78905C21.3204 6.39853 20.6796 6.39853 20.2891 6.78905L20.2188 6.86718L20.1641 6.92186L20.1172 6.98436L19.7656 7.49218L19.7578 7.48436L18.836 8.5703C18.6776 8.73919 18.5114 8.90209 18.336 9.05468L17.7813 9.49218C17.3133 9.82241 16.859 10.1685 16.4297 10.5391C15.9863 10.9219 15.5753 11.3429 15.1953 11.7891L14.1641 12.9297C13.7675 13.3414 13.3888 13.7771 13.0391 14.2344C12.7609 14.5977 12.45 14.9271 12.1016 15.2187C11.7153 14.9084 11.3525 14.5786 11.0156 14.2265L10.086 13.0937L9.43751 12.3437C9.19969 12.117 8.93705 11.9158 8.65626 11.7344L8.08595 11.3203C7.90742 11.1751 7.73771 11.022 7.57814 10.8594L6.60158 9.73436C6.26758 9.30025 5.92625 8.87332 5.57814 8.45311L4.77345 7.64842C4.47762 7.38963 4.13512 7.12403 3.75783 6.84374L3.71095 6.78905L3.37502 6.5703C3.01432 6.425 2.5814 6.49673 2.28908 6.78905C1.99676 7.08137 1.92503 7.51429 2.07033 7.87499L2.28908 8.21092L2.3672 8.28124L2.41408 8.32811L2.47658 8.37499C2.87483 8.66771 3.20389 8.92373 3.46095 9.14842L4.03908 9.72655C4.37182 10.1282 4.69622 10.538 5.01564 10.9531L6.14845 12.2578C6.36143 12.475 6.58395 12.6827 6.82033 12.875L7.57033 13.414C7.74679 13.5281 7.90732 13.6562 8.0547 13.7969L8.45314 14.2578C8.6241 14.4977 8.80592 14.7278 8.9922 14.9531L9.57033 15.6094L10.8516 16.7812C11.1867 17.0504 11.612 17.2518 12.1094 17.25C12.6084 17.2474 13.0352 17.0416 13.3672 16.7656L14.0391 16.1406C14.2487 15.9218 14.4474 15.6877 14.6328 15.4453C14.9363 15.0487 15.2588 14.6684 15.6016 14.3125L16.7188 13.0859C17.0324 12.7177 17.3686 12.3706 17.7344 12.0547L18.9297 11.125L19.6406 10.5625C19.8683 10.3647 20.0906 10.1575 20.2969 9.93749L21.3516 8.68749L21.3672 8.67186L21.6797 8.23436L21.711 8.21093Z" fill="#463E53"/>
</svg>
