<svg width="24" height="24" viewBox="0 0 24 24" fill="none" xmlns="http://www.w3.org/2000/svg">
<path d="M8.29686 2.64839C8.97773 2.20487 9.74656 2.05518 10.5469 2.19527C11.0129 2.27702 11.4544 2.28937 11.8672 2.23433L12.789 2.17964C13.0981 2.18298 13.4102 2.20209 13.7187 2.24996C14.2925 2.33909 14.8587 2.47748 15.414 2.65621L16.2422 2.96089C16.5124 3.07375 16.7774 3.20017 17.039 3.33589L17.8281 3.80464C18.0804 3.97385 18.3289 4.15401 18.5625 4.35152L19.2578 5.08589C19.4621 5.35411 19.6362 5.64838 19.7812 5.96089C19.9471 6.31733 20.1883 6.63388 20.5156 6.91402L20.9375 7.35152C21.3093 7.81672 21.5327 8.37111 21.5781 8.99214C21.6188 9.5483 21.6528 10.0928 21.6875 10.6171L21.75 11.164L21.7734 11.2968L21.9062 11.7656C21.9265 11.9187 21.9279 12.0626 21.9219 12.1796L21.789 13.0078C21.6719 13.5049 21.5703 14.0028 21.4844 14.5C21.3863 15.0666 21.2445 15.6309 21.0625 16.1875C20.8641 16.793 20.5784 17.3605 20.2109 17.8828C20.0171 18.1579 19.8031 18.4131 19.5625 18.6406L18.7656 19.25C18.3631 19.5016 17.9938 19.7882 17.6562 20.1093C17.4229 20.3315 17.1695 20.5312 16.9062 20.7109L16.0781 21.1875C15.5276 21.4451 14.9522 21.6455 14.3594 21.7812C13.81 21.9067 13.2501 22.0097 12.6875 22.0937C12.3539 22.1435 12.0188 22.1647 11.6875 22.1484L10.6953 21.9921L9.07811 21.5312C8.78641 21.4364 8.50249 21.3232 8.22655 21.1953L7.42186 20.7656L6.06248 19.8984L4.68748 18.914C4.42318 18.7087 4.17894 18.4814 3.96092 18.2343L3.37498 17.4218C3.07033 16.906 2.80451 16.3683 2.58592 15.8125C2.36223 15.243 2.20208 14.6564 2.10155 14.0546C2.0072 13.489 1.93864 12.9158 1.89842 12.3437C1.84943 11.6417 1.96742 10.9602 2.24998 10.3125L2.5078 9.64058C2.57891 9.41988 2.633 9.19768 2.67967 8.97652L3.11717 7.32808L3.3203 6.81246C3.55797 6.31945 3.89679 5.88991 4.33592 5.53902C4.72511 5.228 5.08115 4.89437 5.40623 4.53902L6.14842 3.87496C6.41212 3.68166 6.69875 3.51549 6.99998 3.37496L8.29686 2.64839ZM15.7109 8.28902C15.3204 7.89854 14.6796 7.89851 14.289 8.28902L14.25 8.32808L14.2109 8.35933L14.1875 8.37496L14.164 8.39839L13.3515 9.18746C13.0226 9.52138 12.6591 9.82799 12.2656 10.1015C12.1381 10.1904 12.0141 10.2823 11.8984 10.3828C11.7243 10.2239 11.5548 10.0594 11.375 9.90621C11.0043 9.59037 10.4784 9.08548 9.78905 8.37496L9.78123 8.36714L9.71092 8.28902L9.37498 8.07027C9.0143 7.925 8.58135 7.99671 8.28905 8.28902C7.99674 8.58132 7.92503 9.01427 8.0703 9.37496L8.28905 9.71089L8.36717 9.78121C9.06388 10.4988 9.63734 11.0541 10.0781 11.4296C10.2861 11.6069 10.4802 11.7987 10.6797 11.9843C10.6372 12.0454 10.6086 12.1152 10.5625 12.1718L10.1406 12.5859L8.36717 14.2187L8.28905 14.289C7.89854 14.6795 7.89857 15.3204 8.28905 15.7109C8.67957 16.1014 9.3204 16.1014 9.71092 15.7109L9.77342 15.6406C10.4758 14.9441 11.0135 14.4497 11.3906 14.1484L12.039 13.5C12.0525 13.5196 12.0727 13.5348 12.0859 13.5546C12.483 14.1495 13.0105 14.618 13.6484 14.9531L13.9297 15.125V15.3437L14.2187 15.6328L14.289 15.7109L14.625 15.9296C14.9857 16.0749 15.4186 16.0032 15.7109 15.7109C16.0032 15.4186 16.075 14.9856 15.9297 14.625V14.5937L15.8984 14.4765C15.7905 14.0683 15.4974 13.7922 15.3203 13.6484L14.5781 13.1796C14.2283 12.9957 13.9561 12.7541 13.75 12.4453C13.6086 12.2335 13.4534 12.0337 13.2969 11.8359C13.3354 11.8054 13.3734 11.7704 13.414 11.7421C13.9084 11.3983 14.3635 11.0105 14.7812 10.5859L15.4609 9.92183L15.5312 9.86714L15.5859 9.82808L15.6328 9.78121L15.7109 9.71089C16.1014 9.32037 16.1014 8.67954 15.7109 8.28902Z" fill="#463E53"/>
</svg>
