<svg width="240" height="240" viewBox="0 0 240 240" fill="none" xmlns="http://www.w3.org/2000/svg">
<path d="M235.724 122.447C235.724 123.441 236.1 124.445 235.974 125.43C235.849 126.415 235.782 127.429 235.55 128.394C235.319 129.359 235.204 130.383 234.866 131.328C234.529 132.273 233.363 132.805 232.929 133.711C232.496 134.616 232.428 135.65 231.917 136.507C231.407 137.364 230.867 138.151 230.289 138.959C229.711 139.766 229.441 140.79 228.805 141.558C228.169 142.326 227.089 142.631 226.405 143.35C225.721 144.069 225.461 145.172 224.738 145.861C224.015 146.55 222.984 146.796 222.223 147.446C221.462 148.096 220.72 148.657 219.939 149.268C219.158 149.878 218.59 150.715 217.78 151.286C216.971 151.857 216.133 152.31 215.304 152.852C214.475 153.393 213.396 153.433 212.557 153.945C211.719 154.457 211.141 155.362 210.283 155.845C209.425 156.327 208.568 156.741 207.7 157.204C206.833 157.666 206.053 158.247 205.176 158.681C204.299 159.114 203.566 159.813 202.67 160.226C201.774 160.64 200.849 160.906 199.952 161.3C199.056 161.693 198.044 161.753 197.139 162.127C196.233 162.501 195.231 162.53 194.315 162.885C193.4 163.239 192.474 163.446 191.549 163.781C190.624 164.116 190.017 165.307 189.092 165.622C188.167 165.937 187.088 165.691 186.153 165.986C185.218 166.282 184.331 166.646 183.397 166.922C182.462 167.197 181.469 167.188 180.525 167.454C179.581 167.719 178.839 168.645 177.894 168.891C176.95 169.137 175.832 168.586 174.878 168.822C173.924 169.058 173.105 169.738 172.151 169.954C171.197 170.171 170.3 170.575 169.346 170.782C168.392 170.988 167.409 170.988 166.455 171.175C165.501 171.362 164.489 171.195 163.535 171.372C162.581 171.55 161.724 172.278 160.77 172.436C159.816 172.593 158.756 172.071 157.792 172.229C156.828 172.386 155.98 173.223 155.017 173.361C154.053 173.499 153.08 173.479 152.116 173.607C151.152 173.735 150.227 174.119 149.264 174.238C148.3 174.356 147.298 174.09 146.334 174.188C145.37 174.287 144.436 174.661 143.462 174.75C142.489 174.838 141.477 174.287 140.513 174.366C139.55 174.444 138.634 175.242 137.661 175.311C136.688 175.38 135.724 175.399 134.751 175.458C133.777 175.518 132.785 174.937 131.811 174.976C130.838 175.015 129.874 174.976 128.901 175.006C127.928 175.035 126.974 175.38 126.001 175.399C125.027 175.419 124.064 175.114 123.09 175.124C122.117 175.134 121.153 176 120.18 176C119.207 176 118.243 175.094 117.279 175.084C116.316 175.074 115.333 175.646 114.369 175.626C113.405 175.606 112.432 175.321 111.468 175.291C110.505 175.262 109.541 174.966 108.577 174.927C107.614 174.887 106.621 175.222 105.657 175.163C104.694 175.104 103.701 175.291 102.738 175.232C101.774 175.173 100.791 175.173 99.8273 175.094C98.8636 175.015 97.9385 174.366 96.9748 174.277C96.0111 174.188 95.0667 173.834 94.1127 173.735C93.1587 173.637 92.1083 174.218 91.1446 174.11C90.1809 174.001 89.198 173.952 88.244 173.824C87.2899 173.696 86.3263 173.499 85.3626 173.361C84.3989 173.223 83.4834 172.761 82.5294 172.613C81.5754 172.465 80.5539 172.672 79.5998 172.505C78.6458 172.337 77.7014 172.052 76.7474 171.874C75.7934 171.697 74.8971 171.156 73.9527 170.969C73.0083 170.782 72.1025 170.338 71.1581 170.132C70.2137 169.925 69.1826 170.063 68.2478 169.846C67.3131 169.63 66.3687 169.324 65.4339 169.098C64.4991 168.871 63.5162 168.763 62.5814 168.517C61.6467 168.271 60.7023 167.995 59.7772 167.729C58.852 167.463 58.0137 166.794 57.0982 166.518C56.1827 166.242 54.9685 166.833 54.053 166.548C53.1375 166.262 52.2895 165.652 51.374 165.337C50.4585 165.021 49.7068 164.185 48.801 163.86C47.8951 163.535 46.9507 163.249 46.0545 162.905C45.1583 162.56 44.2332 162.215 43.337 161.861C42.4408 161.506 41.5927 160.985 40.7062 160.601C39.8196 160.217 38.9234 159.813 38.0464 159.409C37.1695 159.005 36.0709 159.025 35.2132 158.602C34.3556 158.178 33.6906 157.273 32.8426 156.82C31.9946 156.367 30.7996 156.505 29.9612 156.022C29.1229 155.54 28.1785 155.165 27.3593 154.663C26.5402 154.161 25.8175 153.413 25.008 152.881C24.1985 152.349 23.4083 151.739 22.6181 151.178C21.8279 150.617 20.9028 150.183 20.1415 149.592C19.3802 149.002 18.8983 147.988 18.1659 147.357C17.4335 146.727 16.8264 145.92 16.1326 145.25C15.4388 144.581 14.5907 144.029 13.9354 143.33C13.2801 142.631 12.4514 142.021 11.8346 141.282C11.2179 140.544 10.6686 139.677 10.1097 138.9C9.55073 138.122 8.75089 137.423 8.25942 136.595C7.76795 135.768 7.76795 134.607 7.34393 133.73C6.91992 132.854 6.43808 131.997 6.11044 131.082C5.78279 130.166 4.95403 129.359 4.73239 128.413C4.51074 127.468 4.35656 126.434 4.24092 125.459C4.12528 124.485 4 123.461 4 122.466C4 121.413 4.43365 120.379 4.56856 119.335C4.70348 118.291 4.68421 117.218 4.9444 116.204C5.20459 115.19 5.68642 114.245 6.06225 113.26C6.43808 112.275 6.61154 111.212 7.08374 110.267C7.55594 109.322 8.36542 108.613 8.93399 107.717C9.50255 106.821 10.2735 106.161 10.9095 105.314C11.4877 104.546 11.6323 103.404 12.2779 102.656C12.9236 101.907 13.8969 101.533 14.5907 100.834C15.2846 100.135 15.6219 99.111 16.3542 98.4513C17.0866 97.7916 17.8576 97.2304 18.6092 96.6002C19.3609 95.9701 20.1029 95.3793 20.8931 94.7885C21.6833 94.1978 22.4446 93.6365 23.2541 93.0753C24.0636 92.5141 24.8731 92.0316 25.6922 91.4999C26.5113 90.9682 27.4557 90.7024 28.2941 90.2002C29.1325 89.698 30.0383 89.4027 30.896 88.93C31.7537 88.4574 32.6402 88.1423 33.5076 87.6993C34.3749 87.2562 34.9434 86.2716 35.8204 85.8482C36.6973 85.4248 37.6031 85.1196 38.4897 84.7159C39.3763 84.3122 40.4363 84.4008 41.3229 84.0168C42.2095 83.6328 42.9515 82.9337 43.8477 82.5694C44.7439 82.2051 45.6401 81.89 46.546 81.5454C47.4518 81.2008 48.4059 81.0629 49.3214 80.738C50.2368 80.4131 50.9789 79.6451 51.904 79.3398C52.8291 79.0346 53.7735 78.8771 54.6986 78.5817C55.6238 78.2863 56.5778 78.1681 57.5029 77.8924C58.428 77.6167 59.3724 77.4691 60.3072 77.2032C61.242 76.9374 62.1092 76.5041 63.044 76.2678C63.9788 76.0315 64.8557 75.5983 65.8001 75.362C66.7445 75.1257 67.6311 74.722 68.5755 74.5054C69.5199 74.2887 70.5028 74.338 71.4568 74.141C72.4109 73.9441 73.4324 74.2297 74.3768 74.0426C75.3212 73.8555 76.2559 73.698 77.2099 73.5207C78.164 73.3435 78.9638 72.3786 79.9179 72.221C80.8719 72.0635 81.8934 72.4278 82.8474 72.2801C83.8014 72.1324 84.7747 72.1915 85.7288 72.0536C86.6828 71.9158 87.6272 71.7681 88.5812 71.6401C89.5353 71.5121 90.4508 71.1281 91.4048 71.0198C92.3588 70.9115 93.3418 71.1084 94.3054 71.0099C95.2691 70.9115 96.2328 70.9903 97.1868 70.9016C98.1408 70.813 99.0949 70.7343 100.059 70.6555C101.022 70.5767 101.928 69.8481 102.892 69.7792C103.855 69.7103 104.838 70.1632 105.802 70.1041C106.766 70.045 107.72 70.0647 108.683 70.0155C109.647 69.9662 110.582 69.3558 111.545 69.3262C112.509 69.2967 113.473 69.3164 114.436 69.2967C115.4 69.277 116.364 69.7004 117.327 69.6906C118.291 69.6807 119.245 69.3361 120.209 69.3361C121.173 69.3361 122.146 69.1687 123.11 69.1786C124.073 69.1884 125.056 68.9816 126.02 69.0013C126.983 69.021 127.937 69.7693 128.901 69.7989C129.865 69.8284 130.857 69.277 131.821 69.3164C132.785 69.3558 133.758 69.5133 134.722 69.5626C135.685 69.6118 136.63 70.1238 137.593 70.1927C138.557 70.2616 139.569 69.7201 140.533 69.7989C141.496 69.8776 142.441 70.3109 143.395 70.4093C144.349 70.5078 145.322 70.6161 146.286 70.7146C147.249 70.813 148.155 71.4038 149.119 71.5121C150.083 71.6204 151.037 71.7287 151.991 71.8567C152.945 71.9847 154.005 71.4333 154.949 71.5712C155.894 71.709 156.78 72.4278 157.734 72.5755C158.688 72.7232 159.633 72.9595 160.577 73.1269C161.521 73.2943 162.514 73.2943 163.458 73.4715C164.403 73.6487 165.386 73.7275 166.33 73.9244C167.274 74.1213 168.267 74.141 169.211 74.338C170.156 74.5349 171.187 74.4069 172.122 74.6235C173.056 74.8401 174.03 75.0272 174.965 75.2537C175.899 75.4801 176.641 76.5829 177.566 76.8291C178.492 77.0752 179.465 77.2426 180.39 77.4986C181.315 77.7546 182.279 77.9515 183.194 78.2272C184.11 78.5029 185.006 78.9361 185.921 79.2315C186.837 79.5269 187.81 79.6943 188.716 79.9995C189.622 80.3048 190.74 80.0882 191.646 80.4131C192.552 80.738 193.438 81.1909 194.334 81.5257C195.231 81.8605 196.194 82.1263 197.081 82.4906C197.967 82.8549 198.921 83.17 199.798 83.5442C200.675 83.9183 201.562 84.3909 202.439 84.7946C203.316 85.1983 204.222 85.602 205.089 86.0254C205.956 86.4488 206.525 87.5319 207.373 87.975C208.221 88.418 209.213 88.6445 210.052 89.1171C210.89 89.5897 211.863 89.8851 212.683 90.3873C213.502 90.8894 214.302 91.5097 215.101 92.0316C215.901 92.5534 216.518 93.4298 217.299 93.9811C218.079 94.5325 219.39 94.4242 220.141 95.015C220.893 95.6058 221.481 96.5116 222.213 97.1319C222.946 97.7522 223.88 98.2248 224.574 98.8845C225.307 99.5738 225.837 100.48 226.502 101.179C227.167 101.878 227.986 102.547 228.612 103.286C229.238 104.024 229.846 104.881 230.414 105.669C230.983 106.456 231.04 107.658 231.551 108.494C232.062 109.331 232.553 110.188 232.987 111.074C233.421 111.96 233.816 112.856 234.153 113.782C234.49 114.707 234.972 115.594 235.204 116.558C235.435 117.523 235.502 118.518 235.628 119.502C235.753 120.487 235.753 121.462 235.753 122.466L235.724 122.447Z" fill="#00FFA3"/>
<path d="M226.804 102.494C225.965 102.494 225.125 102.198 224.464 101.586C222.627 99.9078 221.156 98.6737 219.675 97.5778C218.125 96.4325 216.447 95.3564 214.393 94.0827C212.636 92.9967 210.77 91.9403 208.845 90.9234C206.831 89.867 204.945 88.939 203.079 88.0899C201.213 87.2408 199.209 86.4016 197.136 85.5822C195.358 84.8812 194.48 82.877 195.181 81.0998C195.882 79.3227 197.906 78.444 199.663 79.145C201.845 80.004 203.958 80.8925 205.932 81.791C207.917 82.6894 209.921 83.6767 212.063 84.8022C214.127 85.8882 216.131 87.0236 218.027 88.1985C220.228 89.5609 222.055 90.726 223.792 92.0094C225.471 93.2534 227.12 94.6356 229.144 96.4819C230.555 97.7752 230.644 99.9571 229.351 101.369C228.67 102.109 227.732 102.494 226.804 102.494Z" fill="#D5D1DB"/>
<path d="M183.856 80.8234C183.541 80.8234 183.225 80.7839 182.899 80.6951C180.687 80.0632 178.416 79.4708 176.106 78.9081C173.865 78.3552 171.575 77.8517 169.245 77.3778C167.852 77.0915 166.45 76.8743 165.029 76.6571C164.12 76.5188 163.212 76.3806 162.304 76.2226L161.257 76.0449C159.312 75.7093 157.348 75.3637 155.353 75.0873C153.329 74.8009 151.276 74.5739 149.193 74.3468L148.344 74.2579C147.534 74.1691 146.714 74.0704 145.895 73.9716C144.384 73.784 142.854 73.5965 141.314 73.478L140.702 73.4286C138.579 73.2509 136.427 73.0831 134.265 72.9646C132.27 72.856 130.256 72.8066 128.232 72.7572L127.206 72.7276C126.357 72.7079 125.498 72.6783 124.639 72.6388C123.148 72.5795 121.637 72.5203 120.137 72.5203C118.231 72.5203 116.681 70.9703 116.681 69.0648C116.681 67.1593 118.231 65.6093 120.137 65.6093C121.736 65.6093 123.326 65.6685 124.905 65.7277C125.735 65.7573 126.564 65.787 127.393 65.8166L128.41 65.8462C130.503 65.8956 132.586 65.9548 134.64 66.0634C136.861 66.1819 139.073 66.3596 141.265 66.5373L141.877 66.5867C143.516 66.7249 145.125 66.9223 146.724 67.1099C147.514 67.2087 148.304 67.3074 149.094 67.3864L149.943 67.4851C152.085 67.7221 154.208 67.959 156.311 68.2552C158.374 68.5514 160.418 68.8969 162.432 69.2524L163.479 69.4301C164.348 69.5782 165.216 69.7164 166.085 69.8447C167.625 70.0817 169.156 70.3186 170.656 70.6346C173.065 71.1381 175.435 71.6515 177.755 72.2241C180.154 72.8165 182.504 73.4187 184.794 74.0802C186.631 74.6035 187.697 76.5188 187.174 78.3552C186.739 79.8756 185.357 80.8629 183.847 80.8629L183.856 80.8234Z" fill="#D5D1DB"/>
<path d="M14.6049 101.359C13.6374 101.359 12.6698 100.954 11.9886 100.164C10.7348 98.723 10.8927 96.5312 12.3342 95.2872C14.3384 93.5496 16.5993 91.9798 18.6035 90.6075C20.9335 88.9982 23.066 87.6456 25.1394 86.4608C27.1732 85.3057 29.4736 84.0025 31.9122 82.8276C33.7485 81.9489 35.6738 81.1689 37.5496 80.4087L38.9614 79.8361C41.558 78.7797 43.888 77.8911 46.0798 77.121C48.479 76.2818 50.9176 75.492 53.3167 74.7713C55.1432 74.2184 57.0783 75.2649 57.6213 77.0914C58.1643 78.9179 57.1276 80.853 55.3011 81.396C53.0008 82.0871 50.6707 82.8375 48.3703 83.6471C46.2872 84.3776 44.0559 85.2267 41.5778 86.2436L40.1462 86.8261C38.3 87.5765 36.5525 88.2775 34.9135 89.0673C32.6921 90.1336 30.5991 91.3282 28.5751 92.4734C26.6795 93.5496 24.7049 94.8035 22.5526 96.2943C20.6965 97.5679 18.6035 99.0192 16.8856 100.51C16.234 101.073 15.4244 101.359 14.6148 101.359H14.6049Z" fill="#D5D1DB"/>
<path d="M233.991 123C233.991 184.86 182.948 235 119.995 235C57.0428 235 6 184.86 6 123H234H233.991Z" fill="#00FFA3"/>
<g opacity="0.5">
<path d="M235.535 120.332C235.535 119.367 235.785 118.45 235.766 117.485C235.747 116.52 235.516 115.564 235.468 114.609C235.419 113.653 235.179 112.698 235.111 111.742C235.044 110.787 234.938 109.831 234.842 108.876C234.746 107.92 234.938 106.926 234.823 105.97C234.707 105.015 234.64 104.05 234.495 103.094C234.351 102.139 234.592 101.116 234.428 100.17C234.265 99.2239 233.466 98.3842 233.283 97.4384C233.1 96.4925 233.341 95.4501 233.129 94.5139C232.917 93.5777 232.859 92.5836 232.628 91.657C232.397 90.7305 231.435 89.9776 231.175 89.0511C230.915 88.1245 230.992 87.1014 230.713 86.1749C230.434 85.2483 229.789 84.4473 229.481 83.54C229.173 82.6327 228.894 81.7158 228.567 80.8086C228.24 79.9013 228.307 78.8493 227.951 77.9517C227.595 77.0541 226.969 76.2723 226.594 75.3843C226.219 74.4964 226.267 73.4154 225.872 72.5371C225.478 71.6588 224.544 71.0314 224.13 70.1628C223.717 69.2941 223.861 68.1359 223.428 67.2866C222.995 66.4373 222.35 65.6651 221.888 64.8254C221.426 63.9857 220.704 63.2812 220.223 62.4415C219.742 61.6018 219.771 60.4629 219.27 59.6425C218.77 58.8221 217.759 58.3106 217.24 57.4998C216.72 56.6891 216.508 55.6757 215.96 54.8746C215.411 54.0735 214.429 53.6006 213.862 52.8188C213.294 52.037 212.726 51.2649 212.148 50.5024C211.571 49.7399 211.504 48.5624 210.897 47.8096C210.291 47.0567 209.694 46.2943 209.078 45.5511C208.462 44.8079 207.596 44.2771 206.961 43.5532C206.326 42.8293 205.614 42.173 204.959 41.4684C204.305 40.7639 203.968 39.7408 203.304 39.0459C202.64 38.351 201.851 37.7622 201.167 37.0866C200.484 36.411 199.637 35.8898 198.935 35.2335C198.232 34.5772 197.174 34.3166 196.452 33.6699C195.73 33.0232 195.547 31.7685 194.806 31.1508C194.065 30.5331 193.218 30.0312 192.467 29.4328C191.717 28.8344 191.014 28.1588 190.244 27.5701C189.474 26.9813 188.425 26.7883 187.646 26.2285C186.866 25.6687 185.913 25.3598 185.124 24.8097C184.335 24.2595 183.671 23.526 182.863 23.0048C182.054 22.4836 181.101 22.2037 180.283 21.7019C179.465 21.2 178.897 20.2734 178.07 19.7908C177.242 19.3082 176.28 19.0476 175.433 18.5844C174.586 18.1211 173.97 17.2331 173.113 16.7892C172.257 16.3452 171.092 16.5382 170.226 16.1232C169.36 15.7082 168.465 15.38 167.589 14.9843C166.713 14.5886 165.886 14.106 165 13.7296C164.115 13.3532 163.191 13.1022 162.296 12.7451C161.401 12.388 160.602 11.7993 159.698 11.4711C158.793 11.1429 157.821 11.0368 156.907 10.7376C155.992 10.4384 155.29 9.50216 154.366 9.21261C153.442 8.92306 152.364 9.19331 151.44 8.93271C150.516 8.67212 149.563 8.54665 148.63 8.30536C147.696 8.06406 146.926 7.15681 145.993 6.94447C145.059 6.73214 144.058 6.76109 143.115 6.56806C142.172 6.37502 141.142 6.69353 140.19 6.5198C139.237 6.34607 138.409 5.50638 137.456 5.37125C136.504 5.23613 135.532 5.22648 134.579 5.11066C133.626 4.99484 132.664 4.90797 131.711 4.81146C130.758 4.71494 129.757 5.11066 128.795 5.0431C127.832 4.97553 126.908 4.51226 125.946 4.464C124.984 4.41574 124.021 4.55086 123.059 4.53156C122.096 4.51226 121.144 4.35783 120.181 4.35783C119.219 4.35783 118.218 3.98141 117.256 4.00072C116.293 4.02002 115.331 4.23236 114.368 4.28062C113.406 4.32887 112.424 4.2034 111.472 4.28062C110.519 4.35783 109.595 5.00449 108.642 5.09135C107.689 5.17822 106.737 5.3423 105.784 5.45812C104.831 5.57394 103.888 5.74767 102.935 5.89244C101.982 6.03722 100.972 5.81523 100.029 5.97931C99.0854 6.14338 98.1423 6.37502 97.1991 6.56806C96.2559 6.76109 95.2262 6.58736 94.2926 6.7997C93.3591 7.01203 92.4448 7.40775 91.5209 7.63939C90.597 7.87103 89.8175 8.71072 88.8936 8.97132C87.9697 9.23191 86.9784 9.26087 86.0545 9.54077C85.1306 9.82066 84.2548 10.2164 83.3405 10.5252C82.4262 10.8341 81.4542 10.9499 80.5495 11.2781C79.6449 11.6062 78.6055 11.5966 77.7104 11.944C76.8154 12.2915 76.0359 12.9478 75.1504 13.3242C74.265 13.7006 73.2641 13.8261 72.3884 14.2218C71.5126 14.6175 70.964 15.7178 70.0978 16.1328C69.2317 16.5479 68.2308 16.6926 67.3742 17.1366C66.5177 17.5806 65.4494 17.6192 64.6025 18.0825C63.7556 18.5458 63.0627 19.2793 62.2254 19.7619C61.3881 20.2444 60.7721 21.0841 59.9541 21.586C59.1361 22.0879 57.9812 22.059 57.1728 22.5898C56.3643 23.1206 55.9794 24.2788 55.1902 24.8193C54.401 25.3598 53.1307 25.2344 52.3511 25.8038C51.5716 26.3732 51.1 27.3577 50.3301 27.9368C49.5602 28.5159 48.5977 28.8441 47.8471 29.4521C47.0964 30.0602 46.2784 30.5814 45.5373 31.2087C44.7963 31.8361 44.2092 32.6275 43.4874 33.2645C42.7656 33.9015 41.986 34.4806 41.2835 35.1369C40.5809 35.7933 39.8495 36.4399 39.1662 37.1155C38.4829 37.7912 38.0979 38.7756 37.4339 39.4705C36.7698 40.1655 36.1731 40.9279 35.5187 41.6325C34.8643 42.3371 34.3638 43.1768 33.7286 43.9007C33.0934 44.6245 31.8134 44.7886 31.1879 45.5318C30.5623 46.275 30.2928 47.298 29.6962 48.0509C29.0995 48.8037 28.4932 49.5565 27.9061 50.319C27.319 51.0815 27.0784 52.1046 26.5202 52.8863C25.962 53.6681 24.9226 54.1121 24.3741 54.9132C23.8255 55.7143 23.787 56.8339 23.2673 57.6446C22.7476 58.4553 21.8141 59.0055 21.3136 59.8259C20.8132 60.6463 20.2935 61.4667 19.8123 62.2967C19.3311 63.1267 19.1482 64.1305 18.6863 64.9799C18.2243 65.8292 17.6854 66.6303 17.2427 67.4796C16.8 68.329 15.8953 68.966 15.4718 69.8346C15.0484 70.7033 15.0773 71.7843 14.6827 72.6626C14.2881 73.5409 13.855 74.3999 13.4797 75.2975C13.1043 76.1951 12.8926 77.1409 12.5461 78.0385C12.1997 78.9361 12.1516 79.9399 11.8147 80.8472C11.4779 81.7544 11.0544 82.6134 10.7464 83.5303C10.4385 84.4472 9.84179 85.258 9.55306 86.1845C9.26434 87.1111 8.6869 87.9411 8.41743 88.8677C8.14796 89.7943 7.78224 90.7015 7.55127 91.6377C7.32029 92.5739 7.97472 93.7225 7.75337 94.6587C7.53202 95.5949 6.80059 96.4153 6.60811 97.3708C6.41563 98.3263 6.31939 99.2818 6.15578 100.228C5.99217 101.174 5.55909 102.09 5.41473 103.046C5.27037 104.001 5.81894 105.044 5.69383 105.999C5.56872 106.955 4.67368 107.824 4.57744 108.789C4.4812 109.754 4.85654 110.748 4.78917 111.713C4.7218 112.678 4.84691 113.643 4.79879 114.609C4.75067 115.574 4.5197 116.52 4.50045 117.494C4.4812 118.469 4.12511 119.454 4.12511 120.429C4.12511 120.487 4.77955 120.332 4.77955 120.38C4.71218 121.124 4 121.896 4 122.648C4 123.623 4.74105 124.56 4.86616 125.525C4.99127 126.49 5.01052 127.445 5.2415 128.391C5.47248 129.337 6.0018 130.148 6.33864 131.074C6.67548 132.001 6.70435 132.995 7.13743 133.873C7.57051 134.752 8.25382 135.437 8.76389 136.286C9.27397 137.136 9.28359 138.255 9.86103 139.056C10.4385 139.857 11.5741 140.147 12.2189 140.9C12.8637 141.653 13.4412 142.357 14.1245 143.062C14.8078 143.766 15.0484 144.867 15.7702 145.542C16.492 146.218 17.1464 146.913 17.9067 147.54C18.667 148.167 19.5909 148.525 20.3801 149.123C21.1693 149.721 21.7467 150.532 22.5455 151.092C23.3443 151.652 24.5954 151.478 25.4231 152.009C26.2508 152.54 26.5876 153.785 27.4249 154.287C28.2622 154.789 29.3786 154.76 30.2351 155.242C31.0916 155.725 31.8038 156.381 32.6796 156.835C33.5554 157.288 34.2868 157.935 35.1722 158.36C36.0576 158.784 37.0778 158.842 37.9632 159.248C38.8486 159.653 39.811 159.807 40.7157 160.193C41.6203 160.579 42.5154 160.859 43.42 161.226C44.3247 161.593 45.008 162.452 45.9223 162.79C46.8365 163.128 47.6546 163.697 48.5689 164.015C49.4832 164.334 50.6092 163.996 51.5427 164.305C52.4762 164.614 53.3905 164.836 54.324 165.125C55.2576 165.415 56.143 165.753 57.0765 166.033C58.01 166.313 58.8473 166.872 59.7809 167.133C60.7144 167.394 61.7345 167.287 62.6777 167.529C63.6209 167.77 64.5159 168.117 65.4687 168.349C66.4214 168.581 67.2684 169.141 68.2115 169.363C69.1547 169.584 70.0497 170.019 71.0025 170.221C71.9553 170.424 72.9658 170.27 73.9186 170.453C74.8714 170.637 75.8049 170.887 76.7577 171.071C77.7104 171.254 78.6825 171.274 79.6449 171.438C80.6073 171.602 81.5504 171.775 82.5128 171.92C83.4752 172.065 84.3703 172.615 85.3327 172.75C86.2951 172.885 87.3633 172.113 88.3354 172.239C89.3074 172.364 90.2121 172.789 91.1745 172.895C92.1369 173.001 93.0415 173.648 94.0039 173.754C94.9663 173.86 95.9383 173.889 96.9104 173.976C97.8824 174.063 98.8448 174.121 99.8168 174.198C100.789 174.275 101.742 174.488 102.714 174.545C103.686 174.603 104.648 174.671 105.62 174.729C106.592 174.787 107.574 174.343 108.546 174.391C109.518 174.439 110.461 174.97 111.433 174.999C112.405 175.028 113.387 174.381 114.359 174.41C115.331 174.439 116.293 174.304 117.265 174.314C118.237 174.323 119.2 174.574 120.172 174.574C121.144 174.574 122.106 174.623 123.078 174.613C124.05 174.603 125.013 174.381 125.975 174.362C126.937 174.343 127.929 174.796 128.891 174.758C129.853 174.719 130.845 174.883 131.807 174.845C132.77 174.806 133.742 174.555 134.704 174.497C135.666 174.439 136.629 174.169 137.591 174.111C138.554 174.053 139.535 174.063 140.498 173.986C141.46 173.908 142.403 173.542 143.366 173.455C144.328 173.368 145.348 173.822 146.311 173.715C147.273 173.609 148.235 173.397 149.188 173.281C150.141 173.165 151.046 172.499 152.008 172.374C152.97 172.248 153.933 172.152 154.886 172.017C155.838 171.882 156.791 171.679 157.744 171.534C158.697 171.389 159.717 171.592 160.67 171.438C161.622 171.283 162.546 170.887 163.489 170.723C164.433 170.559 165.433 170.54 166.377 170.357C167.32 170.173 168.224 169.71 169.168 169.507C170.111 169.305 171.141 169.44 172.074 169.227C173.008 169.015 174.028 169.044 174.961 168.822C175.895 168.6 176.703 167.77 177.637 167.529C178.57 167.287 179.629 167.48 180.562 167.22C181.496 166.959 182.295 166.226 183.219 165.955C184.143 165.685 185.105 165.483 186.019 165.193C186.934 164.903 187.867 164.604 188.772 164.295C189.676 163.987 190.61 163.678 191.515 163.35C192.419 163.021 193.353 162.732 194.257 162.394C195.162 162.056 196.163 161.94 197.058 161.583C197.953 161.226 198.935 161.023 199.82 160.647C200.706 160.271 201.678 160 202.544 159.605C203.41 159.209 204.055 158.234 204.921 157.819C205.787 157.404 206.711 157.057 207.567 156.613C208.424 156.169 209.531 156.14 210.368 155.676C211.205 155.213 211.889 154.402 212.707 153.91C213.525 153.418 214.391 152.916 215.19 152.395C215.988 151.874 216.932 151.478 217.711 150.928C218.491 150.378 219.02 149.413 219.78 148.833C220.541 148.254 221.397 147.743 222.129 147.135C222.86 146.527 223.707 145.977 224.41 145.33C225.112 144.683 225.901 144.056 226.565 143.371C227.229 142.685 227.759 141.807 228.375 141.083C228.991 140.359 229.452 139.452 230.011 138.68C230.569 137.908 230.954 136.991 231.454 136.18C231.955 135.369 232.648 134.636 233.062 133.777C233.475 132.918 234.313 132.184 234.64 131.287C234.967 130.389 235.294 129.414 235.516 128.478C235.737 127.542 235.14 126.442 235.256 125.486C235.371 124.531 235.939 123.614 235.939 122.639C235.939 121.886 236.045 121.046 235.978 120.303C235.939 120.207 235.554 120.409 235.564 120.342L235.535 120.332Z" fill="white"/>
</g>
<path d="M238.859 122.606C238.859 122.517 238.859 122.428 238.859 122.339C238.839 121.579 238.819 120.809 238.819 120.039V118.163C238.849 116.534 238.868 114.836 238.77 113.137C238.681 111.627 238.385 110.245 238.098 108.902C237.911 108.043 237.723 107.184 237.624 106.325C237.536 105.516 237.536 104.617 237.536 103.679C237.536 102.317 237.545 100.905 237.289 99.4141C237.012 97.8542 236.617 96.3535 236.242 94.9121C236.045 94.1716 235.857 93.4311 235.679 92.7005C235.492 91.9107 235.334 91.1209 235.176 90.331C234.89 88.9093 234.593 87.4383 234.159 85.9573C233.606 84.121 232.955 82.3537 232.323 80.6358L231.474 78.3058C230.842 76.5583 230.19 74.7515 229.43 72.9744C228.61 71.0788 227.682 69.2326 226.784 67.4555L226.429 66.7446C225.737 65.3821 224.849 64.1974 224.059 63.1607C223.486 62.4104 222.953 61.6995 222.548 61.0084C222.114 60.2482 221.739 59.4485 221.354 58.6587C220.771 57.4246 220.169 56.151 219.34 54.8971C218.481 53.5939 217.543 52.4091 216.635 51.2639C216.141 50.6419 215.647 50.0297 215.183 49.3979C214.66 48.6969 214.196 47.9367 213.722 47.1863C213.001 46.0213 212.261 44.8267 211.293 43.6814C210.306 42.5066 209.25 41.46 208.223 40.453C207.64 39.8804 207.058 39.3077 206.495 38.7055C205.952 38.123 205.419 37.5306 204.886 36.9284C203.918 35.8423 202.921 34.7168 201.796 33.6506C200.69 32.604 199.525 31.6957 198.399 30.8269C197.738 30.3135 197.086 29.81 196.444 29.2768C195.299 28.3192 194.105 27.559 192.959 26.8382C192.219 26.3643 191.469 25.9003 190.768 25.377L189.889 24.7254C188.388 23.5999 186.838 22.4349 185.199 21.3588C183.787 20.4307 182.346 19.6211 180.954 18.8313C180.391 18.5154 179.838 18.1994 179.275 17.8835C178.614 17.4984 177.923 16.9456 177.192 16.3532C176.165 15.5239 175.01 14.5859 173.608 13.885C172.266 13.2136 170.933 12.7693 169.63 12.3349C168.79 12.0486 167.941 11.7722 167.142 11.4266C165.671 10.7947 164.19 10.2813 162.758 9.79757C162.067 9.56062 161.376 9.32367 160.685 9.07684C159.016 8.46472 157.338 7.98095 155.719 7.50705L154.129 7.03315C153.3 6.78633 152.48 6.47039 151.671 6.15446C150.387 5.66081 149.064 5.15729 147.603 4.81174C145.658 4.35759 143.693 4.01203 141.788 3.68623L140.83 3.51839C139.339 3.25182 137.878 3.15309 136.466 3.04449C135.637 2.98525 134.808 2.92601 133.978 2.82728C131.5 2.54097 129.259 2.34351 127.137 2.22503C126.337 2.17567 125.468 2.0177 124.55 1.85974C123.266 1.63266 121.805 1.36609 120.275 1.36609C118.014 1.36609 115.694 1.4352 113.374 1.56355C111.863 1.6524 110.481 1.93872 109.138 2.22503C108.279 2.40275 107.41 2.59033 106.551 2.68906C105.693 2.78779 104.824 2.83715 103.965 2.88652C102.583 2.9655 101.161 3.04449 99.6898 3.30118C98.1891 3.56775 96.8563 4.02191 95.5728 4.47606C94.6941 4.78212 93.8549 5.06844 93.0651 5.25602C92.2654 5.44361 91.3867 5.55221 90.4487 5.67068C89.106 5.83852 87.7041 6.01624 86.2626 6.45065C84.7915 6.89493 83.4192 7.44781 82.0962 7.99082C81.336 8.29688 80.5857 8.61282 79.8156 8.88926C78.3149 9.44214 76.9031 10.0839 75.5406 10.7059C74.8594 11.0119 74.188 11.3279 73.5068 11.6241C72.7663 11.9499 71.9074 12.2066 70.9991 12.4731C69.6958 12.868 68.3433 13.2728 66.9907 13.9541C65.6381 14.6353 64.4928 15.4646 63.3871 16.2643C62.6268 16.8172 61.9061 17.3306 61.2051 17.7453C60.4449 18.1797 59.6551 18.5647 58.8554 18.9399C57.6213 19.5323 56.3477 20.1345 55.0938 20.9638C53.8103 21.8129 52.6552 22.741 51.5395 23.6394C50.9077 24.1528 50.2659 24.6662 49.6143 25.15C48.9133 25.6732 48.1729 26.1471 47.4423 26.6112C46.2871 27.3516 45.0826 28.1217 43.9374 29.0893C42.4861 30.3036 40.5905 31.9327 38.7541 33.6604C37.6582 34.6872 36.7302 35.793 35.8317 36.8593C35.2788 37.5207 34.7161 38.1724 34.1336 38.7943C33.5511 39.4163 32.9192 40.0087 32.2972 40.6011C31.2902 41.5588 30.2436 42.5559 29.2761 43.7012C28.2888 44.8761 27.5681 46.1694 26.9362 47.3147C26.4821 48.144 26.0476 48.924 25.5639 49.5657C25.1492 50.1186 24.7247 50.6715 24.3001 51.2244C23.3523 52.4486 22.3749 53.7222 21.4765 55.0847C20.9927 55.8153 20.4596 56.5064 19.9166 57.2074C19.0774 58.2934 18.2184 59.409 17.4582 60.7122C16.698 62.0253 16.2043 63.3483 15.7304 64.6219C15.4046 65.5105 15.0887 66.3398 14.7234 67.0704C14.3384 67.8405 13.9039 68.581 13.4695 69.3214C12.7686 70.5161 12.0478 71.7502 11.4357 73.1817C10.5472 75.2254 9.63885 77.3481 8.84901 79.5202C8.5627 80.3001 8.24676 81.0603 7.93083 81.8304C7.38782 83.1534 6.82506 84.5159 6.38078 85.9869C5.78841 87.9516 5.23552 90.0842 4.6234 92.6709C4.24823 94.2604 4.00141 95.85 3.75458 97.3902C3.64598 98.0911 3.53738 98.7822 3.4189 99.4734C3.14246 101.073 2.98449 102.652 2.8364 104.193C2.76729 104.903 2.69818 105.624 2.6192 106.335C2.53034 107.135 2.41186 107.925 2.28352 108.724C2.06631 110.156 1.83924 111.637 1.75038 113.187C1.66152 114.697 1.82936 116.089 1.9972 117.442C2.1058 118.39 2.21441 119.278 2.21441 120.098C2.21441 120.809 2.22428 121.549 2.24403 122.3C2.27364 123.702 2.34275 125.202 2.44148 126.96L2.50072 128.095C2.59945 129.961 2.70805 131.876 2.93513 133.811C3.03386 134.68 3.08322 135.549 3.12272 136.418C3.15233 137.069 3.19183 137.731 3.25106 138.402C3.3103 139.153 3.39916 139.913 3.52751 140.683L3.567 140.92C3.94217 143.062 4.32721 145.274 4.8406 147.456L5.15654 148.818C5.56133 150.566 5.97599 152.372 6.50913 154.16C7.09163 156.114 7.80248 158.425 8.64168 160.725C9.22418 162.315 9.89554 163.835 10.557 165.306C10.8236 165.898 11.0902 166.491 11.3469 167.083C11.9787 168.554 12.7192 169.946 13.43 171.279C13.7756 171.931 14.1212 172.582 14.4568 173.244C15.4441 175.199 16.5104 177.183 17.7445 179.306C18.6232 180.826 19.5809 182.258 20.5188 183.65L21.4864 185.091C22.7205 186.967 24.0533 188.754 25.3368 190.482L25.4948 190.689C26.7486 192.358 28.0716 193.947 29.3551 195.468L29.8191 196.021C30.3128 196.603 30.7867 197.205 31.2606 197.798C32.1886 198.953 33.1364 200.157 34.2224 201.303C35.2591 202.399 36.355 203.337 37.4114 204.235C38.0531 204.788 38.7047 205.331 39.3267 205.923C40.9558 207.463 42.6342 208.954 44.4607 210.485C45.0826 211.008 45.6948 211.65 46.3464 212.331C47.2843 213.318 48.2617 214.335 49.4761 215.243C50.0191 215.648 50.5522 216.063 51.0953 216.477C52.3491 217.445 53.6425 218.432 55.0247 219.35C56.9499 220.624 58.9442 221.779 60.9386 222.934C62.2319 223.685 63.545 224.208 64.8088 224.721C65.6282 225.047 66.4575 225.383 67.2474 225.778C69.1331 226.725 71.1669 227.673 73.4871 228.67C74.2868 229.016 75.0667 229.431 75.8368 229.845C77.0512 230.487 78.2952 231.149 79.707 231.662C81.3854 232.274 83.0934 232.768 84.7422 233.252L87.8028 234.17C89.4614 234.673 91.1695 235.196 92.9367 235.621C94.3979 235.967 95.7999 236.075 97.1525 236.184C98.041 236.253 98.9197 236.322 99.7984 236.47C100.44 236.579 101.082 236.707 101.724 236.826C103.284 237.122 104.903 237.428 106.581 237.615C108.664 237.852 110.747 237.971 112.771 238.089L113.917 238.158C116.77 238.316 119.781 238.356 122.763 238.455C123.632 238.484 124.51 238.514 125.409 238.514C126.001 238.514 126.603 238.504 127.216 238.464C129.22 238.356 131.342 238.158 134.087 237.842C136.091 237.605 138.263 237.29 140.899 236.826C143.062 236.45 145.362 236.036 147.662 235.493C149.133 235.147 150.447 234.624 151.72 234.13C152.54 233.804 153.349 233.488 154.257 233.212C156.38 232.58 158.562 231.919 160.724 231.139C162.462 230.507 164.121 229.776 165.73 229.075L167.063 228.493C167.862 228.147 168.682 227.861 169.501 227.565C170.795 227.111 172.127 226.627 173.47 225.955C175.346 225.008 177.33 223.931 179.522 222.668L180.055 222.362C181.823 221.345 183.659 220.288 185.426 219.113C187.016 218.067 188.526 216.932 189.988 215.836L191.004 215.075C191.705 214.552 192.446 214.078 193.177 213.604C194.332 212.864 195.536 212.094 196.681 211.126C197.856 210.139 198.794 208.984 199.614 207.967C200.206 207.226 200.769 206.535 201.341 205.992C201.934 205.43 202.645 204.887 203.385 204.324C204.461 203.495 205.577 202.636 206.614 201.54C207.65 200.444 208.45 199.289 209.24 198.173C209.743 197.452 210.247 196.722 210.819 196.05C211.382 195.379 212.014 194.767 212.646 194.145C213.613 193.187 214.621 192.2 215.519 190.995C216.417 189.791 217.118 188.557 217.79 187.362C218.224 186.602 218.649 185.842 219.132 185.111C219.577 184.44 220.041 183.788 220.495 183.127C221.324 181.942 222.193 180.728 222.963 179.385C223.713 178.091 224.276 176.778 224.819 175.515C225.155 174.715 225.5 173.915 225.886 173.145C226.952 171.022 227.909 168.989 228.798 166.915C229.134 166.135 229.509 165.375 229.884 164.615C230.506 163.361 231.138 162.068 231.661 160.646C232.234 159.056 232.698 157.457 233.132 155.917C233.31 155.295 233.488 154.683 233.665 154.071C233.902 153.281 234.179 152.491 234.445 151.711C234.909 150.368 235.393 148.986 235.749 147.495L236.005 146.429C236.44 144.593 236.894 142.697 237.239 140.752C237.259 140.643 237.269 140.545 237.279 140.446C237.486 139.093 237.536 137.78 237.565 136.517C237.585 135.628 237.605 134.739 237.713 133.861C237.802 133.051 238 132.192 238.207 131.274C238.503 129.941 238.809 128.559 238.898 127.039C238.987 125.558 238.957 124.106 238.918 122.694L238.859 122.606ZM8.4146 113.523C8.48371 112.288 8.68117 111.015 8.87863 109.682C9.00698 108.813 9.1452 107.934 9.24393 107.066C9.33279 106.315 9.4019 105.555 9.48088 104.805C9.6191 103.334 9.75732 101.942 9.99427 100.599C10.1226 99.8683 10.2411 99.1377 10.3497 98.4071C10.5866 96.9261 10.8039 95.5242 11.1198 94.1815C11.7023 91.7231 12.2256 89.7189 12.7784 87.8727C13.124 86.7274 13.5979 85.5624 14.1014 84.348C14.4568 83.499 14.8024 82.64 15.1183 81.7811C15.8489 79.7867 16.7177 77.7628 17.5767 75.7586C18.0111 74.7515 18.6035 73.7346 19.2255 72.6684C19.729 71.7995 20.2325 70.9406 20.6867 70.0422C21.2198 68.9858 21.6147 67.9294 21.9899 66.9124C22.3848 65.8462 22.76 64.849 23.2339 64.0296C23.767 63.1212 24.4581 62.2129 25.1887 61.2651C25.8304 60.4358 26.4623 59.6065 27.0349 58.7377C27.805 57.5727 28.664 56.457 29.5723 55.2821C30.0166 54.6996 30.4707 54.1171 30.9051 53.5346C31.6456 52.5375 32.2182 51.5205 32.7612 50.5333C33.2944 49.5756 33.7979 48.6673 34.3705 47.986C35.1011 47.1172 35.9601 46.2978 36.8782 45.429C37.5891 44.7477 38.2999 44.0764 38.9713 43.3655C39.6427 42.6547 40.2745 41.9043 40.9163 41.154C41.7357 40.1864 42.5058 39.2781 43.3253 38.4982C45.0333 36.8889 46.84 35.3487 48.2222 34.1837C49.0417 33.5025 50.0092 32.8805 51.036 32.219C51.9048 31.6562 52.7737 31.1033 53.603 30.4813C54.3237 29.9482 55.0247 29.3756 55.7257 28.8128C56.7623 27.9736 57.7496 27.1838 58.7566 26.5124C59.6255 25.9398 60.6424 25.456 61.7185 24.9426C62.6663 24.4885 63.624 24.0343 64.5323 23.5012C65.5393 22.9187 66.4279 22.2769 67.2868 21.655C68.2248 20.9836 69.1035 20.3419 69.9723 19.9074C70.8016 19.4928 71.8185 19.1867 72.8947 18.8609C73.9412 18.545 75.0272 18.2192 76.133 17.7453C76.8636 17.4293 77.5843 17.1035 78.305 16.7679C79.6083 16.1755 80.8325 15.6127 82.0765 15.1586C82.9256 14.8525 83.7648 14.507 84.5941 14.1713C85.8282 13.6678 86.9932 13.1939 88.1582 12.8483C89.0665 12.5817 90.1328 12.4435 91.2583 12.3053C92.3246 12.1769 93.4402 12.0288 94.5855 11.7623C95.711 11.4957 96.7477 11.1403 97.7448 10.7947C98.8309 10.4196 99.8576 10.0641 100.825 9.8963C101.901 9.70871 103.076 9.6396 104.32 9.57049C105.317 9.51125 106.315 9.45201 107.312 9.34341C108.378 9.21507 109.444 8.99786 110.511 8.78066C111.656 8.53383 112.742 8.30676 113.749 8.24752C115.941 8.11917 118.132 8.05993 120.265 8.05993C121.203 8.05993 122.249 8.24752 123.365 8.44498C124.441 8.63256 125.547 8.83989 126.751 8.89913C128.746 9.01761 130.859 9.20519 133.208 9.47176C134.136 9.58036 135.055 9.64947 135.983 9.71858C137.286 9.81731 138.51 9.90617 139.675 10.1135L140.643 10.2813C142.528 10.6071 144.306 10.9132 146.053 11.3279C147.08 11.5747 148.136 11.9795 149.262 12.404C150.229 12.7792 151.207 13.1445 152.194 13.4407L153.833 13.9245C155.422 14.3885 156.923 14.8229 158.384 15.356C159.115 15.6226 159.855 15.8793 160.586 16.1261C161.958 16.5901 163.252 17.0344 164.486 17.5676C165.473 17.9921 166.49 18.3376 167.507 18.6832C168.623 19.0584 169.689 19.4138 170.587 19.868C171.347 20.253 172.137 20.8849 172.977 21.5661C173.835 22.2572 174.803 23.047 175.909 23.6888C176.491 24.0245 177.074 24.3503 177.656 24.6859C179.009 25.4462 180.292 26.1669 181.507 26.9666C182.978 27.9341 184.38 28.9905 185.871 30.1062L186.759 30.7677C187.598 31.3897 188.487 31.9524 189.375 32.5152C190.382 33.1569 191.34 33.7592 192.14 34.4305C192.841 35.0229 193.562 35.5857 194.292 36.1484C195.339 36.958 196.326 37.7281 197.195 38.5475C198.103 39.4065 198.962 40.374 199.88 41.4008C200.463 42.0524 201.035 42.704 201.628 43.3359C202.24 43.9875 202.882 44.6194 203.523 45.2512C204.481 46.199 205.379 47.0876 206.169 48.0157C206.821 48.7956 207.413 49.7434 208.035 50.7505C208.598 51.6686 209.171 52.577 209.812 53.4359C210.326 54.1171 210.849 54.7885 211.382 55.4599C212.231 56.536 213.041 57.5628 213.742 58.6192C214.305 59.4781 214.788 60.4852 215.292 61.5613C215.746 62.519 216.21 63.4865 216.743 64.4047C217.355 65.4611 218.046 66.3694 218.708 67.2481C219.379 68.1367 220.021 68.9759 220.436 69.7855L220.791 70.5062C221.64 72.1945 222.529 73.9518 223.269 75.6599C223.95 77.2395 224.533 78.8686 225.165 80.6062L226.034 82.9856C226.626 84.6047 227.248 86.2831 227.742 87.9122C228.097 89.087 228.344 90.3409 228.61 91.6737C228.778 92.5426 228.956 93.4114 229.163 94.2703C229.351 95.0602 229.558 95.8599 229.766 96.6596C230.131 98.0319 230.467 99.3253 230.694 100.619C230.852 101.517 230.852 102.573 230.842 103.689C230.842 104.795 230.832 105.93 230.97 107.145C231.098 108.27 231.326 109.336 231.553 110.363C231.799 111.499 232.027 112.575 232.086 113.572C232.165 115.043 232.155 116.554 232.135 118.143V120.088C232.125 120.907 232.135 121.727 232.165 122.546C232.194 123.968 232.234 125.311 232.165 126.614C232.105 127.591 231.869 128.648 231.622 129.773C231.385 130.82 231.148 131.896 231.019 133.051C230.891 134.127 230.861 135.213 230.832 136.309C230.822 136.704 230.802 137.079 230.792 137.455C230.091 138.195 229.321 138.876 228.808 139.478C228.196 140.199 227.238 140.91 226.221 141.65C225.372 142.272 224.513 142.914 223.635 143.694C222.055 145.096 220.416 146.547 218.629 147.821C216.704 149.193 214.867 150.388 213.031 151.484C212.162 151.997 211.313 152.58 210.454 153.172C209.378 153.923 208.371 154.624 207.315 155.147C206.327 155.64 205.182 156.055 203.978 156.49C202.97 156.855 201.963 157.22 200.966 157.645C200.275 157.941 199.584 158.257 198.883 158.573C197.511 159.185 196.099 159.827 194.697 160.35C193.305 160.873 191.854 161.317 190.392 161.762C189.662 161.989 188.931 162.216 188.191 162.453C187.164 162.779 186.038 163.016 184.834 163.252C183.728 163.48 182.613 163.707 181.507 164.013C180.658 164.25 179.809 164.506 178.95 164.763C177.617 165.158 176.284 165.563 174.902 165.898C173.618 166.204 172.315 166.432 170.992 166.659C170.044 166.826 169.096 166.994 168.149 167.182C166.924 167.429 165.779 167.794 164.673 168.14C163.558 168.495 162.501 168.831 161.484 168.999L160.477 169.166C158.562 169.492 156.637 169.828 154.672 170.094L154.09 170.173C152.026 170.46 149.933 170.746 147.82 170.973C146.744 171.092 145.599 171.101 144.394 171.111C143.229 171.121 142.074 171.141 140.909 171.23L139.527 171.338C137.71 171.486 135.874 171.635 134.018 171.733C132.952 171.793 131.806 171.733 130.602 171.684C129.447 171.635 128.272 171.585 127.097 171.615C126.12 171.644 125.132 171.694 124.145 171.743C121.519 171.881 118.824 171.881 116.424 172.168C115.289 172.296 114.213 172.385 113.265 172.405C112.031 172.375 110.797 172.247 109.563 172.128C108.487 172.029 107.42 171.921 106.364 171.872C105.535 171.832 104.705 171.793 103.876 171.763C102.395 171.704 100.914 171.635 99.4528 171.526C98.1694 171.427 96.8958 171.24 95.632 171.062C94.6151 170.914 93.5982 170.776 92.5912 170.667C91.4854 170.549 90.35 170.312 89.1554 170.055C88.0299 169.818 86.9142 169.591 85.7887 169.433C84.683 169.285 83.5871 169.186 82.4912 169.097C81.2373 168.989 80.0526 168.89 78.9369 168.702C77.7522 168.505 76.5674 168.209 75.3135 167.883C74.2868 167.626 73.2501 167.369 72.2233 167.152C70.8609 166.876 69.528 166.807 68.3433 166.747C67.2375 166.698 66.2008 166.639 65.332 166.432C64.167 166.155 63.0119 165.77 61.7876 165.355C60.7707 165.02 59.7637 164.684 58.7566 164.398C57.6904 164.102 56.6142 163.657 55.4887 163.183C54.4422 162.749 53.3956 162.315 52.3294 161.979C51.3223 161.653 50.3252 161.386 49.3181 161.11C48.0544 160.764 46.8696 160.439 45.7738 160.034C44.7272 159.649 43.6708 159.323 42.6144 159.007C41.4099 158.652 40.2745 158.306 39.2774 157.882C38.3197 157.467 37.362 156.845 36.355 156.193C35.4269 155.591 34.4594 154.969 33.3931 154.426C32.2084 153.834 31.0039 153.419 29.9376 153.044C28.8614 152.669 27.8445 152.323 27.0843 151.869C26.2451 151.375 25.4257 150.605 24.5667 149.786C23.7571 149.016 22.9179 148.226 21.9306 147.515C21.0914 146.923 20.2325 146.389 19.3834 145.866C18.2777 145.185 17.2213 144.533 16.4215 143.823C15.2664 142.796 14.2791 141.591 13.2326 140.318C12.8574 139.854 12.4822 139.399 12.1071 138.955C11.3074 138.017 10.5669 137 9.79681 135.806C9.74745 134.878 9.68821 133.94 9.58948 133.012C9.39202 131.284 9.29329 129.546 9.19456 127.7L9.13533 126.545C8.98723 123.968 8.91812 121.974 8.91812 120.068C8.91812 118.854 8.7799 117.719 8.65155 116.623C8.52321 115.517 8.39486 114.47 8.44422 113.552L8.4146 113.523ZM228.058 149.42C227.752 150.299 227.445 151.178 227.179 152.066C226.991 152.708 226.804 153.35 226.616 153.992C226.182 155.492 225.777 156.914 225.283 158.277C224.888 159.353 224.355 160.429 223.792 161.574C223.368 162.433 222.943 163.302 222.558 164.181C221.719 166.125 220.821 168.041 219.814 170.045C219.36 170.943 218.965 171.872 218.57 172.79C218.086 173.925 217.622 174.991 217.079 175.939C216.457 177.015 215.716 178.062 214.936 179.168C214.433 179.888 213.929 180.599 213.446 181.33C212.883 182.179 212.37 183.077 211.866 183.966C211.264 185.032 210.701 186.029 210.049 186.898C209.457 187.698 208.667 188.468 207.848 189.287C207.097 190.028 206.327 190.788 205.597 191.657C204.906 192.476 204.284 193.365 203.662 194.244C202.99 195.211 202.348 196.119 201.657 196.85C200.986 197.561 200.127 198.212 199.219 198.913C198.37 199.565 197.501 200.236 196.652 201.036C195.743 201.885 195.013 202.794 194.312 203.672C193.621 204.531 192.969 205.341 192.288 205.903C191.469 206.595 190.501 207.217 189.474 207.868C188.605 208.421 187.737 208.984 186.917 209.596L185.88 210.376C184.439 211.462 183.077 212.479 181.655 213.417C180.046 214.473 178.387 215.441 176.62 216.458L176.087 216.764C174.013 217.968 172.147 218.975 170.38 219.864C169.412 220.348 168.326 220.733 167.181 221.147C166.223 221.493 165.266 221.829 164.328 222.233L162.965 222.826C161.386 223.517 159.895 224.168 158.355 224.731C156.38 225.452 154.376 226.054 152.184 226.706C151.167 227.012 150.18 227.397 149.183 227.782C148.087 228.216 147.04 228.621 146.043 228.858C143.921 229.362 141.729 229.756 139.665 230.112C137.148 230.546 135.104 230.852 133.228 231.07C130.622 231.376 128.627 231.553 126.751 231.662C125.537 231.731 124.264 231.692 122.911 231.642C120.038 231.543 117.224 231.524 114.223 231.356L113.077 231.287C111.063 231.178 109.168 231.06 107.282 230.843C105.841 230.675 104.409 230.408 102.889 230.122C102.217 229.993 101.546 229.865 100.884 229.756C99.7589 229.559 98.6729 229.47 97.6165 229.391C96.4613 229.302 95.3655 229.213 94.4078 228.986C92.8577 228.621 91.3176 228.147 89.6984 227.654L86.5489 226.716C84.9298 226.242 83.4093 225.797 81.9284 225.264C80.951 224.909 79.9538 224.376 78.9073 223.823C77.9694 223.329 77.0314 222.836 76.0639 222.421C73.8721 221.473 71.9469 220.585 70.1796 219.696C69.2219 219.212 68.2347 218.807 67.2375 218.413C66.1416 217.968 65.1049 217.554 64.1769 217.011C62.3306 215.934 60.4153 214.829 58.648 213.664C57.4633 212.884 56.318 212.005 55.1135 211.067C54.5508 210.633 53.988 210.198 53.4154 209.774C52.6552 209.211 51.9147 208.431 51.1249 207.612C50.3745 206.832 49.6044 206.022 48.6961 205.262C46.9782 203.82 45.3887 202.408 43.8584 200.967C43.1574 200.306 42.4268 199.684 41.6962 199.052C40.7287 198.232 39.8204 197.452 39.0305 196.623C38.142 195.675 37.3127 194.638 36.434 193.543C35.9206 192.901 35.4072 192.259 34.8839 191.627L34.41 191.064C33.1265 189.544 31.922 188.103 30.7867 186.592L30.6386 186.385C29.3551 184.657 28.1407 183.028 27.0053 181.31L26.018 179.819C25.1097 178.467 24.2508 177.183 23.4807 175.85C22.3256 173.846 21.3086 171.98 20.3806 170.144C20.0252 169.443 19.6599 168.752 19.2946 168.051C18.6133 166.777 17.9815 165.563 17.4483 164.338C17.1818 163.716 16.9053 163.104 16.6289 162.482C15.9871 161.061 15.3948 159.708 14.8912 158.346C14.1113 156.203 13.43 154.011 12.8772 152.155C12.5909 151.198 12.344 150.21 12.0972 149.213C13.2523 150.181 14.4865 150.961 15.6811 151.701C16.4018 152.145 17.1324 152.6 17.8432 153.103C18.4455 153.528 19.0774 154.13 19.7388 154.762C20.7953 155.759 21.98 156.884 23.4906 157.773C24.853 158.583 26.255 159.066 27.6076 159.53C28.5554 159.856 29.4439 160.162 30.214 160.557C30.9347 160.922 31.695 161.416 32.5045 161.939C33.6597 162.69 34.9629 163.539 36.4636 164.181C37.8359 164.773 39.2181 165.188 40.551 165.582C41.4593 165.859 42.3775 166.125 43.2858 166.461C44.6779 166.975 46.0699 167.36 47.4324 167.725C48.3308 167.972 49.2391 168.219 50.1376 168.505C51.0163 168.791 51.8851 169.156 52.7638 169.512C54.0374 170.045 55.3604 170.588 56.8314 170.993C57.7299 171.24 58.6184 171.536 59.507 171.842C60.83 172.286 62.1924 172.74 63.6536 173.086C65.1346 173.441 66.5464 173.51 67.9089 173.58C68.9356 173.629 69.9131 173.678 70.772 173.856C71.7001 174.044 72.6182 174.281 73.5364 174.508C74.8693 174.843 76.2416 175.189 77.7028 175.436C79.1047 175.673 80.487 175.791 81.8297 175.91C82.8071 175.989 83.7944 176.077 84.7718 176.206C85.7295 176.334 86.6872 176.541 87.6547 176.749C88.9678 177.025 90.3204 177.312 91.7717 177.469C92.7096 177.568 93.6377 177.706 94.5855 177.835C95.9874 178.032 97.4091 178.23 98.8309 178.348C100.381 178.477 101.941 178.536 103.511 178.605C104.31 178.634 105.12 178.674 105.92 178.713C106.887 178.763 107.855 178.862 108.822 178.95C110.214 179.079 111.606 179.217 113.008 179.247C113.156 179.247 113.305 179.247 113.443 179.247C114.746 179.247 115.97 179.099 117.165 178.96C119.86 178.644 122.091 178.694 124.431 178.575C125.359 178.526 126.287 178.477 127.206 178.457C128.213 178.427 129.22 178.477 130.217 178.526C131.53 178.585 132.892 178.654 134.314 178.575C136.23 178.477 138.135 178.319 140.021 178.161L141.393 178.052C142.4 177.973 143.397 177.963 144.394 177.953C145.717 177.943 147.09 177.924 148.492 177.776C150.674 177.539 152.836 177.242 154.968 176.946L155.551 176.867C157.585 176.581 159.589 176.245 161.573 175.91L162.57 175.742C164.061 175.485 165.404 175.06 166.707 174.646C167.675 174.34 168.593 174.044 169.452 173.876C170.35 173.698 171.239 173.54 172.127 173.382C173.579 173.125 175.02 172.869 176.432 172.533C177.943 172.178 179.404 171.733 180.865 171.299C181.675 171.052 182.474 170.815 183.284 170.588C184.232 170.321 185.189 170.134 186.137 169.936C187.47 169.66 188.842 169.384 190.225 168.939C190.935 168.712 191.646 168.495 192.347 168.278C193.937 167.784 195.507 167.3 197.027 166.738C198.656 166.135 200.176 165.444 201.638 164.793C202.299 164.496 202.961 164.2 203.622 163.914C204.491 163.539 205.37 163.223 206.248 162.907C207.591 162.423 208.983 161.92 210.346 161.238C211.836 160.488 213.1 159.609 214.324 158.76C215.045 158.267 215.746 157.773 216.477 157.339C218.491 156.144 220.485 154.851 222.568 153.36C224.661 151.869 226.438 150.299 228.235 148.7C228.235 148.7 228.245 148.69 228.255 148.68C228.176 148.907 228.107 149.134 228.018 149.371L228.058 149.42Z" fill="#463E53"/>
<path d="M164.634 70.1804C165.216 71.0196 165.641 71.9378 166.145 72.8066C166.648 73.6754 167.201 74.5344 167.635 75.4427C168.07 76.351 168.356 77.3185 168.721 78.2663C169.087 79.2141 169.274 80.1915 169.561 81.169C169.847 82.1464 170.597 82.9856 170.814 83.9827C171.032 84.9799 170.745 86.0363 170.884 87.0532C171.022 88.0701 171.506 89.0081 171.575 90.0348C171.644 91.0616 171.723 92.0588 171.723 93.0757C171.723 94.0926 171.377 95.1688 171.308 96.1857C171.239 97.2026 171.12 98.2689 170.982 99.2759C170.844 100.283 170.814 101.379 170.597 102.366C170.38 103.353 169.817 104.321 169.511 105.298C169.205 106.276 168.939 107.303 168.534 108.241C168.129 109.178 167.922 110.264 167.408 111.163C166.954 111.972 166.154 112.555 165.661 113.315C165.167 114.075 164.673 114.855 164.121 115.586C163.568 116.317 163.035 117.057 162.442 117.748C161.85 118.439 161.475 119.367 160.833 120.009C160.191 120.651 159.401 121.184 158.71 121.776C158.019 122.369 157.318 123.001 156.578 123.544C155.294 124.432 155.097 124.136 153.813 125.015C152.53 125.893 152.54 125.913 151.256 126.792C149.973 127.67 149.923 127.601 148.63 128.47C147.623 129.151 146.734 129.833 145.885 130.405C144.829 131.116 144.069 131.985 143.269 132.538C142.055 133.367 141.156 134.029 140.534 134.473C139.488 135.243 138.51 135.934 137.76 136.783C136.911 137.751 136.17 138.718 135.706 139.775C135.242 140.831 135.035 142.016 134.818 143.28C134.62 144.405 134.452 145.59 134.452 146.873C133.06 147.466 132.932 146.666 131.421 146.666C129.911 146.666 129.901 147.09 128.39 147.09C126.88 147.09 126.87 146.755 125.359 146.755C123.849 146.755 123.839 146.942 122.328 146.942C120.818 146.942 120.808 146.863 119.297 146.863C117.787 146.863 117.777 147.002 116.266 147.002C114.756 147.002 114.746 146.883 113.236 146.883C111.725 146.883 111.715 146.656 110.205 146.656C108.694 146.656 108.684 146.982 107.164 146.982C105.643 146.982 105.643 147.1 104.123 147.1C102.602 147.1 102.494 147.446 101.052 146.972C101.052 145.985 100.825 144.909 100.865 143.951C100.904 142.993 100.973 141.986 101.062 141.038C101.151 140.091 101.319 139.084 101.467 138.146C101.615 137.208 102.03 136.25 102.227 135.322C102.425 134.394 102.395 133.338 102.662 132.419C102.928 131.501 103.254 130.534 103.58 129.645C103.906 128.756 104.804 128.046 105.219 127.177C105.633 126.308 105.781 125.281 106.265 124.452C106.759 123.603 107.578 122.961 108.171 122.142C108.763 121.322 109.346 120.582 110.007 119.821C110.669 119.061 111.004 118.054 111.725 117.343C112.446 116.633 113.117 115.932 113.897 115.27C114.677 114.609 115.723 114.391 116.533 113.779C117.343 113.167 118.093 112.594 118.942 112.032C119.791 111.469 120.601 110.985 121.47 110.462C122.338 109.939 123.128 109.396 124.017 108.912C124.816 108.487 125.616 108.102 126.327 107.658C127.097 107.174 127.867 106.71 128.529 106.207C129.249 105.654 129.615 104.746 130.207 104.153C130.849 103.511 131.421 102.889 131.905 102.208C132.478 101.399 133.189 100.698 133.574 99.809C133.959 98.9205 134.373 97.9924 134.561 97.0249C134.749 96.0573 134.591 95.0799 134.591 94.0729C134.591 92.9474 134.522 91.8416 134.215 90.8148C133.909 89.788 133.534 88.7119 132.912 87.7739C132.33 86.9051 131.431 86.214 130.582 85.4341C129.891 84.7923 129.131 84.3086 128.351 83.8347C127.571 83.3608 126.722 83.0744 125.843 82.7684C124.965 82.4623 124.185 81.9983 123.247 81.8502C122.368 81.712 121.44 81.7712 120.482 81.7712C119.525 81.7712 118.537 81.6034 117.629 81.712C116.652 81.8206 115.773 82.2747 114.884 82.5018C113.936 82.7486 113.127 83.1732 112.288 83.5582C111.449 83.9433 110.412 84.0815 109.652 84.6344C108.891 85.1872 108.171 85.829 107.509 86.53C106.828 87.2606 106.473 88.2281 105.949 89.087C105.426 89.946 104.636 90.6371 104.261 91.5948C103.915 92.4932 104.024 93.5694 103.797 94.5863C103.59 95.5242 103.353 96.4819 103.254 97.5185C103.165 98.4762 103.214 99.4635 103.214 100.51C103.214 101.359 102.908 102.267 102.978 103.205C103.047 104.054 103.165 104.953 103.293 105.881C103.422 106.74 103.59 107.51 103.767 108.428C102.889 108.122 102.079 107.776 101.092 107.5C100.183 107.243 99.1567 107.312 98.1694 107.085C97.2512 106.878 96.2936 106.71 95.2964 106.533C94.3683 106.365 93.4304 105.999 92.4332 105.851C91.4953 105.713 90.4982 105.792 89.501 105.674C88.5038 105.555 87.6054 105.289 86.6082 105.19C85.6111 105.091 84.6929 104.844 83.6957 104.775C82.6985 104.706 81.7507 104.834 80.7536 104.775C79.7564 104.716 78.8284 104.39 77.8312 104.351C76.834 104.311 75.8764 104.805 74.8792 104.775C73.882 104.746 72.9441 104.439 71.9469 104.43C70.9498 104.42 69.9625 104.479 68.9653 104.479C68.8666 103.413 68.8271 101.912 68.8271 100.066C68.8271 99.039 68.9456 98.022 68.9949 97.0249C69.0443 96.0277 69.0838 94.9911 69.1825 93.984C69.2812 92.977 69.5182 91.9798 69.6663 90.9826C69.8144 89.9855 69.9427 88.9686 70.1501 87.9813C70.3574 86.994 70.3475 85.9277 70.6042 84.9602C70.8609 83.9926 71.0682 82.956 71.3842 81.9983C71.7001 81.0406 72.5097 80.2409 72.8947 79.303C73.2798 78.365 73.5069 77.358 73.9413 76.4497C74.3757 75.5414 74.8496 74.6331 75.3432 73.7544C75.8171 72.9053 76.0936 71.9378 76.6168 71.1282C77.1401 70.3186 77.7226 69.5288 78.2952 68.7488C78.8678 67.9689 79.7169 67.4061 80.329 66.6656C80.9412 65.9252 81.6816 65.3032 82.3431 64.6022C83.0046 63.9012 83.6266 63.1805 84.3375 62.519C85.0483 61.8575 85.5419 60.969 86.2923 60.3568C87.0426 59.7447 88.0102 59.4288 88.7901 58.866C89.5701 58.3033 90.1032 57.3752 90.9227 56.8519C91.7421 56.3287 92.6998 56.0621 93.5489 55.5882C94.4572 55.0847 95.2569 54.364 96.1948 53.9197C97.1328 53.4754 98.1892 53.2977 99.1567 52.9028C100.124 52.5079 101.171 52.3993 102.158 52.0734C103.145 51.7476 104.044 51.1948 105.051 50.9282C106.058 50.6616 107.114 50.711 108.141 50.5037C109.168 50.2963 110.106 49.7632 111.133 49.6151C112.159 49.467 113.196 49.5164 114.243 49.4176C115.289 49.3189 116.276 48.9437 117.323 48.8944C118.369 48.845 119.396 48.7858 120.443 48.7858C121.43 48.7858 122.417 48.8746 123.385 48.9141C124.352 48.9536 125.35 49.0918 126.317 49.1807C127.285 49.2695 128.242 49.625 129.21 49.7533C130.177 49.8817 131.184 49.8027 132.142 49.9903C133.1 50.1778 134.077 50.3556 135.025 50.5826C135.973 50.8097 136.871 51.254 137.809 51.5304C138.747 51.8069 139.636 52.2413 140.554 52.5671C141.472 52.8929 142.499 52.9521 143.407 53.3273C144.315 53.7025 145.174 54.1665 146.063 54.591C146.991 55.0353 147.801 55.6968 148.689 56.1806C149.578 56.6644 150.575 57.0198 151.424 57.5628C152.273 58.1058 153.014 58.866 153.833 59.4584C154.652 60.0508 155.64 60.4654 156.42 61.117C157.2 61.7687 157.881 62.5585 158.611 63.2595C159.342 63.9605 160.043 64.7108 160.734 65.4611C161.425 66.2115 162.353 66.7742 162.985 67.5739C163.617 68.3736 164.032 69.3412 164.614 70.1903L164.634 70.1804ZM100.756 191.064C99.6602 189.969 100.884 189.505 100.884 187.955C100.884 186.404 100.796 186.404 100.796 184.854C100.796 183.304 100.914 183.304 100.914 181.754C100.914 180.204 101.042 180.204 101.042 178.654C101.042 177.104 100.519 177.104 100.519 175.554C100.519 174.004 100.973 174.004 100.973 172.454C100.973 170.904 100.578 170.904 100.578 169.344C100.578 167.784 100.529 167.794 100.529 166.234C100.529 164.674 100.845 164.674 100.845 163.124C100.845 161.574 99.7392 161.189 100.845 160.083C101.951 158.977 102.316 159.955 103.856 159.955C105.396 159.955 105.396 160.241 106.927 160.241C108.457 160.241 108.467 160.123 109.997 160.123C111.527 160.123 111.537 159.836 113.068 159.836C114.598 159.836 114.608 160.212 116.138 160.212C117.668 160.212 117.678 160.172 119.209 160.172C120.739 160.172 120.749 160.123 122.279 160.123C123.809 160.123 123.819 159.757 125.35 159.757C126.88 159.757 126.89 159.896 128.43 159.896C129.97 159.896 129.97 159.836 131.51 159.836C133.05 159.836 133.396 159.037 134.482 160.133C135.568 161.229 134.462 161.574 134.462 163.124C134.462 164.674 134.373 164.674 134.373 166.224C134.373 167.774 134.443 167.774 134.443 169.324C134.443 170.874 134.729 170.874 134.729 172.424C134.729 173.974 134.758 173.974 134.758 175.525C134.758 177.075 134.62 177.075 134.62 178.625C134.62 180.175 134.531 180.175 134.531 181.735C134.531 183.295 134.67 183.285 134.67 184.845C134.67 186.404 134.601 186.404 134.601 187.955C134.601 189.505 135.548 189.811 134.452 190.916C133.357 192.022 133.06 191.282 131.53 191.282C130 191.282 129.99 190.946 128.46 190.946C126.929 190.946 126.919 191.124 125.389 191.124C123.859 191.124 123.849 191.045 122.319 191.045C120.788 191.045 120.778 191.183 119.248 191.183C117.718 191.183 117.708 191.064 116.178 191.064C114.647 191.064 114.637 190.837 113.107 190.837C111.577 190.837 111.567 191.163 110.037 191.163C108.506 191.163 108.496 191.282 106.956 191.282C105.416 191.282 105.406 190.837 103.896 191.163C102.286 191.509 101.872 192.16 100.786 191.074L100.756 191.064Z" fill="white"/>
<path d="M102.908 195.823C101.467 195.823 99.828 195.26 98.1595 193.345C95.2371 189.998 96.2836 187.214 96.9155 185.565C97.2117 184.795 97.4388 184.183 97.4388 183.314C97.4388 181.419 97.419 180.461 97.3894 179.513C97.3697 178.526 97.34 177.529 97.34 175.554C97.34 173.58 97.3697 172.563 97.3993 171.565C97.4289 170.618 97.4585 169.67 97.4585 167.784C97.4585 166.896 97.2512 166.303 96.9846 165.553C96.4219 163.944 95.4642 161.258 98.3668 157.931C101.26 154.604 104.113 155.482 105.653 155.956C106.305 156.154 106.828 156.312 107.529 156.312C109.444 156.312 110.461 156.45 111.36 156.568C112.149 156.667 112.821 156.766 114.282 156.766C115.743 156.766 116.464 156.687 117.264 156.588C118.152 156.489 119.149 156.371 121.045 156.371C122.713 156.371 123.543 156.361 124.382 156.341C125.241 156.332 126.1 156.312 127.818 156.312C128.509 156.312 129.042 156.134 129.723 155.917C131.293 155.403 134.235 154.446 137.138 157.783C140.05 161.12 139.053 163.865 138.451 165.513C138.174 166.283 137.947 166.886 137.947 167.764C137.947 169.63 137.987 170.568 138.026 171.506C138.066 172.513 138.105 173.52 138.105 175.524C138.105 177.529 138.026 178.644 137.947 179.671C137.878 180.579 137.809 181.488 137.809 183.294C137.809 184.163 138.036 184.766 138.332 185.516C138.964 187.155 140.021 189.899 137.098 193.256C134.186 196.613 131.145 195.586 129.694 195.102C129.022 194.875 128.499 194.698 127.818 194.698C125.932 194.698 124.935 194.589 124.056 194.49C123.256 194.402 122.555 194.323 121.065 194.323C119.396 194.323 118.557 194.323 117.728 194.342C116.879 194.342 116.02 194.362 114.312 194.362C112.841 194.362 111.863 194.244 111.142 194.155C110.165 194.036 109.76 193.997 108.279 194.323C107.489 194.5 106.838 194.767 106.206 195.014C105.347 195.359 104.202 195.813 102.908 195.813V195.823ZM103.175 188.547C103.214 188.596 103.254 188.655 103.313 188.725C103.412 188.685 103.511 188.636 103.619 188.596C104.379 188.29 105.416 187.876 106.749 187.569C109.217 187.007 110.412 187.086 111.962 187.273C112.594 187.352 113.255 187.431 114.312 187.431C115.98 187.431 116.809 187.431 117.649 187.411C118.498 187.411 119.357 187.392 121.075 187.392C122.96 187.392 123.957 187.5 124.846 187.599C125.646 187.688 126.337 187.767 127.838 187.767C129.654 187.767 131.017 188.231 131.915 188.527C131.945 188.537 131.984 188.547 132.014 188.557C132.043 188.527 132.063 188.498 132.083 188.468C132.034 188.31 131.955 188.162 131.895 187.994C131.5 186.977 130.908 185.437 130.908 183.275C130.908 181.113 130.987 180.155 131.066 179.128C131.135 178.22 131.204 177.311 131.204 175.505C131.204 173.698 131.165 172.701 131.125 171.763C131.086 170.756 131.046 169.749 131.046 167.745C131.046 165.74 131.599 164.131 131.964 163.124C132.034 162.937 132.112 162.759 132.162 162.591C132.132 162.542 132.083 162.492 132.034 162.423C131.984 162.443 131.935 162.453 131.876 162.472C130.977 162.769 129.625 163.203 127.828 163.203C126.159 163.203 125.33 163.213 124.491 163.233C123.632 163.243 122.773 163.262 121.055 163.262C119.564 163.262 118.873 163.341 118.073 163.44C117.185 163.539 116.187 163.657 114.292 163.657C112.396 163.657 111.35 163.519 110.451 163.401C109.661 163.302 108.99 163.203 107.529 163.203C105.791 163.203 104.488 162.808 103.629 162.542C103.599 162.542 103.57 162.522 103.53 162.512C103.451 162.611 103.382 162.69 103.343 162.749C103.392 162.897 103.451 163.055 103.511 163.213C103.856 164.19 104.379 165.671 104.379 167.754C104.379 169.838 104.35 170.746 104.32 171.743C104.291 172.691 104.261 173.639 104.261 175.524C104.261 177.41 104.281 178.378 104.31 179.326C104.33 180.313 104.36 181.31 104.36 183.285C104.36 185.427 103.777 186.967 103.382 187.994C103.313 188.182 103.234 188.359 103.175 188.527V188.547ZM103.027 151.059C102.069 151.059 100.983 150.862 99.6602 150.329C98.357 149.796 97.498 148.532 97.498 147.12C97.498 144.948 97.5869 141.729 97.9818 138.679C98.3965 135.519 98.9691 132.844 99.7095 130.484C100.588 127.71 101.99 125.331 103.224 123.218L103.451 122.833C104.932 120.305 106.66 118.034 108.743 115.882C110.441 114.125 112.525 112.387 115.279 110.403C117.777 108.606 120.018 107.184 122.358 105.91C123.424 105.348 124.342 104.627 125.3 103.857L126.169 103.176C127.364 102.257 128.321 101.29 129.082 100.234C130.454 98.3083 131.096 96.3535 131.096 94.1025C131.096 91.7033 130.168 89.6893 128.262 87.922C127.373 87.0927 126.238 86.451 124.708 85.9178C123.286 85.4143 121.894 85.1675 120.443 85.1675C118.488 85.1675 116.257 85.2464 114.529 85.8586C112.999 86.3917 111.695 87.5468 110.224 89.1166C108.546 90.8938 107.628 92.3747 107.134 94.0432C106.561 95.9684 106.492 98.3972 106.492 100.52C106.492 102.88 106.739 105.358 107.223 107.875C107.46 109.09 107.025 110.343 106.087 111.153C105.15 111.963 103.856 112.209 102.681 111.805C100.845 111.163 98.5445 110.679 96.3133 110.225L95.6616 110.087C93.7463 109.692 91.7717 109.287 89.6688 109.02C88.879 108.922 88.0694 108.803 87.2499 108.675C85.8183 108.458 84.3374 108.24 82.8565 108.132C81.7704 108.063 80.5857 108.083 79.322 108.112C78.2162 108.132 77.0808 108.162 75.9355 108.122C74.4842 108.083 72.9737 108.092 71.4236 108.112C70.5844 108.112 69.7452 108.132 68.906 108.132C67.119 108.132 65.6282 106.769 65.4604 104.992C65.3518 103.778 65.2827 101.991 65.2827 100.095V98.9797C65.2728 96.9755 65.2629 94.9022 65.49 92.8486C65.7664 90.3804 66.1811 87.9516 66.7439 85.6315C67.277 83.42 67.9977 81.1294 68.9751 78.6316C69.7551 76.6274 70.772 74.8305 71.7593 73.0929L72.3221 72.0858C72.5788 71.6218 72.8256 71.1578 73.0823 70.7036C73.9116 69.1635 74.7804 67.564 75.9059 66.0634C77.3079 64.1974 78.8678 62.4202 80.5363 60.7616C81.7704 59.5374 83.1724 58.629 84.4065 57.8195C85.0088 57.4245 85.6209 57.0395 86.1935 56.6051C86.6575 56.2595 87.1216 55.8942 87.5856 55.5289C88.8888 54.5022 90.2315 53.4458 91.8408 52.5473C93.6081 51.56 95.4049 50.9084 97.1525 50.2766C97.6856 50.0791 98.2187 49.8915 98.7519 49.6842C101.102 48.7759 103.422 48.065 105.841 47.4924C106.532 47.3245 107.233 47.1271 107.934 46.9296C109.543 46.4755 111.212 46.0016 113.077 45.8041C115.052 45.5869 117.678 45.3401 120.462 45.3401C122.141 45.3401 123.73 45.6067 125.142 45.8436C125.893 45.972 126.643 46.1003 127.393 46.1694C130.069 46.4459 132.251 46.7717 134.275 47.2159C136.447 47.68 138.638 48.302 140.998 49.1017C143.062 49.8027 145.273 50.6024 147.494 51.6686C149.696 52.725 151.681 53.9295 153.162 54.8576C154.83 55.9041 156.499 57.1382 158.434 58.7376C158.937 59.1523 159.46 59.5374 159.984 59.9224C161.169 60.811 162.403 61.7193 163.528 62.9435C164.891 64.4245 165.977 66.014 167.033 67.564L167.497 68.2453C168.8 70.131 169.788 72.1352 170.696 74.0209C171.466 75.6302 172.443 77.7924 173.134 80.152C173.776 82.3734 174.112 84.6442 174.378 86.6089C174.675 88.8106 174.675 90.9925 174.675 93.0954C174.675 93.8359 174.724 94.5665 174.773 95.2872C174.872 96.7385 174.981 98.2392 174.764 99.8288C174.507 101.705 173.905 103.363 173.381 104.834C173.194 105.358 173.006 105.871 172.838 106.394C172.7 106.848 172.562 107.303 172.424 107.757C171.92 109.455 171.407 111.202 170.449 112.901C168.869 115.714 167.151 118.192 165.325 120.285C163.271 122.645 160.872 124.402 158.562 126.101C156.094 127.809 155.146 128.44 153.932 129.25C153.122 129.793 152.194 130.405 150.634 131.462C147.455 133.604 145.174 135.273 143.664 136.378L142.489 137.227C140.435 138.748 139.231 139.992 138.727 141.127C138.135 142.47 137.878 144.217 137.878 146.794C137.878 148.196 137.029 149.47 135.726 149.993C133.041 151.089 131.609 150.98 129.881 150.714C129.269 150.615 128.696 150.536 127.788 150.536C125.922 150.536 124.935 150.428 124.056 150.319C123.266 150.23 122.585 150.151 121.114 150.151C119.465 150.151 118.636 150.151 117.816 150.171C116.967 150.171 116.128 150.191 114.44 150.191C112.752 150.191 111.972 150.2 111.152 150.22C110.303 150.23 109.454 150.25 107.756 150.25C106.917 150.25 106.453 150.398 105.801 150.595C104.942 150.862 104.064 151.089 103.037 151.089L103.027 151.059ZM121.104 143.22C122.97 143.22 123.957 143.329 124.836 143.437C125.626 143.526 126.307 143.605 127.778 143.605C129.249 143.605 130.207 143.753 130.928 143.872C130.977 143.872 131.017 143.882 131.066 143.892C131.254 141.72 131.688 139.942 132.389 138.333C133.692 135.361 136.299 133.18 138.421 131.62L139.576 130.78C141.126 129.645 143.476 127.927 146.754 125.716C148.324 124.659 149.262 124.027 150.081 123.474C151.266 122.685 152.194 122.072 154.455 120.503C156.558 118.953 158.552 117.501 160.092 115.724C161.603 113.987 163.054 111.893 164.397 109.494C164.97 108.477 165.355 107.164 165.769 105.782C165.917 105.288 166.065 104.785 166.223 104.281C166.411 103.679 166.628 103.077 166.845 102.475C167.3 101.221 167.724 100.036 167.882 98.881C168.001 98.0023 167.931 96.9163 167.852 95.7611C167.793 94.8824 167.734 93.9939 167.734 93.0954C167.734 91.1307 167.734 89.2647 167.497 87.5271C167.26 85.7302 166.984 83.8445 166.47 82.0871C165.927 80.2113 165.128 78.4638 164.427 76.9927C163.607 75.2847 162.798 73.6359 161.781 72.1648L161.307 71.4639C160.349 70.0619 159.441 68.7291 158.414 67.6233C157.733 66.8828 156.815 66.2016 155.837 65.471C155.215 65.007 154.603 64.5528 154.011 64.0592C152.312 62.6572 150.871 61.5909 149.469 60.7024C148.146 59.873 146.379 58.7969 144.503 57.8984C142.607 56.9901 140.623 56.2793 138.757 55.6375C136.664 54.9168 134.719 54.3738 132.813 53.969C131.036 53.584 129.091 53.2977 126.682 53.041C125.794 52.9521 124.895 52.804 123.997 52.6559C120.571 52.0833 118.044 52.2116 113.818 52.6658C112.534 52.804 111.212 53.1792 109.81 53.5741C109.01 53.8012 108.22 54.0184 107.42 54.206C105.307 54.6996 103.284 55.3315 101.23 56.1213C100.657 56.3385 100.085 56.5557 99.5121 56.7631C97.962 57.3258 96.491 57.859 95.2174 58.5698C94.082 59.2017 93.0058 60.0507 91.8704 60.9492C91.3571 61.354 90.8535 61.7489 90.3303 62.1339C89.6392 62.6572 88.8987 63.1311 88.1681 63.605C87.1216 64.2862 86.1244 64.928 85.4037 65.6487C83.9721 67.0704 82.6294 68.6106 81.4249 70.21C80.6054 71.296 79.9045 72.5992 79.164 73.9716C78.8974 74.4652 78.6308 74.9589 78.3544 75.4426L77.7719 76.4793C76.8735 78.0688 76.0145 79.5695 75.4222 81.1097C74.5632 83.3114 73.9313 85.3156 73.4772 87.221C72.9835 89.2549 72.6182 91.3973 72.3714 93.5891C72.1838 95.2477 72.1937 97.0446 72.2036 98.9303V100.076C72.2036 100.451 72.2036 100.816 72.2135 101.171C73.5562 101.162 74.8791 101.152 76.1527 101.201C77.1697 101.231 78.1866 101.201 79.1739 101.181C80.5363 101.152 81.9383 101.122 83.3501 101.221C85.1075 101.339 86.7267 101.586 88.2964 101.823C89.0567 101.942 89.807 102.05 90.5376 102.139C92.917 102.435 95.1285 102.889 97.0833 103.294L97.735 103.432C98.3965 103.571 99.0579 103.709 99.7194 103.847C99.6306 102.722 99.5911 101.606 99.5911 100.51C99.5911 97.8937 99.6997 94.8528 100.519 92.0686C101.576 88.5144 103.698 85.9672 105.209 84.3579C107.094 82.3636 109.247 80.3692 112.268 79.3029C114.973 78.3551 117.935 78.2268 120.472 78.2268C122.723 78.2268 124.876 78.602 127.038 79.3721C129.467 80.2211 131.412 81.3565 133.001 82.8276C136.348 85.9277 138.046 89.7189 138.046 94.0827C138.046 97.7456 136.93 101.162 134.739 104.232C133.584 105.851 132.162 107.303 130.414 108.645L129.644 109.257C128.529 110.146 127.265 111.153 125.656 112.002C123.622 113.108 121.608 114.381 119.357 116.001C116.938 117.748 115.151 119.229 113.739 120.68C112.051 122.428 110.649 124.264 109.444 126.308L109.217 126.703C108.062 128.668 106.976 130.514 106.334 132.548C105.712 134.512 105.229 136.813 104.863 139.567C104.695 140.801 104.577 142.213 104.508 143.724C105.307 143.507 106.364 143.289 107.756 143.289C109.405 143.289 110.224 143.28 111.044 143.26C111.893 143.25 112.742 143.23 114.44 143.23C116.138 143.23 116.908 143.23 117.738 143.21C118.587 143.21 119.426 143.191 121.114 143.191L121.104 143.22Z" fill="#463E53"/>
</svg>
